<svg width="33" height="31" viewBox="0 0 33 31" xmlns="http://www.w3.org/2000/svg">
    <g fill="none" fill-rule="evenodd">
        <path d="M3-5h40v40H3z"/>
        <path d="m4 15.447 1.817-1.604a4 4 0 0 1 4.482-.62l4.394 2.198a2.606 2.606 0 0 1 1.017 4.013l3.43.686 9.834-3.044a2.97 2.97 0 0 1 3.342 4.443c-.37.582-.684.985-.977 1.23-.622.518-3.416 3.243-9.647 7.048a4 4 0 0 1-3.43.352L10.01 27.2H4v2.4a1.2 1.2 0 0 1-1.2 1.2H1.2a1.2 1.2 0 1 1 0-2.4h.4V13.2h-.4a1.2 1.2 0 1 1 0-2.4h1.6A1.2 1.2 0 0 1 4 12v3.447zM22.378 16c-3.625 0-5.6-1.598-5.6-5.6 0-2.88 1.68-6.24 4.992-10.12a.8.8 0 0 1 1.217 0c3.312 3.88 4.991 7.24 4.991 10.12 0 4.002-1.974 5.6-5.6 5.6z" fill="#589B46" fill-rule="nonzero"/>
    </g>
</svg>
