<svg width="50" height="52" viewBox="0 0 50 52" xmlns="http://www.w3.org/2000/svg">
    <g fill-rule="nonzero" fill="none">
        <path d="M14.927 21.902v1.167a5.489 5.489 0 0 0-2.474 1.392 5.042 5.042 0 0 0-1.37 2.394H9.203a.343.343 0 0 1-.351-.333v-4.62c0-.184.156-.335.351-.338h5.366a.37.37 0 0 1 .253.099.33.33 0 0 1 .104.24zM14.927 32.834v2.002c0 .09-.037.175-.105.238a.363.363 0 0 1-.252.095H9.204a.343.343 0 0 1-.351-.333v-4.625c0-.088.037-.173.103-.235a.362.362 0 0 1 .248-.098h2.159c.65 1.447 1.963 2.535 3.564 2.956zM9.676 38.193h4.428c.455 0 .823.43.823.778v3.734c0 .43-.368.779-.823.779H9.676c-.455 0-.823-.43-.823-.779v-3.734c0-.43.369-.778.823-.778zM23.28 21.902v4.62a.319.319 0 0 1-.101.237.358.358 0 0 1-.25.096h-1.994c-.444-1.792-1.865-3.224-3.73-3.758v-1.195a.324.324 0 0 1 .102-.239.364.364 0 0 1 .25-.1h5.371c.094 0 .185.037.251.1.066.064.103.15.101.24zM23.28 30.227v4.61a.318.318 0 0 1-.102.237.359.359 0 0 1-.25.095h-5.37a.358.358 0 0 1-.251-.095.317.317 0 0 1-.102-.237v-2.024c1.555-.446 2.817-1.522 3.443-2.935h2.28a.356.356 0 0 1 .257.101.314.314 0 0 1 .094.248zM18.029 38.193h4.428c.455 0 .823.43.823.778v3.734c0 .43-.369.779-.823.779h-4.428c-.455 0-.824-.43-.824-.779v-3.734c0-.43.37-.778.824-.778zM27.14 21.564h4.429c.455 0 .823.43.823.778v3.734c0 .43-.369.779-.823.779H27.14c-.455 0-.824-.43-.824-.779v-3.734c0-.43.37-.778.824-.778zM32.392 30.211v1.467c-1.87.422-3.366 1.75-3.933 3.491h-1.785a.362.362 0 0 1-.252-.095.324.324 0 0 1-.105-.238v-4.625c0-.089.038-.175.105-.237a.361.361 0 0 1 .252-.095h5.355a.355.355 0 0 1 .258.091c.069.063.107.15.105.242zM32.392 41.39v1.76a.32.32 0 0 1-.101.238.358.358 0 0 1-.25.096h-5.366a.362.362 0 0 1-.252-.096.324.324 0 0 1-.106-.237v-4.626c0-.089.038-.174.106-.237a.361.361 0 0 1 .252-.095h1.884c.634 1.604 2.072 2.804 3.833 3.198zM34.734 21.564h4.428c.455 0 .823.43.823.778v3.734c0 .43-.368.779-.823.779h-4.428c-.455 0-.823-.43-.823-.779v-3.734c0-.43.369-.778.823-.778zM39.985 30.211v4.626a.318.318 0 0 1-.101.237.357.357 0 0 1-.25.095h-2.292c-.51-1.572-1.785-2.818-3.431-3.35V30.21a.318.318 0 0 1 .101-.237.357.357 0 0 1 .25-.096h5.371a.357.357 0 0 1 .25.096.318.318 0 0 1 .102.237zM39.985 38.526v4.625a.318.318 0 0 1-.101.237.357.357 0 0 1-.25.096h-5.371a.357.357 0 0 1-.251-.096.318.318 0 0 1-.101-.237v-1.896c1.537-.5 2.757-1.624 3.33-3.062h2.386a.357.357 0 0 1 .255.093c.068.063.105.15.103.24z" fill="#2D2D2D"/>
        <path d="M16.446 24.587a3.807 3.807 0 0 0-2.685 1.108 3.77 3.77 0 0 0 .003 5.346 3.806 3.806 0 0 0 5.37-.005 3.77 3.77 0 0 0-.006-5.343 3.804 3.804 0 0 0-2.682-1.106zm2.25 3.001-2.458 2.492a.434.434 0 0 1-.321.14.465.465 0 0 1-.315-.129l-1.428-1.405a.446.446 0 0 1 0-.639.456.456 0 0 1 .646 0l1.125 1.081 2.11-2.161a.457.457 0 0 1 .635 0 .452.452 0 0 1 .017.633l-.011-.012zM32.398 32.902a3.805 3.805 0 0 0-2.687 1.103 3.77 3.77 0 0 0-.006 5.346 3.805 3.805 0 0 0 2.685 1.11 3.805 3.805 0 0 0 2.686-1.107 3.772 3.772 0 0 0 1.113-2.673 3.777 3.777 0 0 0-1.112-2.669 3.81 3.81 0 0 0-2.68-1.11zm2.25 3.006L32.194 38.4a.446.446 0 0 1-.636.005l-1.434-1.4a.452.452 0 0 1 0-.638.446.446 0 0 1 .642 0l1.124 1.081 2.132-2.172a.458.458 0 0 1 .642 0 .447.447 0 0 1-.012.632h-.006z" fill="#589B46"/>
        <path d="M45.46 5.621a7.569 7.569 0 0 0-3.125-.675h-3.257a.46.46 0 0 0-.461.46v1.512a3.374 3.374 0 0 1-.949 2.336 3.403 3.403 0 0 1-2.308 1.035h-.211a3.457 3.457 0 0 1-2.201-1.144 3.43 3.43 0 0 1-.86-2.319v-1.42a.46.46 0 0 0-.462-.46H18.753a.46.46 0 0 0-.462.46v1.41a3.425 3.425 0 0 1-.86 2.318 3.459 3.459 0 0 1-2.2 1.144h-.196a3.406 3.406 0 0 1-2.308-1.034 3.375 3.375 0 0 1-.949-2.337V5.394a.46.46 0 0 0-.46-.459H8.032a7.59 7.59 0 0 0-6.04 3.01A7.456 7.456 0 0 0 .5 12.433V46.72c0 1.146.457 2.245 1.272 3.056a4.352 4.352 0 0 0 3.07 1.266h40.673a4.351 4.351 0 0 0 3.07-1.266 4.312 4.312 0 0 0 1.272-3.056V12.446a7.463 7.463 0 0 0-1.19-4.056 7.514 7.514 0 0 0-3.206-2.768zm.772 40.244a1.87 1.87 0 0 1-.55 1.33 1.888 1.888 0 0 1-1.334.55H6.019c-.5 0-.98-.198-1.333-.55a1.87 1.87 0 0 1-.55-1.33V18.172c.001-.497.2-.973.553-1.324.353-.351.831-.55 1.33-.551h38.329a1.888 1.888 0 0 1 1.46.691c.273.334.423.752.424 1.184v27.693z" fill="#589B46"/>
        <path d="M15.304.4a1.833 1.833 0 0 0-1.339.603 2.149 2.149 0 0 0-.556 1.451v5.064c.034.71.403 1.35.977 1.694.573.344 1.27.344 1.843 0s.942-.985.976-1.694V2.454a2.147 2.147 0 0 0-.558-1.453 1.83 1.83 0 0 0-1.343-.6zM35.052.4a1.83 1.83 0 0 0-1.342.601 2.15 2.15 0 0 0-.559 1.453v5.064c.035.71.404 1.35.977 1.694.574.344 1.27.344 1.843 0 .574-.344.943-.985.977-1.694V2.454a2.15 2.15 0 0 0-.557-1.45A1.83 1.83 0 0 0 35.052.4z" fill="#2D2D2D"/>
    </g>
</svg>
