<svg width="62" height="61" viewBox="0 0 62 61" xmlns="http://www.w3.org/2000/svg">
    <g fill-rule="nonzero" fill="none">
        <path d="M12.801 33a.5.5 0 0 0 .469-.679c-.023-.06-2.226-6.04-.775-9.68 1.83-4.59 4.3-6.636 8.005-6.636a.501.501 0 0 0 0-1.005c-5.41 0-7.69 4.148-8.933 7.269-1.594 3.996.669 10.145.766 10.405a.5.5 0 0 0 .468.326zM19.72 40.064c-.254-.144-.567-.037-.7.24-.578 1.25-1.555 2.226-2.747 2.746a2.201 2.201 0 0 1-1.973-.512c-.796-.678-1.83-.93-2.815-.689-2.072.543-3.371 3.21-3.426 3.323-.133.276-.034.618.22.763.254.145.567.038.7-.239.012-.023 1.14-2.327 2.751-2.747a2.205 2.205 0 0 1 1.97.513c.795.68 1.83.933 2.815.689 2.072-.543 3.371-3.21 3.426-3.323a.611.611 0 0 0 .035-.432.557.557 0 0 0-.255-.332zM8.947 38.78c1.612-1.072.973-2.669.667-3.436a.567.567 0 0 0-.951-.146.519.519 0 0 0-.085.53c.479 1.195.415 1.723-.262 2.173-.186.12-.38.23-.58.328a6.329 6.329 0 0 0-.823.49 1.948 1.948 0 0 0-.904 1.831.549.549 0 0 0 .636.443.557.557 0 0 0 .362-.213.519.519 0 0 0 .1-.398.99.99 0 0 1 .48-.815c.216-.15.444-.284.682-.4a7.68 7.68 0 0 0 .678-.387z" fill="#2D2D2D"/>
        <path d="M15.486 23.032a.552.552 0 0 0-.364.18.472.472 0 0 0-.12.365c.034.273.295.47.59.447.046-.004 4.52-.38 6.87 2.02 1.391 1.42 1.79 3.56 1.184 6.36-.029.13 0 .264.08.374a.545.545 0 0 0 .45.222.53.53 0 0 0 .528-.4c.678-3.13.19-5.562-1.446-7.23-2.72-2.769-7.57-2.357-7.773-2.338z" fill="#2D2D2D"/>
        <path d="M50.63 0c-6.08-.001-11.083 4.78-11.36 10.853-.277 6.073 4.272 11.29 10.325 11.84v34.172a2.07 2.07 0 0 1-2.067 2.067H35.123a2.07 2.07 0 0 1-2.067-2.067V55.64a3.096 3.096 0 0 0 2.067-2.911v-4.325a4.132 4.132 0 0 0 3.112-3.992V25.807c.022-4.419-.946-12.542-7.67-17.297a16.67 16.67 0 0 0-9.748-3.004c-3.15-.004-6.25.792-9.009 2.311a19.873 19.873 0 0 0-6.065 5.34 3.026 3.026 0 0 0-.555 2.437c.179.884.73 1.647 1.512 2.095l.748.428a22.035 22.035 0 0 0-2.392 7.244c-.055.393-.094.784-.12 1.174-.063.965-.049 1.922-.034 2.849.005.395.011.792.011 1.191 0 .99-.825 1.91-1.624 2.799l-.275.308a12.2 12.2 0 0 0-2.885 6.403 19.721 19.721 0 0 0 1.242 9.472c1.078 2.977 2.73 6.562 5.96 7.865a6.53 6.53 0 0 0 2.458.475 9.244 9.244 0 0 0 6.62-3.241 20.785 20.785 0 0 0 2.31-3.415 22.454 22.454 0 0 1 1.756-2.694h8.446v4.182a3.097 3.097 0 0 0 2.067 2.91v1.225A4.14 4.14 0 0 0 35.123 61h12.405a4.14 4.14 0 0 0 4.135-4.136v-34.17c6.053-.552 10.602-5.768 10.325-11.841C61.712 4.78 56.708-.001 50.628 0h.001zM33.055 52.73a1.034 1.034 0 1 1-2.068 0v-4.136h2.068v4.136zM7.726 15.895a1.061 1.061 0 0 1-.512-.71.951.951 0 0 1 .172-.77 17.818 17.818 0 0 1 5.424-4.788 16.551 16.551 0 0 1 8.007-2.052c3.054-.04 6.044.877 8.551 2.623 5.962 4.215 6.819 11.583 6.799 15.605v18.61a2.07 2.07 0 0 1-2.068 2.069H22.487c1.17-1.049 2.438-2.015 3.687-2.951l.266-.201a18.222 18.222 0 0 0 5.833-8.098c.385-.972.71-1.966.976-2.977 1.842-7.045.987-16.078-5.076-20.375a13.78 13.78 0 0 0-14.363-.442 15.63 15.63 0 0 0-5.284 4.915l-.8-.458zm7.134 37.392c-1.603 1.815-4.312 3.204-6.756 2.219-2.472-.997-3.858-4.078-4.79-6.652a17.677 17.677 0 0 1-1.138-8.477 10.144 10.144 0 0 1 2.386-5.324l.266-.296c.959-1.069 2.152-2.398 2.153-4.18 0-.41-.006-.817-.012-1.224-.015-.926-.027-1.8.031-2.681.021-.342.056-.681.103-1.021a19.78 19.78 0 0 1 2.605-7.335c.016-.024.041-.038.056-.064.012-.021.012-.045.022-.067a13.904 13.904 0 0 1 5.026-4.938 12.418 12.418 0 0 1 5.975-1.522 10.735 10.735 0 0 1 6.19 1.842c5.23 3.706 5.88 12.014 4.27 18.164a24.224 24.224 0 0 1-.895 2.742 16.209 16.209 0 0 1-5.151 7.203l-.267.2a37.08 37.08 0 0 0-5.67 4.887 20.888 20.888 0 0 0-2.33 3.438 18.97 18.97 0 0 1-2.074 3.086zm36.598-36.295a.99.99 0 0 0-1.66 0 5.686 5.686 0 0 1-4.84-6.041 5.686 5.686 0 1 1 6.5 6.041zm.204 3.625v-2.611A6.72 6.72 0 0 0 50.63 4.645a6.72 6.72 0 0 0-6.7 6.202 6.72 6.72 0 0 0 5.666 7.159v2.611a9.305 9.305 0 0 1-8.255-9.765 9.304 9.304 0 0 1 18.577 0 9.304 9.304 0 0 1-8.255 9.765z" fill="#589B46"/>
    </g>
</svg>
