<svg width="79" height="68" viewBox="0 0 79 68" xmlns="http://www.w3.org/2000/svg">
    <g fill="none" fill-rule="evenodd">
        <path d="M75.521 38.056a3.517 3.517 0 0 1 3.402 2.646l.038.2a3.053 3.053 0 0 1-1.046 2.825 3.443 3.443 0 0 1-2.394 1.008h-3.402v20.162c0 1.386-1.134 2.394-2.395 2.394H36.583c-1.386 0-2.395-1.134-2.395-2.394V44.735h-3.276c-1.764 0-3.402-1.26-3.528-3.025 0-1.008.378-2.016 1.008-2.646a3.443 3.443 0 0 1 2.394-1.008zm-22.304 7.057h-.126a2.259 2.259 0 0 0-2.269 2.268v3.024h-2.898a2.259 2.259 0 0 0-2.268 2.269l.005.156a2.258 2.258 0 0 0 2.263 2.112h3.024v3.024a2.259 2.259 0 0 0 2.269 2.269l.156-.006a2.258 2.258 0 0 0 2.112-2.263v-3.024h3.024l.147-.006c1.073-.082 1.995-1.057 1.995-2.262 0-.63-.252-1.26-.63-1.638a2.087 2.087 0 0 0-1.512-.63h-3.024V47.38a2.259 2.259 0 0 0-2.268-2.268z" fill="#589B46"/>
        <path d="M16.296 26.212c-3.275 0-5.668-2.394-5.668-5.67 0-3.15 2.52-5.795 5.668-5.795 3.15.126 5.795 2.646 5.669 5.795 0 3.276-2.394 5.67-5.669 5.67z" fill="#2D2D2D"/>
        <path d="M22.723 63.508c1.26-.126 2.52-.126 3.654-.126 1.387 0 2.647-1.134 2.647-2.646s-1.134-2.646-2.647-2.646c-1.26 0-2.646.126-3.906.126-2.899.126-5.923.252-8.318-.252-2.142-.378-4.032-1.639-5.293-3.529-1.134-1.638-1.386-3.528-1.764-5.922 0-.378-.126-.756-.126-1.008L5.206 36.04c-.252-1.386-1.513-2.394-3.025-2.142C.795 34.149-.213 35.409.04 36.92l1.764 11.466c0 .378.126.63.126 1.008.378 2.646.756 5.544 2.647 8.19 2.016 2.899 4.914 4.915 8.317 5.545 1.764.378 3.655.504 5.545.504 1.386 0 2.772-.126 4.285-.126z" fill="#589B46"/>
        <path d="M30.284 48.14c.378 0 .63.252.63.63v7.058c0 .378-.252.63-.63.63H18.188c-4.788 0-7.308-2.142-7.308-6.932-.126-5.168-.504-10.21-.882-15.25-.252-3.152 1.89-5.799 4.914-6.177h.126c1.008-.126 1.89.126 2.772.504 1.512.757 2.646 2.27 3.024 4.286.252 1.638.378 3.277.504 5.041 0 .505.126.883.126 1.387l.378 8.318c3.36.168 6.174.337 8.442.505zM53.217 0c1.134 0 2.268.252 3.402.63.252.126.378.126.63.252 1.764.882 2.898 2.52 2.772 4.537 0 .504-.126 1.134-.252 1.764-.126.252-.126.378-.126.63v.252l.13.036c.534.195.743.864.626 1.098v.504c0 .126-.126.378-.126.63v.378c0 .504-.126 1.26-.756 1.764l-.63.63c0 .126-.126.252-.126.504 0 .126 0 .378-.126.504-.252.379-.378.757-.63 1.135-1.134 1.89-2.772 2.898-4.663 2.898h-.882c-2.394-.378-4.536-2.268-5.166-4.915v-.126c-.756-.378-1.26-1.134-1.386-2.142v-.378c-.126-.126-.126-.378-.126-.63v-.504l.005-.127c.046-.601.415-1.268 1.003-1.385h.126c0-.126-.126-.378-.126-.504 0-.252-.126-.504-.126-.756v-1.89c0-.757.126-1.26.378-1.765.252-.378.504-.63.882-.756l.152-.151c.206-.202.428-.403.73-.605l.108-.155a2.91 2.91 0 0 1 .774-.727c.126 0 .126-.126.252-.126A6.408 6.408 0 0 1 52.46 0zm3.024 5.797a8.595 8.595 0 0 1-3.276 1.512c-.379.126-.757.126-1.135.252-1.386.252-2.646.252-4.032.252.126.252.126.504.126.756s0 .378-.126.504-.126.252-.252.252h-.504c-.126 0-.126.126-.126.252v.504c.126.126.126.378.126.504v.378c.126.378.252 1.008.756 1.26h.252c.039.117.101.28.17.456l.104.266c.12.31.23.597.23.664.378 1.009 1.26 2.143 2.268 2.647.63.378 1.26.63 1.89.756 1.513.252 2.899-.378 3.907-1.638l.225-.284c.5-.663.83-1.339 1.161-2.11.168-.253.294-.463.378-.63.084 0 .126-.043.126-.127l.045-.045.036-.035.045-.046c.126 0 .126-.126.252-.126.252-.252.378-.504.378-1.008v-.378c.126-.126.126-.378.126-.504v-.504c0-.252-.126-.378-.378-.252-.252 0-.504 0-.756-.252 0-.126-.126-.126-.126-.252-.126-.252 0-.504 0-.756v-.252c0-.126.126-.378.126-.63h-.126c-.756-.252-1.386-.756-1.89-1.386zM59.517 20.666c.378.126.882.252 1.26.378.126 0 .252.126.378.126s.252.126.378.126a24.212 24.212 0 0 1 4.915 2.143c.378.252.882.63 1.26 1.008.63.504 1.008 1.26 1.134 2.142v.053a2.235 2.235 0 0 1-.126.703v8.695H37.34v-9.2c.126-.755.504-1.511 1.134-2.141.378-.378.756-.756 1.26-1.008a33.45 33.45 0 0 1 5.293-2.269c.504-.252 1.134-.378 1.638-.504.504.756 1.008 1.386 1.512 2.142.63.757 1.26 1.639 1.89 2.395.378.504.756.882 1.134 1.386l.252.252c.126-.252.126-.378.126-.63.126-1.512.378-3.024.378-3.15l-.053-.117c-.076-.178-.094-.283-.199-.388v-.252c0-.126-.126-.126-.126-.252v-.126l-.02-.094c-.035-.095-.106-.19-.106-.284 0-.126.126-.252.126-.378v-.252l.126-.126c.084-.084.168-.126.252-.126H54.1c.126 0 .252 0 .378.126l.126.126v.252c.126.126.126.252.126.378s-.126.252-.126.378v.126c0 .126-.126.126-.126.252v.126l-.063.09c-.068.132-.089.314-.19.415l.001.024c.011.228.137 1.562.378 3.126.126.252.126.378.126.63l.252-.252.045-.045.06-.061.02-.02c.379-.378.63-.882 1.009-1.26.63-.756 1.26-1.512 1.89-2.395.378-.504.756-1.134 1.134-1.638.126-.252.252-.378.378-.63zm3.15 5.797-.122.006c-.556.061-.886.532-.886 1.002v1.26H60.4c-.63 0-1.008.504-1.008 1.008s.378 1.008.882.882h1.26v1.26c0 .63.504 1.009 1.009 1.009l.122-.007c.556-.06.886-.531.886-1.002v-1.26h1.26c.63 0 1.008-.504 1.008-1.008a.963.963 0 0 0-.252-.63.963.963 0 0 0-.63-.252h-1.26v-1.26c0-.63-.504-1.008-1.008-1.008z" fill="#2D2D2D"/>
    </g>
</svg>
