<svg width="23" height="23" viewBox="0 0 23 23" xmlns="http://www.w3.org/2000/svg">
    <path d="M18.735 13.953a.48.48 0 0 1-.479.422h-1.964a.48.48 0 0 0-.48.48v7.666c0 .264.215.479.48.479h5.75c.529 0 .958-.43.958-.958V.958C23 .43 22.57 0 22.042 0H.958C.43 0 0 .43 0 .958v21.084c0 .529.43.958.958.958H11.5a.48.48 0 0 0 .48-.48v-7.666a.48.48 0 0 0-.48-.479H9.583a.48.48 0 0 1-.479-.48v-2.874a.48.48 0 0 1 .48-.48H11.5a.48.48 0 0 0 .48-.479V8.808a5.453 5.453 0 0 1 5.452-5.453h1.256a.48.48 0 0 1 .479.48v2.874a.48.48 0 0 1-.48.48h-1.255a1.62 1.62 0 0 0-1.62 1.62v1.255c0 .264.215.479.48.479h2.328a.48.48 0 0 1 .48.536l-.365 2.875z" fill="#FFF" fill-rule="nonzero"/>
</svg>
