<svg width="94" height="81" viewBox="0 0 94 81" xmlns="http://www.w3.org/2000/svg">
    <g fill-rule="nonzero" fill="none">
        <path d="M83.602 28c.132 1.123.208 2.264.208 3.424 0 19.557-19.682 35.465-43.881 35.465-2.656 0-5.311-.244-7.929-.636 6.63 6.026 16.272 9.6 26.65 9.6 5.65 0 11.243-1.085 16.253-3.144l14.935 8.066c.282.15.584.225.904.225.452 0 .885-.15 1.243-.468.603-.505.81-1.347.528-2.077l-5.35-14.054C91.628 59.59 94 53.882 94 47.856c0-7.542-3.804-14.653-10.396-19.855L83.602 28z" fill="#2D2D2D"/>
        <path d="M1.71 66.485a1.81 1.81 0 0 0 .526 2.05c.357.316.789.465 1.24.465.3 0 .6-.075.882-.224l17.112-9.223c5.71 2.348 12.097 3.596 18.52 3.596C62.063 63.149 80 48.987 80 31.565 80 14.162 62.062 0 39.99 0 17.94 0 0 14.162 0 31.565c0 6.839 2.724 13.305 7.87 18.782L1.71 66.485zm39.614-18.987c-.338.335-.826.54-1.333.54a1.887 1.887 0 0 1-1.879-1.863c0-.484.207-.968.564-1.322.695-.69 1.953-.69 2.648 0 .357.354.564.838.564 1.322 0 .484-.207.969-.564 1.323zm-6.499-30.595c1.992-1.565 4.583-2.143 7.1-1.565 3.044.689 5.448 3.074 6.143 6.093.845 3.67-.807 7.341-4.095 9.13a3.996 3.996 0 0 0-2.104 3.54v1.528a1.864 1.864 0 0 1-1.878 1.863 1.876 1.876 0 0 1-1.878-1.863v-1.527a7.76 7.76 0 0 1 4.057-6.82c1.503-.82 2.78-2.684 2.235-5.031-.357-1.603-1.69-2.925-3.306-3.28-1.427-.335-2.817-.018-3.926.839-1.09.876-1.709 2.143-1.709 3.522a1.876 1.876 0 0 1-1.878 1.863 1.876 1.876 0 0 1-1.878-1.863 8.179 8.179 0 0 1 3.117-6.43z" fill="#589B46"/>
    </g>
</svg>
