<svg width="95" height="86" viewBox="0 0 95 86" xmlns="http://www.w3.org/2000/svg">
    <g fill="none" fill-rule="evenodd">
        <path d="M38 23c13.807 0 25 11.193 25 25S51.807 73 38 73 13 61.807 13 48s11.193-25 25-25z" fill="#589B46"/>
        <path d="M34.86 3.057c2.452 0 4.44 2.012 4.44 4.493 0 2.482-1.988 4.494-4.44 4.494-2.452 0-4.44-2.012-4.44-4.494 0-2.481 1.988-4.493 4.44-4.493z" fill="#2D2D2D"/>
        <path d="m94.18 16.155-2.904 8.322c-.806 2.285-1.612 4.733-2.418 7.017-.162.653-.484 1.306-.646 1.958.162.49.162.816 0 1.306-.483 2.937-1.45 5.874-3.225 8.159-1.29 1.795-3.548 3.59-5.805 3.916h-.161c-.484 21.704-18.062 39.164-39.51 39.164-21.77 0-39.509-17.95-39.509-39.98 0-17.786 11.772-33.615 28.544-38.51v.815c0 1.306.483 2.285 1.128 3.264C14.677 15.829 4.195 29.862 4.195 45.854c0 19.745 15.965 35.9 35.478 35.9 19.351 0 34.993-15.665 35.477-35.084H73.7c-.645-.163-1.29-.49-1.935-.816-2.258-1.468-4.032-3.753-5-6.364-.644-1.468-1.128-3.1-1.45-4.732-.162-.49 0-1.142.16-1.632-1.935-6.038-3.87-11.912-5.644-17.46-.967-3.1-.645-6.691.807-9.465 1.29-2.448 3.547-4.243 5.966-4.896.484-.163.807-.326 1.29-.49C68.7.49 69.345.164 70.151.164 71.12 0 71.925.326 72.57.98c.484.49.806 1.306.806 2.285 0 1.958-1.774 3.1-3.547 3.1h-.162a2.702 2.702 0 0 1-1.612-.49c-.323-.163-.484-.163-.645-.326-.645-.163-1.13.327-1.774.816-2.258 2.121-2.903 4.732-2.097 7.507 1.936 6.364 4.193 12.401 5.967 17.134 0 .163.161.49.161.652.645.49 1.13 1.143 1.29 1.959 0 .163.323 1.631.968 3.263l.323.653c1.128 2.121 2.418 3.264 4.192 3.427h.322c.968 0 4.516-.49 5.484-7.343.161-.98.806-1.795 1.612-2.285 1.13-3.1 2.42-6.364 3.548-9.628.323-.816.645-1.468.968-2.284 1.451-3.427 2.902-7.18 1.612-10.28-.967-2.285-2.096-3.59-3.225-3.59-.322 0-.806.162-1.129.326-.484.163-1.129.49-1.774.49-.483 0-.806-.164-1.29-.327-1.129-.653-1.774-1.469-1.935-2.448-.161-1.142.484-2.285 1.774-3.1.484-.327.968-.49 1.451-.49 1.13 0 2.258.653 3.064 1.142.162.163.323.163.484.327 1.452.816 3.064 1.631 4.515 2.937 2.258 1.632 3.226 4.406 3.064 7.506 0 1.469-.322 2.938-.806 4.243z" fill="#589B46"/>
        <g fill="#FFF">
            <path d="M37.16 56.806H25a7.455 7.455 0 0 1 1.196-3.424c.698-1.076 1.993-2.544 3.887-4.305 1.595-1.467 2.492-2.446 2.89-2.935.499-.685.698-1.37.698-2.054 0-.783-.2-1.37-.598-1.762-.399-.39-.997-.587-1.694-.587-.698 0-1.296.196-1.695.685-.398.392-.697 1.174-.697 2.153l-3.489-.294c.2-1.859.897-3.228 1.994-4.011C28.588 39.489 29.983 39 31.578 39c1.794 0 3.19.49 4.186 1.468.997.978 1.495 2.152 1.495 3.522 0 .782-.1 1.565-.399 2.25-.299.685-.797 1.467-1.395 2.25-.399.49-1.196 1.272-2.292 2.25-1.097.979-1.794 1.664-2.093 1.957-.3.294-.499.685-.698.978h6.777v3.131zM49.708 39v11.348H52v3.032h-2.292V57h-3.387v-3.717h-7.373V50.25L46.82 39h2.89zm-3.387 5.185-4.184 6.065h4.184v-6.065z"/>
        </g>
    </g>
</svg>
