<svg width="23" height="23" viewBox="0 0 23 23" xmlns="http://www.w3.org/2000/svg" xmlns:xlink="http://www.w3.org/1999/xlink">
    <defs>
        <path d="M.5 7.667h5a.5.5 0 0 1 .5.5V22.5a.5.5 0 0 1-.5.5h-5a.5.5 0 0 1-.5-.5V8.167a.5.5 0 0 1 .5-.5zM3 5.75c1.657 0 3-1.287 3-2.875S4.657 0 3 0 0 1.287 0 2.875 1.343 5.75 3 5.75zM18.962 23h3.461a.57.57 0 0 0 .577-.562v-9.436c0-4.235-2.458-6.29-5.896-6.29a4.927 4.927 0 0 0-3.658 1.426.482.482 0 0 1-.524.13.461.461 0 0 1-.307-.433.57.57 0 0 0-.577-.562H8.577A.57.57 0 0 0 8 7.835v14.603c0 .31.258.562.577.562h3.461a.57.57 0 0 0 .577-.562v-8.425c0-1.55 1.292-2.808 2.885-2.808 1.593 0 2.885 1.257 2.885 2.808v8.425c0 .31.258.562.577.562z" id="643l7pgnda"/>
    </defs>
    <use fill="#FFF" fill-rule="nonzero" xlink:href="#643l7pgnda"/>
</svg>
