<svg width="61" height="68" viewBox="0 0 61 68" xmlns="http://www.w3.org/2000/svg">
    <g fill="none" fill-rule="evenodd">
        <path d="M18.525 39.506c.977 1.52 1.954 2.822 2.93 4.233 1.086 1.628 2.28 3.148 3.474 4.667.76.977 1.41 1.845 2.17 2.714.218.217.326.325.435.542 0-.325.108-.76.108-1.085.434-3.148.76-5.86.76-6.186v-.109a3.25 3.25 0 0 1-.434-.868v-.109l-.109-.108c-.108-.109-.108-.326-.217-.434l-.108-.109v-.109l-.109-.108a2.045 2.045 0 0 1-.217-.868c0-.326.109-.543.217-.76l.543.108v-.108c0-.072.036-.145.108-.217 0-.109.109-.109.217-.217.217-.109.326-.109.435-.109h4.34c.11 0 .326 0 .435.109.109 0 .109.108.217.217 0 .108.109.108.109.217v.108l.108.218c.109.217.217.434.217.76 0 .325-.108.65-.217.868l-.108.108v.109l-.109.108c-.108.109-.108.326-.217.434l-.109.109v.108c-.217.217-.325.543-.434.869v.108c0 .434.326 3.04.76 6.187 0 .325.109.76.109 1.085.217-.217.325-.326.434-.543v-.108l.108-.109c.652-.868 1.303-1.628 1.954-2.496 1.194-1.52 2.28-3.04 3.473-4.667.651-1.085 1.411-2.062 2.17-3.148.326-.325.543-.76.76-1.085.19.054.387.109.587.163l1.214.325.587.163c.217 0 .543.109.76.217.054.027.108.048.163.065l.325.088.163.064c3.365 1.194 6.62 2.605 9.551 4.233.868.434 1.737 1.086 2.496 1.845a6.69 6.69 0 0 1 2.171 4.125v10.419c-.108 1.085-.325 1.954-.651 2.713 0 .109-.109.217-.109.326 0 .108 0 .217-.108.325a4.819 4.819 0 0 1-.868 1.194l-.109.109c-.108 0-.217.108-.326.217-.868.651-1.628.76-2.062.868H5.14c-.448-.008-4.006-.217-4.739-6.078v-9.55c0-.326.109-.543.109-.869.217-1.628 1.085-2.93 2.17-4.124.76-.76 1.52-1.303 2.497-1.845a61.661 61.661 0 0 1 10.202-4.45c1.085-.326 2.062-.651 3.147-.869zm30.281 9.117h-.108c-.977 0-1.845.869-1.845 1.845v2.497h-2.497c-.976 0-1.845.868-1.845 1.845l.007.145c.08.916.91 1.7 1.838 1.7h2.497v2.496c0 .977.868 1.845 1.845 1.845l.145-.006c.916-.08 1.7-.91 1.7-1.839v-2.496h2.496c.977 0 1.845-.76 1.954-1.845 0-.543-.217-.977-.543-1.303a1.797 1.797 0 0 0-1.302-.542H50.65v-2.497c0-.976-.868-1.845-1.845-1.845z" fill="#2D2D2D"/>
        <path d="M43.7 12.376h-1.733c.109.541.217 1.083.217 1.733 0 .65-.108 1.191-.217 1.733H43.7v-3.466zM18.092 15.842h11.392c-.108-.542-.217-1.083-.217-1.733 0-.65.109-1.192.217-1.733H18.092v3.466zM35.674 9.117a5.074 5.074 0 0 1 4.775 3.256 4.5 4.5 0 0 1 .326 1.736 4.5 4.5 0 0 1-.326 1.737c-.76 1.845-2.605 3.256-4.775 3.256a5.074 5.074 0 0 1-4.776-3.256 4.5 4.5 0 0 1-.325-1.737 4.5 4.5 0 0 1 .325-1.736c.76-1.845 2.605-3.256 4.776-3.256zm0 3.473c-.869 0-1.52.76-1.52 1.52 0 .868.76 1.519 1.52 1.519.868 0 1.52-.76 1.52-1.52 0-.868-.652-1.519-1.52-1.519z" fill="#589B46"/>
        <path d="M16.682 20.732c0 .217.108.434.108.651.217 1.954 1.194 3.365 2.605 4.125.072 0 .108.036.108.109 1.303 4.993 5.318 8.792 9.985 9.552.542.108 1.085.108 1.628.108 3.58 0 6.837-1.954 9.007-5.427.434-.651.76-1.411 1.194-2.28l.325-.977c.109-.434.218-.65.326-.868.217-.217.434-.434.76-.651l.434-.326c1.085-1.085 1.41-2.28 1.52-3.365 0-.217.108-.434.108-.651.108-.434.108-.869.108-1.303v-1.085c0-.434-.108-.977-.217-1.411h-3.039c-.108.108-.108.217-.217.325.435.217.869.326 1.086.326a.83.83 0 0 1 .217.543v1.085c0 .326-.109.76-.109 1.086 0 .217-.108.434-.108.76-.109.976-.326 1.52-.76 1.845-.109.108-.217.217-.434.325l-.109.109c-.108.109-.108.217-.108.326l-.651 1.302c-.651 1.628-1.411 3.257-2.605 4.56-1.953 2.496-4.666 3.69-7.597 3.256-1.302-.217-2.496-.652-3.58-1.411-1.954-.977-3.582-3.148-4.45-5.102-.109-.217-.76-2.063-1.086-2.714l-.108-.108c-.073 0-.109-.037-.109-.109-.976-.543-1.302-1.737-1.302-2.388 0-.217-.109-.434-.109-.76-.108-.326-.108-.76-.108-1.085v-.977l.108-.543h.869l.325-.109a.847.847 0 0 0 .434-.434c0-.072.036-.108.109-.108h-3.907c-.217.434-.217.868-.217 1.41v.11c-.543.325-.543.65-.543.976 0 .434.109.869.109 1.303zM35.781 7.597c2.496 0 4.667 1.41 5.752 3.581h2.17c0-.326.109-.651.109-.977.108-3.907-1.845-7.054-5.318-8.573-.434-.217-.76-.326-1.085-.434C35.13.326 32.96 0 30.681 0H29.27c-1.41.108-3.256.217-4.883.977-.217.108-.326.217-.543.217-.651.434-1.194.868-1.52 1.628h-.108a7.304 7.304 0 0 0-1.628 1.519c-.65.326-1.193.76-1.628 1.41-.542.869-.76 2.063-.868 3.365v2.062H30.03c1.085-2.062 3.255-3.581 5.751-3.581z" fill="#2D2D2D"/>
    </g>
</svg>
