<svg width="319" height="477" viewBox="0 0 319 477" xmlns="http://www.w3.org/2000/svg">
    <path d="M195.156 0c8.468 0 16.99.548 25.33 1.629a195.005 195.005 0 0 1 24.35 4.75 194.143 194.143 0 0 1 44.95 18.054 195.907 195.907 0 0 1 38.595 28.105 196.295 196.295 0 0 1 30.587 36.485l-.415-.023c6.384.315 12.81.946 19.102 1.876a195.071 195.071 0 0 1 18.517 3.666 194.427 194.427 0 0 1 17.844 5.368 194.735 194.735 0 0 1 17.081 6.98 195.485 195.485 0 0 1 31.516 18.442 196.666 196.666 0 0 1 27.39 23.818 196.448 196.448 0 0 1 22.55 28.48 195.03 195.03 0 0 1 16.994 32.426 194.43 194.43 0 0 1 6.189 17.469 194.51 194.51 0 0 1 4.531 18.187 195.653 195.653 0 0 1 2.785 18.815 198.256 198.256 0 0 1-.06 39.305 195.542 195.542 0 0 1-2.957 19.373 194.48 194.48 0 0 1-4.809 18.7 194.483 194.483 0 0 1-6.563 17.926 195.12 195.12 0 0 1-17.993 33.143 196.526 196.526 0 0 1-23.831 28.877 196.56 196.56 0 0 1-28.883 23.826 195.207 195.207 0 0 1-33.151 17.99 194.561 194.561 0 0 1-17.93 6.56 194.601 194.601 0 0 1-18.704 4.809 195.712 195.712 0 0 1-37.666 3.957l-1.666.007c-21.045 0-41.748-3.33-61.534-9.895a194.124 194.124 0 0 1-53.439-27.542 196.995 196.995 0 0 1-26.782-23.58 196.458 196.458 0 0 1-21.303-26.86l-.748-1.145-.898-.047c-18.8-1.047-37.258-4.779-54.881-11.098a194.361 194.361 0 0 1-49.069-26.035 196.723 196.723 0 0 1-33.043-30.516 195.766 195.766 0 0 1-25.284-37.358 194.013 194.013 0 0 1-16.167-42.842 195.034 195.034 0 0 1-4.24-23.052 197.828 197.828 0 0 1-.443-43.862 195.577 195.577 0 0 1 2.957-19.373 194.434 194.434 0 0 1 4.81-18.7 194.478 194.478 0 0 1 6.561-17.926A195.134 195.134 0 0 1 33.33 86.025 196.54 196.54 0 0 1 57.16 57.15a196.55 196.55 0 0 1 28.882-23.826 195.19 195.19 0 0 1 33.15-17.99 194.45 194.45 0 0 1 17.93-6.56 194.444 194.444 0 0 1 18.703-4.809 195.654 195.654 0 0 1 19.377-2.957A198.322 198.322 0 0 1 195.156 0zm154.13 88.834c-107.61 0-195.156 87.53-195.156 195.118 0 37.426 10.614 73.74 30.706 105.1l.576.894 1.52.068c2.582.1 5.189.152 7.774.152 107.612 0 195.16-87.53 195.16-195.118 0-37.783-10.815-74.433-31.278-105.995l.412.019c-3.212-.158-6.48-.238-9.715-.238z" fill="#72B360" fill-rule="evenodd" opacity=".391"/>
</svg>
