<svg width="49" height="51" viewBox="0 0 49 51" xmlns="http://www.w3.org/2000/svg">
    <g transform="translate(0 .016)" fill="none" fill-rule="evenodd">
        <path d="M40.804 0c-3.985 0-7.2 3.19-7.2 7.143 0 1.524.48 2.953 1.391 4.19l4.657 6.286c.288.38.72.57 1.152.57.48 0 .864-.237 1.152-.57l4.656-6.285a6.981 6.981 0 0 0 1.392-4.191c0-3.952-3.216-7.143-7.2-7.143zm0 2.857c2.4 0 4.32 1.905 4.32 4.286 0 .905-.288 1.761-.816 2.476l-3.504 4.714-3.505-4.714a4.142 4.142 0 0 1-.816-2.476c0-2.381 1.92-4.286 4.32-4.286zM12 19.047C5.377 19.047 0 24.381 0 30.953c0 2.524.768 4.952 2.256 6.952.048.095.144.143.192.238l8.4 11.286c.289.333.673.571 1.153.571s.864-.238 1.152-.571l8.4-11.286.144-.19.049-.048a11.69 11.69 0 0 0 2.256-6.952c0-6.572-5.377-11.906-12.002-11.906h.001zm26.242.337c-.462-.02-.931.181-1.231.568l-.864 1.144a1.39 1.39 0 0 0 .288 2c.24.19.575.285.863.285.432 0 .865-.19 1.153-.572l.864-1.142c.48-.62.336-1.524-.288-2a1.388 1.388 0 0 0-.785-.283zM12.12 22c5.04 0 9.12 4.048 9.12 9.048 0 1.904-.576 3.761-1.728 5.285v.047l-7.392 9.906-7.249-9.762c-.048-.048-.096-.096-.144-.19C3.576 34.808 3 32.951 3 31.047c0-5 4.08-9.048 9.12-9.048zm21.8 3.098c-.461-.02-.93.182-1.23.568l-.864 1.144c-.48.619-.336 1.523.288 2 .24.19.575.285.864.285.432 0 .864-.19 1.152-.571l.864-1.143c.48-.62.337-1.524-.287-2a1.388 1.388 0 0 0-.786-.283zm-21.92 1.092a4.822 4.822 0 0 0-3.394 1.395A4.744 4.744 0 0 0 7.2 30.952c0 1.263.506 2.474 1.406 3.367A4.822 4.822 0 0 0 12 35.714a4.822 4.822 0 0 0 3.395-1.395 4.744 4.744 0 0 0 1.406-3.367 4.745 4.745 0 0 0-1.406-3.367 4.822 4.822 0 0 0-3.395-1.395zm20.324 4.542a1.418 1.418 0 0 0-1.026.363c-.624.477-.672 1.381-.096 2l.96 1.047c.288.286.672.476 1.056.476.336 0 .72-.142.96-.38a1.417 1.417 0 0 0 .097-2l-.96-1.048a1.441 1.441 0 0 0-.99-.458zm4.849 5.238a1.416 1.416 0 0 0-1.026.363 1.416 1.416 0 0 0-.096 2l.96 1.047c.288.286.672.476 1.056.476.336 0 .72-.142.96-.38a1.417 1.417 0 0 0 .096-2l-.96-1.048a1.441 1.441 0 0 0-.99-.458zm4.896 5.238a1.416 1.416 0 0 0-1.026.364 1.416 1.416 0 0 0-.095 2l.96 1.046c.288.286.671.476 1.055.476.336 0 .72-.142.96-.38a1.417 1.417 0 0 0 .096-2l-.96-1.048a1.441 1.441 0 0 0-.99-.458zm4.897 5.238a1.418 1.418 0 0 0-1.027.364c-.48.428-.576 1.142-.287 1.713v.048c0 .81.624 1.429 1.44 1.429h.48c.576 0 1.104-.334 1.296-.858.24-.524.144-1.142-.24-1.523l-.672-.715a1.441 1.441 0 0 0-.99-.458zm-28.725.697c-.816 0-1.44.619-1.44 1.428 0 .81.624 1.429 1.44 1.429h1.44c.816 0 1.44-.62 1.44-1.429 0-.81-.624-1.428-1.44-1.428h-1.44zm7.2 0c-.815 0-1.44.619-1.44 1.428 0 .81.625 1.429 1.44 1.429h1.441c.816 0 1.44-.62 1.44-1.429 0-.81-.624-1.428-1.44-1.428h-1.44zm7.201 0c-.816 0-1.44.619-1.44 1.428 0 .81.624 1.429 1.44 1.429h1.44c.817 0 1.44-.62 1.44-1.429 0-.81-.623-1.428-1.44-1.428h-1.44zm7.201 0c-.816 0-1.44.619-1.44 1.428 0 .81.624 1.429 1.44 1.429h1.44c.816 0 1.44-.62 1.44-1.429 0-.81-.624-1.428-1.44-1.428h-1.44z" fill="#589B46" fill-rule="nonzero"/>
        <rect fill="#2D2D2D" x="7" y="26" width="11" height="11" rx="5.5"/>
    </g>
</svg>
