<svg width="78" height="75" viewBox="0 0 78 75" xmlns="http://www.w3.org/2000/svg">
    <g fill-rule="nonzero" fill="none">
        <path d="M34 23.796c0-.994-.823-1.796-1.843-1.796h-4.314c-1.02 0-1.843.802-1.843 1.796v6.408c0 .994.823 1.796 1.843 1.796h4.314c1.02 0 1.843-.802 1.843-1.796v-6.408zm-1.856 6.467-4.375-.06.062-6.467h4.313c.037 0 .062.024.062.06l-.062 6.467zM45 30.204v-6.408c0-.994-.823-1.796-1.843-1.796h-4.314c-1.02 0-1.843.802-1.843 1.796v6.408c0 .994.823 1.796 1.843 1.796h4.314c1.02 0 1.843-.803 1.843-1.796zm-1.844.06-4.375-.06.062-6.468h4.313c.037 0 .062.024.062.06l-.062 6.467zM48.843 22c-1.02 0-1.843.802-1.843 1.796v6.408c0 .994.823 1.796 1.843 1.796h4.314c1.02 0 1.843-.802 1.843-1.796v-6.408c0-.994-.823-1.796-1.843-1.796h-4.314zm4.314 8.263-4.375-.06.061-6.467h4.314c.036 0 .061.024.061.06l-.061 6.467zM32.157 37h-4.314c-1.02 0-1.843.802-1.843 1.796v6.408c0 .994.823 1.796 1.843 1.796h4.314c1.02 0 1.843-.802 1.843-1.796v-6.408c.012-.994-.823-1.796-1.843-1.796zm0 8.251-4.375-.06.061-6.466h4.314c.036 0 .061.023.061.06l-.061 6.466zM43.11 38.749c.487 0 .89-.395.89-.875a.888.888 0 0 0-.89-.874h-4.28c-1.013 0-1.83.802-1.83 1.796v6.408c0 .994.817 1.796 1.83 1.796h.767c.488 0 .89-.395.89-.874a.888.888 0 0 0-.89-.875l-.829-.06.061-6.467h4.28v.025z" fill="#589B46"/>
        <path d="M58.189 33.6c-9.282 0-16.837 7.588-16.837 16.911 0 6.697 8.26 16.888 13.516 22.705h-6.764v-4.962a.895.895 0 0 0-.888-.892.895.895 0 0 0-.889.892v4.962H34.454l.025-20.31h4.1a.895.895 0 0 0 .887-.892.895.895 0 0 0-.888-.892h-4.1c-.985 0-1.788.807-1.788 1.796v20.285H22.4v-4.081h5.122a.895.895 0 0 0 .888-.893.895.895 0 0 0-.888-.892h-5.122v-4.472h5.122a.895.895 0 0 0 .888-.893.895.895 0 0 0-.888-.892h-5.122v-4.472h5.122a.895.895 0 0 0 .888-.892.895.895 0 0 0-.888-.893h-5.122V18.277h36.008v12.378c0 .49.402.892.889.892a.895.895 0 0 0 .888-.892V18.277h1.726a2.053 2.053 0 0 0 2.044-2.053V11.52a2.045 2.045 0 0 0-2.044-2.053h-6.532V5.678c0-1.026-.766-1.918-1.776-2.052L27.788.02a2.057 2.057 0 0 0-1.642.489c-.45.39-.706.965-.706 1.563v7.369h-6.533a2.053 2.053 0 0 0-2.043 2.053v4.704c0 1.137.912 2.053 2.043 2.053h1.728v13.906L4.528 42.533a3.32 3.32 0 0 0-1.52 2.798v27.885h-1.12a.895.895 0 0 0-.888.892c0 .489.402.892.888.892h70.144a.895.895 0 0 0 .888-.892.895.895 0 0 0-.888-.892H61.497C66.752 67.399 75 57.196 75 50.51 75 41.188 67.457 33.6 58.188 33.6zM27.205 2.072c0-.122.06-.196.097-.22a.309.309 0 0 1 .231-.073l25.802 3.58a.3.3 0 0 1 .255.293V9.44H27.192V2.073h.013zm-8.297 14.432a.276.276 0 0 1-.28-.282V11.52c0-.16.122-.282.28-.282H61.9c.158 0 .28.122.28.282v4.704a.276.276 0 0 1-.28.282H18.908zM4.772 49.437h8.333c.061 0 .11.049.11.11v4.924c0 .062-.05.11-.11.11H4.772v-5.144zm0 12.782h8.333c.061 0 .11.048.11.11v4.924c0 .061-.05.11-.11.11H4.772V62.22zm0 6.916h8.333a1.879 1.879 0 0 0 1.874-1.882v-4.925c0-1.038-.84-1.881-1.874-1.881H4.772v-4.082h8.333a1.879 1.879 0 0 0 1.874-1.882V49.56c0-1.039-.84-1.882-1.874-1.882H4.772v-2.321c0-.526.268-1.014.706-1.308l15.157-9.739v38.92H4.773v-4.094zm53.417 4.081a2.07 2.07 0 0 1-1.546-.684c-4.063-4.448-13.515-15.495-13.515-22.02 0-8.346 6.764-15.128 15.06-15.128s15.036 6.794 15.036 15.128c0 6.525-9.44 17.571-13.491 22.02-.401.44-.95.684-1.545.684z" fill="#589B46"/>
        <path d="M66.934 56.718A10.368 10.368 0 0 0 69 50.481C69 44.702 64.285 40 58.481 40 52.702 40 48 44.702 48 50.481c0 2.265.718 4.43 2.054 6.225A10.468 10.468 0 0 0 58.481 61a10.52 10.52 0 0 0 8.453-4.282zm-8.453 2.488c-2.524 0-4.9-1.127-6.534-3.02a8.644 8.644 0 0 1 6.534-2.995c2.55 0 4.95 1.114 6.572 2.995a8.6 8.6 0 0 1-6.572 3.02zm-2.35-10.197c0-1.3 1.064-2.364 2.363-2.364a2.374 2.374 0 0 1 2.376 2.364c0 .507-.161.99-.47 1.41-.891 1.213-2.908 1.238-3.812 0a2.432 2.432 0 0 1-.458-1.41zm5.37 2.834c.111-.124.235-.223.334-.36a4.125 4.125 0 0 0 .817-2.474 4.17 4.17 0 0 0-4.17-4.158 4.167 4.167 0 0 0-4.158 4.158c0 .903.285 1.757.817 2.463.099.136.222.247.333.371a10.421 10.421 0 0 0-4.603 2.821 8.602 8.602 0 0 1-1.088-4.182c0-4.79 3.898-8.687 8.686-8.687 4.815 0 8.724 3.898 8.724 8.687a8.604 8.604 0 0 1-1.088 4.182 10.282 10.282 0 0 0-4.604-2.821z" fill="#2D2D2D"/>
        <path d="M15.523 28.092c0-.498-.398-.909-.88-.909H2.189c.772-1.344 2.158-2.202 3.641-2.214.23.062.482.012.687-.112a.87.87 0 0 0 .386-.598c.458-2.588 2.64-4.454 5.208-4.454 1.7 0 3.315.858 4.304 2.29a.854.854 0 0 0 1.218.21.918.918 0 0 0 .205-1.256C16.512 19.145 14.365 18 12.11 18c-3.171 0-5.908 2.153-6.764 5.226-2.495.25-4.642 2.091-5.317 4.655a.947.947 0 0 0 .145.783c.157.224.423.336.7.336h13.768c.482 0 .88-.41.88-.908zM77.968 28.844c-.643-2.288-2.659-3.949-5.015-4.195-.844-2.73-3.44-4.649-6.44-4.649a6.68 6.68 0 0 0-3.011.701.887.887 0 0 0-.403 1.206c.227.442.768.615 1.235.393a4.98 4.98 0 0 1 2.192-.504c2.37 0 4.385 1.635 4.814 3.899.05.245.139.467.353.602.214.136.416.185.668.123 1.373 0 2.62.689 3.351 1.784H64.977a.914.914 0 0 0-.92.898c0 .492.415.898.92.898h12.11c.29 0 .554-.136.73-.357a.955.955 0 0 0 .151-.8z" fill="#589B46"/>
    </g>
</svg>
