<svg width="48" height="49" viewBox="0 0 48 49" xmlns="http://www.w3.org/2000/svg">
    <g fill-rule="nonzero" fill="none">
        <path d="M23.08 35.158c-.209.185-.47.278-.737.259a.854.854 0 0 1-.596-.292l-1.99-2.3h-.001l-.001-.001c-1.284-1.472-3.568-1.64-5.092-.378-2 1.657-4.074 3.285-6.166 4.836-1.592 1.182-1.975 3.441-.855 5.04 0 .002 0 .003.002.004h.001l.001.003 2.086 2.94.559.788C11.177 47.314 12.606 48 14.128 48a5.3 5.3 0 0 0 2.084-.434c14.573-6.136 24.219-15.78 30.354-30.35.938-2.199.318-4.635-1.506-5.92l-.79-.561-2.943-2.088-.001-.002c-1.598-1.124-3.858-.74-5.04.851a145.977 145.977 0 0 1-4.84 6.168c-1.262 1.526-1.094 3.81.377 5.095a.01.01 0 0 0 .004.003l2.297 1.988c.172.149.276.36.291.596.018.267-.073.528-.258.738-4.223 4.784-6.293 6.853-11.077 11.074zm-13.97 2.95a147.662 147.662 0 0 0 6.21-4.87 2.661 2.661 0 0 1 3.272-.097c-3.321 2.852-6.801 5.58-10.361 8.127-.461-1.087-.121-2.416.88-3.16zM32.24 16.32c1.674-2.02 3.314-4.11 4.872-6.212.745-1 2.074-1.34 3.16-.878a149.583 149.583 0 0 1-8.13 10.364c-.707-.945-.695-2.315.098-3.274zm2.558 5.651-1.916-1.657c2.9-3.376 5.677-6.914 8.264-10.534l2.53 1.793.79.562c1.425 1.005 1.9 2.928 1.153 4.678C39.592 31.121 30.122 40.59 15.81 46.616c-1.748.746-3.671.272-4.677-1.155l-.56-.789-1.794-2.529c3.62-2.586 7.157-5.36 10.532-8.26l1.657 1.914c.33.383.794.612 1.306.647a2.01 2.01 0 0 0 1.49-.513c4.822-4.256 6.91-6.343 11.167-11.165a2.03 2.03 0 0 0 .514-1.49 1.88 1.88 0 0 0-.646-1.305z" stroke="#2D2D2D" fill="#2D2D2D"/>
        <path d="M13.5 26C20.393 26 26 20.393 26 13.5S20.393 1 13.5 1 1 6.607 1 13.5 6.608 26 13.5 26zm0-23.959c6.318 0 11.459 5.14 11.459 11.459S19.819 24.959 13.5 24.959c-6.318 0-11.459-5.14-11.459-11.459S7.181 2.041 13.5 2.041z" stroke="#589B46" fill="#589B46"/>
        <path d="M13 7.124c1.6 0 2.9 1.33 2.9 2.963 0 1.316-.842 2.061-1.734 2.85-.867.767-1.85 1.638-2.08 3.208-.042.26-.067.535-.077.855h1.097c.006-.236.021-.465.07-.713.233-1.233 1.035-1.952 1.882-2.714.999-.897 1.942-1.744 1.942-3.486C17 7.833 15.205 6 12.999 6 10.837 6 9.07 7.76 9 9.95h1.102c.072-1.57 1.344-2.826 2.898-2.826zM12 20h2v2h-2z" stroke="#589B46" fill="#589B46"/>
    </g>
</svg>
