<svg width="47" height="47" viewBox="0 0 47 47" xmlns="http://www.w3.org/2000/svg">
    <g fill-rule="nonzero" fill="none">
        <path d="M43.025 36.44a2.348 2.348 0 0 1-.308-1.46l.278-2.18a5.428 5.428 0 0 0-.436-2.88l-3.004-6.648a2.31 2.31 0 0 0-.833-.983V2.336C38.722 1.05 37.652 0 36.343 0H9.38C8.071 0 7 1.051 7 2.336v27.252h1.586V2.336c0-.428.357-.779.793-.779h5.552v.779c0 1.285 1.07 2.336 2.379 2.336h11.103c1.308 0 2.379-1.051 2.379-2.336v-.779h5.551c.436 0 .793.35.793.779v19.563a2.405 2.405 0 0 0-1.457.69c-.823-1.002-2.32-1.148-3.34-.34-.07.059-.14.117-.199.175a2.396 2.396 0 0 0-3.34-.34c-.05.039-.1.078-.14.117l-1.665-3.68c-.535-1.177-1.933-1.712-3.142-1.187-1.2.526-1.745 1.898-1.21 3.085l4.144 9.169-.843-.487c-1.735-1.002-3.965-.438-4.986 1.265-.1.166-.189.35-.258.536a.821.821 0 0 0-.05.263c-.049 0-.099-.01-.158-.01h-.793v-2.336h-1.586v2.336h-6.345v-2.336h-1.586v2.336H9.39c-1.308 0-2.38 1.05-2.38 2.336v10.9c0 1.285 1.072 2.337 2.38 2.337h23.792V45.17H22.722c.09-.253.14-.516.14-.778V33.48c0-.088-.01-.185-.02-.273l4.738 3.572a18.583 18.583 0 0 0 2.756 1.723l2.042 1.042c.515.262.922.71 1.13 1.245L35.897 47l1.487-.555-2.39-6.21a3.885 3.885 0 0 0-1.883-2.073l-2.042-1.041a16.44 16.44 0 0 1-2.518-1.577l-6.106-4.594a2.078 2.078 0 0 1 2.686-.516l2.756 1.597.536 1.197 1.447-.633-5.79-12.809a.775.775 0 0 1 .407-1.031.798.798 0 0 1 1.05.399l5.79 12.809 1.448-.633-3.212-7.115a.775.775 0 0 1 .406-1.032.786.786 0 0 1 1.04.4l3.213 7.114 1.447-.632-2.567-5.694a.775.775 0 0 1 .406-1.032.786.786 0 0 1 1.04.4l2.568 5.693 1.448-.633-1.933-4.273a.761.761 0 0 1 .406-1.021.79.79 0 0 1 1.041.399l3.004 6.647c.287.643.396 1.353.307 2.054l-.277 2.18c-.11.847.069 1.703.505 2.443l4.015 6.764L47 43.204l-3.975-6.764zM29.205 2.336a.788.788 0 0 1-.793.779H17.31a.788.788 0 0 1-.793-.779v-.779h12.689v.779zM9.38 32.703h11.103c.436 0 .793.35.793.779v1.557H8.586v-1.557c0-.429.357-.78.793-.78zm0 12.458a.788.788 0 0 1-.793-.779v-7.786h12.689v7.786a.788.788 0 0 1-.793.78H9.379z" fill="#FFF"/>
        <path d="M19.138 14.122 18 15.287l2.417 2.473c.312.32.826.32 1.138 0L28 11.165 26.862 10l-5.881 6.019-1.843-1.897z" fill="#F9FCF8"/>
        <path fill="#FFF" d="M11 38h2v2h-2zM14 38h2v2h-2zM3.75 20.158V8h-1.5v12.158L.656 21.816A2.387 2.387 0 0 0 0 23.473V41.54c0 .429.338.78.75.78h1.5v3.12H.75V47h4.5v-1.56h-1.5v-3.12h1.5c.412 0 .75-.351.75-.78V23.464c0-.624-.234-1.22-.656-1.658L3.75 20.158zM4.5 40.76h-3v-2.34H3v-1.56H1.5V35.3H3v-1.56H1.5v-1.56H3v-1.56H1.5v-1.56H3V27.5H1.5v-1.56H3v-1.56H1.5v-.916c0-.205.075-.41.216-.556L3 21.582l1.284 1.336a.79.79 0 0 1 .216.555V40.76z"/>
        <path d="M29.298 19.632a8.527 8.527 0 0 0-1.7-11.926C23.842 4.88 18.522 5.645 15.702 9.41A8.527 8.527 0 0 0 21.65 23l.155-1.54c-3.824-.386-6.605-3.803-6.219-7.627.387-3.833 3.795-6.62 7.61-6.233 3.823.387 6.604 3.804 6.218 7.627a7.049 7.049 0 0 1-1.352 3.485l1.236.92z" fill="#F9FCF8"/>
        <path fill="#FFF" d="M17 38h2v2h-2zM11 42h2v2h-2zM14 42h2v2h-2zM17 42h2v2h-2z"/>
    </g>
</svg>
