<svg width="60" height="62" viewBox="0 0 60 62" xmlns="http://www.w3.org/2000/svg">
    <g fill-rule="nonzero" fill="none">
        <path d="M.599 58.958H.545a.6.6 0 0 1-.542-.653c0-.186.108-.828.229-1.721.367-2.657 1.054-7.61 1.06-9.27 0-2.478 1.499-7.796 3.01-9.8a13.42 13.42 0 0 1 6.42-4.197c.602-.131 1.674-.311 2.775-.504 1.403-.245 2.86-.498 3.613-.671l.657-.144.819-.138a.604.604 0 0 1 .735.6v.72c-.055 6.037 3.733 10.949 8.376 10.949h.138a.603.603 0 0 1 .488.252c.333.57.952.912 1.613.893.481-.06.89-.374 1.072-.821a.602.602 0 0 1 .524-.348c4.547-.186 8.111-4.996 8.111-10.938v-.72a.598.598 0 0 1 .7-.587l.818.18.644.138c.759.174 2.21.426 3.613.671 1.108.192 2.156.372 2.788.504a13.43 13.43 0 0 1 6.42 4.198c1.517 2.02 3.01 7.321 3.01 9.798 0 1.63.717 6.512 1.102 9.133.157 1.085.241 1.667.26 1.865a.602.602 0 0 1-.602.654L6.7 58.999a.6.6 0 1 1 0-1.2h51.022a72.468 72.468 0 0 0-.168-1.145c-.416-2.836-1.109-7.585-1.114-9.3 0-2.23-1.446-7.31-2.776-9.085a12.148 12.148 0 0 0-5.697-3.718c-.603-.125-1.65-.305-2.752-.498-1.415-.245-2.884-.497-3.673-.683l-.602-.132h-.079c0 6.446-3.89 11.682-8.918 12.113a2.518 2.518 0 0 1-1.897 1.2 2.915 2.915 0 0 1-2.517-1.14c-5.25-.192-9.466-5.6-9.466-12.239h-.066l-.632.138c-.795.18-2.264.438-3.685.684-1.096.192-2.126.372-2.74.498a12.144 12.144 0 0 0-5.697 3.717c-1.337 1.8-2.77 6.855-2.776 9.085 0 1.745-.698 6.746-1.072 9.433-.12.87-.205 1.487-.223 1.667a.601.601 0 0 1-.572.563H.6zm13.88-5.906h-2.957a.6.6 0 0 1-.602-.6v-2.848H8.065a.6.6 0 0 1-.602-.6V46.06a.6.6 0 0 1 .602-.6h2.855v-2.842a.6.6 0 0 1 .602-.6h2.956a.604.604 0 0 1 .603.6v2.842h2.86a.604.604 0 0 1 .602.6v2.944a.599.599 0 0 1-.602.6h-2.86v2.842a.6.6 0 0 1-.603.606zm-2.355-1.2h1.752v-2.848a.6.6 0 0 1 .602-.6h2.86V46.66h-2.86a.6.6 0 0 1-.602-.6v-2.842h-1.752v2.842a.599.599 0 0 1-.602.6H8.668v1.744h2.854a.604.604 0 0 1 .602.6v2.848zm38.912-1.547H40.944a.6.6 0 0 1-.602-.6v-2.938c0-.33.269-.6.602-.6h10.092a.604.604 0 0 1 .602.6V49.7a.599.599 0 0 1-.602.6v.005zm-9.49-1.205h8.888v-1.733h-8.888V49.1zm-13.32-6.248h-.21c-4.33 0-7.829-4.528-7.829-10.093 0-.335 0-.66.042-.983a.6.6 0 0 1 .386-.516 4.16 4.16 0 0 0 1.631-.995c1.012-1.145 1.385-2.039 1.331-3.22-.301-.378-1.078-1.35-1.343-1.74a19.795 19.795 0 0 1-1.433-2.44l-.963-2.674c-1.054-1.08-2.012-5.073-2.023-6.597a1.375 1.375 0 0 1 .391-1.151c.153-.113.334-.182.524-.198a21.583 21.583 0 0 1-.296-2.464 9.5 9.5 0 0 1 2.512-6.596C22.909 1.074 25.763.006 29.448 0L29.502 0C39.74.042 40.51 7.466 40.51 9.744a11.43 11.43 0 0 1-.199 2.525c.153.03.298.093.422.186.306.303.453.731.397 1.157 0 1.541-.97 5.535-2.023 6.596l-.951 2.639a19.953 19.953 0 0 1-1.427 2.465c-.26.39-1.042 1.36-1.343 1.739-.055 1.2.319 2.075 1.33 3.22.46.451 1.019.79 1.632.99a.6.6 0 0 1 .386.509c0 .324.042.654.042.99 0 5.51-3.36 9.942-7.653 10.08a.602.602 0 0 1-.356-.102 2.203 2.203 0 0 0-2.198 0 .608.608 0 0 1-.343.114zM21.38 32.238v.528c0 4.905 3.011 8.893 6.624 8.893h.036a3.476 3.476 0 0 1 3.204 0c3.498-.24 6.31-4.198 6.31-8.87v-.528a4.81 4.81 0 0 1-1.74-1.199 5.42 5.42 0 0 1-1.62-4.287.6.6 0 0 1 .127-.312c.307-.378 1.156-1.44 1.397-1.799.487-.719.924-1.47 1.307-2.249l.987-2.74a.598.598 0 0 1 .211-.282c.602-.444 1.807-4.636 1.704-5.895-.08.04-.154.089-.223.144a.604.604 0 0 1-.74.026.598.598 0 0 1-.205-.709c.041-.102.084-.198.126-.294.21-.468.41-.911.41-2.927 0-2.566-.958-8.539-9.822-8.55h-.06c-3.294 0-5.86.947-7.581 2.8a8.379 8.379 0 0 0-2.198 5.685c.027 1.106.207 2.204.536 3.262a.598.598 0 0 1-.205.71.604.604 0 0 1-.74-.026c-.068-.054-.14-.1-.218-.138-.078 1.253 1.096 5.45 1.705 5.894.097.071.17.169.21.282l1.006 2.777c.377.77.806 1.516 1.283 2.23.24.36 1.09 1.421 1.397 1.799a.596.596 0 0 1 .132.33 5.428 5.428 0 0 1-1.62 4.287 4.826 4.826 0 0 1-1.74 1.158z" fill="#589B46"/>
        <path d="M22.808 13c-1.1.004-2.198-.068-3.288-.216a.607.607 0 0 1-.513-.688.61.61 0 0 1 .695-.51c.096 0 9.312 1.348 12.135-3.215a.61.61 0 0 1 .864-.289.598.598 0 0 1 .17.887C30.784 12.371 26.04 13 22.807 13z" fill="#589B46"/>
        <path d="M37.677 12c-4.634 0-6.529-2.17-6.621-2.277-.124-.223-.037-.489.206-.63a.717.717 0 0 1 .788.053c.092.107 2.332 2.594 8.201 1.618.34-.054.671.13.737.411.067.282-.156.555-.496.61-.928.148-1.87.22-2.815.215zM28.452 30c-1.493-.015-2.952-.528-4.204-1.477-.272-.235-.329-.682-.128-1 .2-.317.583-.384.854-.15 1.055.834 2.309 1.257 3.582 1.209 1.272-.047 2.5-.562 3.508-1.472.27-.199.625-.122.815.178a.802.802 0 0 1-.088.964c-1.243 1.124-2.768 1.738-4.339 1.748z" fill="#589B46"/>
        <path d="M59.395 62H.605C.27 62 0 61.776 0 61.5s.27-.5.605-.5h58.79c.335 0 .605.224.605.5s-.27.5-.605.5z" fill="#2D2D2D"/>
    </g>
</svg>
