<svg width="497" height="435" viewBox="0 0 497 435" xmlns="http://www.w3.org/2000/svg" xmlns:xlink="http://www.w3.org/1999/xlink">
    <defs>
        <path id="79s9l6m5fa" d="M0 .47h2.004v1.032H0z"/>
        <path id="nws6y6rwzc" d="M.276 0h1.452v1.973H.276z"/>
        <path id="7hod9i0vke" d="M.034 0H1.97v1.973H.034z"/>
        <path id="3jlwqoii4g" d="M0 .471h2.004v1.03H0z"/>
        <path id="nn3hs25idi" d="M.479 0h1.046v1.973H.48z"/>
    </defs>
    <g fill="none" fill-rule="evenodd" opacity=".359">
        <path d="M232.468 255.53c.024 0 .042-.02.042-.043 0-.026-.018-.046-.042-.046a.044.044 0 0 0-.046.046c0 .024.018.043.046.043M195.39 228.988c.074 0 .136-.06.136-.132a.137.137 0 0 0-.136-.135.133.133 0 0 0 0 .267M370.743 243.694c.024 0 .046-.022.046-.043a.046.046 0 0 0-.046-.046.046.046 0 0 0-.046.046c0 .021.022.043.046.043M361.727 250.599c.024 0 .042-.022.042-.046a.042.042 0 0 0-.042-.043c-.028 0-.046.02-.046.043 0 .024.018.046.046.046M351.707 257.503c.024 0 .042-.02.042-.042 0-.027-.018-.047-.042-.047-.028 0-.046.02-.046.047 0 .022.018.042.046.042M341.683 263.422a.045.045 0 0 0 .046-.043c0-.028-.018-.048-.046-.048-.024 0-.042.02-.042.048 0 .021.018.043.042.043M331.665 268.486a.178.178 0 1 0 0-.355.18.18 0 0 0-.18.177.18.18 0 0 0 .18.178M320.643 272.388a.137.137 0 0 0 .136-.134.137.137 0 0 0-.136-.134.137.137 0 0 0-.137.134c0 .073.062.134.137.134M309.622 275.346c.075 0 .133-.06.133-.134a.132.132 0 0 0-.133-.132.135.135 0 0 0-.136.132c0 .075.062.134.136.134M298.598 277.319c.075 0 .137-.06.137-.133a.137.137 0 0 0-.137-.134.137.137 0 0 0-.136.134c0 .073.062.133.136.133M286.576 278.305c.074 0 .133-.06.133-.13a.134.134 0 0 0-.133-.136.137.137 0 0 0-.136.136c0 .07.062.13.136.13M274.548 278.305c.074 0 .136-.06.136-.13a.137.137 0 0 0-.136-.136.134.134 0 0 0-.132.136c0 .07.058.13.132.13M263.526 277.319c.074 0 .136-.06.136-.133a.137.137 0 0 0-.136-.134.133.133 0 0 0 0 .267M251.502 275.346c.074 0 .136-.06.136-.134a.135.135 0 0 0-.136-.132.132.132 0 0 0-.132.132c0 .075.058.134.132.134M240.48 272.388a.137.137 0 0 0 .136-.134.137.137 0 0 0-.136-.134.133.133 0 0 0-.132.134c0 .073.058.134.132.134M229.46 268.574a.27.27 0 0 0 .27-.267.268.268 0 0 0-.27-.264.268.268 0 0 0-.27.264.27.27 0 0 0 .27.267M219.442 263.554c.098 0 .176-.08.176-.177 0-.101-.078-.178-.176-.178a.176.176 0 0 0-.18.178c0 .096.078.177.18.177M209.42 257.724a.265.265 0 1 0 0-.53.27.27 0 0 0-.27.267c0 .145.121.263.27.263M200.4 250.688a.134.134 0 1 0 0-.268.133.133 0 0 0-.133.134c0 .073.058.134.133.134M191.384 243.96a.314.314 0 0 0 .316-.31.314.314 0 0 0-.316-.31.312.312 0 0 0-.317.31c0 .171.14.31.317.31M183.365 235.082a.312.312 0 0 0 .317-.31c0-.17-.14-.309-.317-.309a.311.311 0 0 0-.312.31c0 .171.14.31.312.31M176.351 226.027c.079 0 .137-.057.137-.13a.131.131 0 0 0-.137-.133.13.13 0 0 0-.132.133c0 .073.058.13.132.13M169.341 217.327a.311.311 0 0 0 .313-.31.31.31 0 0 0-.313-.307.31.31 0 0 0-.316.308c0 .171.14.31.316.31M164.327 206.302a.137.137 0 0 0 .137-.134.135.135 0 0 0-.137-.132.133.133 0 0 0 0 .266M159.323 196.572a.266.266 0 1 0 0-.533.27.27 0 0 0-.274.266.27.27 0 0 0 .274.267M156.315 185.588a.13.13 0 0 0 .133-.132.132.132 0 0 0-.133-.133.135.135 0 0 0-.136.133c0 .075.062.132.136.132M153.31 173.664c.023 0 .041-.024.041-.045a.042.042 0 0 0-.042-.044c-.028 0-.046.02-.046.044 0 .021.018.045.046.045M159.321 106.594c.024 0 .042-.022.042-.044 0-.025-.018-.047-.042-.047-.028 0-.046.022-.046.047 0 .022.018.044.046.044M422.847 150.978c.028 0 .042-.02.042-.043 0-.026-.014-.046-.042-.046-.024 0-.042.02-.042.046 0 .023.018.043.042.043M422.85 162.814c.023 0 .041-.02.041-.045a.042.042 0 0 0-.042-.044c-.024 0-.046.02-.046.044 0 .025.022.045.046.045M420.841 173.664a.045.045 0 0 0 .046-.044.044.044 0 0 0-.046-.045c-.024 0-.042.02-.042.045 0 .022.018.044.042.044M418.837 185.5c.028 0 .046-.02.046-.043a.044.044 0 0 0-.046-.046c-.024 0-.042.02-.042.046 0 .023.018.043.042.043M415.831 196.35a.045.045 0 0 0 .046-.045.045.045 0 0 0-.046-.045c-.024 0-.042.022-.042.045 0 .024.018.046.042.046M411.825 207.2c.024 0 .046-.022.046-.044a.048.048 0 0 0-.046-.045.048.048 0 0 0-.046.045c0 .022.022.044.046.044M406.817 217.062c.024 0 .042-.02.042-.043a.042.042 0 0 0-.042-.044c-.028 0-.046.02-.046.044 0 .023.018.043.046.043M400.803 226.925c.024 0 .042-.02.042-.043a.042.042 0 0 0-.042-.043c-.028 0-.042.02-.042.043 0 .024.014.043.042.043M393.791 236.79c.024 0 .042-.02.042-.044 0-.025-.018-.045-.042-.045a.044.044 0 0 0-.046.045c0 .024.018.044.046.044M386.773 245.888a.27.27 0 0 0 .275-.267.27.27 0 0 0-.275-.264.27.27 0 0 0-.27.264c0 .148.126.267.27.267M378.761 253.557c.024 0 .042-.02.042-.044a.042.042 0 0 0-.042-.043c-.028 0-.046.02-.046.043 0 .024.018.044.046.044M369.741 260.595a.18.18 0 0 0 .18-.177.18.18 0 0 0-.36 0c0 .098.078.177.18.177M359.72 267.587c.15 0 .271-.118.271-.264a.27.27 0 0 0-.27-.266.27.27 0 0 0-.27.266c0 .146.122.264.27.264M350.7 273.505a.27.27 0 0 0 .275-.266.268.268 0 0 0-.274-.264.27.27 0 0 0-.27.264c0 .148.126.266.27.266M339.68 279.336a.18.18 0 0 0 .181-.178.18.18 0 0 0-.18-.177.177.177 0 0 0-.18.177c0 .097.078.178.18.178M328.659 283.545c.246 0 .45-.197.45-.442a.448.448 0 0 0-.45-.441c-.25 0-.451.197-.451.441 0 .245.2.442.45.442M317.637 286.504c.25 0 .45-.197.45-.44 0-.246-.2-.443-.45-.443a.448.448 0 0 0-.451.443c0 .243.204.44.45.44M306.614 289.553a.538.538 0 0 0 .542-.533.538.538 0 0 0-.542-.53c-.3 0-.54.239-.54.53 0 .294.24.533.54.533M295.594 291.39a.4.4 0 0 0 .403-.396.4.4 0 0 0-.403-.396.4.4 0 0 0-.406.396.4.4 0 0 0 .406.397M283.57 291.437a.443.443 0 1 0 0-.886c-.25 0-.45.196-.45.442 0 .243.2.444.45.444M271.544 291.393c.223 0 .403-.18.403-.399a.4.4 0 0 0-.403-.398.4.4 0 0 0-.403.398c0 .22.18.399.403.399M260.524 290.45a.447.447 0 0 0 .447-.443c0-.243-.2-.442-.447-.442-.25 0-.45.2-.45.442s.2.444.45.444M249.502 288.7a.67.67 0 0 0 .673-.666.67.67 0 0 0-.673-.665c-.375 0-.677.3-.677.665 0 .369.302.667.677.667M237.474 285.874c.447 0 .81-.359.81-.797a.805.805 0 0 0-.81-.799.802.802 0 0 0-.806.8c0 .437.359.796.806.796M226.454 281.928c.447 0 .81-.357.81-.797a.804.804 0 0 0-.81-.797.804.804 0 0 0-.81.797c0 .44.363.797.81.797M216.434 276.64c.246 0 .45-.196.45-.441a.448.448 0 0 0-.45-.442c-.25 0-.451.197-.451.442s.2.442.45.442M206.416 270.857a.58.58 0 0 0 .583-.576.58.58 0 0 0-.583-.576.582.582 0 0 0-.588.576c0 .318.263.576.588.576M196.394 264.895c.3 0 .54-.24.54-.535a.534.534 0 0 0-.54-.529.536.536 0 0 0-.542.529c0 .296.245.535.542.535M187.378 257.99a.534.534 0 0 0 .537-.533.533.533 0 0 0-.537-.53c-.301 0-.542.238-.542.53 0 .295.24.532.542.532M179.357 250.143a.58.58 0 0 0 .588-.576.581.581 0 0 0-.588-.574.58.58 0 0 0-.583.574c0 .32.263.576.583.576M171.345 241.088c.223 0 .403-.18.403-.398a.4.4 0 0 0-.403-.397.403.403 0 0 0-.406.397c0 .219.184.398.406.398M164.327 232.212c.223 0 .407-.18.407-.398a.404.404 0 0 0-.407-.399.403.403 0 0 0-.402.399c0 .219.184.398.402.398M157.315 222.48a.538.538 0 0 0 .541-.53.536.536 0 0 0-.54-.53.536.536 0 0 0-.542.53c0 .292.245.53.541.53M152.305 212.529c.247 0 .451-.2.451-.442a.446.446 0 0 0-.45-.442.446.446 0 0 0-.452.442c0 .242.205.442.451.442M147.293 201.635c.223 0 .407-.18.407-.399a.404.404 0 0 0-.407-.396.401.401 0 0 0-.403.396c0 .22.18.399.403.399M144.291 190.695a.31.31 0 0 0 .313-.308.31.31 0 0 0-.313-.307.31.31 0 0 0-.316.307c0 .172.14.308.316.308M141.283 179.847a.314.314 0 0 0 .317-.31.314.314 0 0 0-.317-.31.312.312 0 0 0-.317.31c0 .172.14.31.317.31M139.28 168.954a.27.27 0 0 0 .27-.266.27.27 0 0 0-.27-.267.27.27 0 0 0-.271.267.27.27 0 0 0 .27.266M138.28 157.03c.097 0 .18-.082.18-.18a.18.18 0 0 0-.18-.176.18.18 0 0 0-.185.176c0 .098.082.18.184.18M138.28 145.149c.07 0 .131-.057.131-.13a.136.136 0 0 0-.132-.137.135.135 0 0 0-.136.137c0 .073.058.13.136.13M139.28 134.21c.027 0 .041-.022.041-.044 0-.024-.014-.044-.042-.044a.042.042 0 0 0-.042.044c0 .022.018.043.042.043M141.285 122.374c.024 0 .042-.02.042-.043 0-.024-.018-.046-.042-.046a.045.045 0 0 0-.046.046c0 .023.018.043.046.043M144.291 111.525c.024 0 .042-.023.042-.045 0-.024-.018-.045-.042-.045a.045.045 0 0 0-.046.045c0 .022.018.045.046.045M147.293 100.675c.028 0 .046-.02.046-.042 0-.025-.018-.047-.046-.047-.024 0-.042.022-.042.047 0 .022.018.042.042.042M171.343 61.221c.024 0 .042-.02.042-.043 0-.026-.018-.046-.042-.046-.028 0-.042.02-.042.046 0 .023.014.043.042.043M420.841 128.292c.028 0 .046-.02.046-.043a.044.044 0 0 0-.046-.046c-.024 0-.042.02-.042.046 0 .023.018.043.042.043M422.85 140.128c.023 0 .041-.02.041-.043 0-.026-.018-.045-.042-.045a.046.046 0 0 0-.046.045c0 .024.022.043.046.043M435.875 162.814c.025 0 .043-.022.043-.043 0-.026-.018-.046-.043-.046a.044.044 0 0 0-.046.046c0 .021.018.043.046.043M434.873 173.664c.025 0 .043-.022.043-.045a.042.042 0 0 0-.043-.044c-.028 0-.046.02-.046.044 0 .023.018.045.046.045M431.863 185.501c.029 0 .047-.02.047-.045a.045.045 0 0 0-.047-.046c-.024 0-.042.022-.042.046 0 .025.018.045.042.045M428.861 196.35c.024 0 .043-.02.043-.044 0-.025-.019-.045-.043-.045a.044.044 0 0 0-.046.045c0 .024.018.044.046.044M425.855 207.2c.024 0 .043-.02.043-.046a.042.042 0 0 0-.043-.043c-.028 0-.046.02-.046.043 0 .026.018.046.046.046M420.845 218.048c.024 0 .042-.02.042-.041 0-.024-.018-.046-.042-.046a.045.045 0 0 0-.046.046c0 .022.018.041.046.041M415.835 227.913c.024 0 .042-.02.042-.044 0-.025-.018-.045-.042-.045a.044.044 0 0 0-.046.045c0 .024.018.044.046.044M408.821 237.863a.13.13 0 0 0 .133-.13.13.13 0 0 0-.133-.132.131.131 0 1 0 0 .262M401.803 246.786c.102 0 .18-.079.18-.177a.178.178 0 0 0-.356 0c0 .098.078.177.176.177M394.79 255.796c.172 0 .316-.14.316-.312a.313.313 0 0 0-.317-.308.31.31 0 1 0 0 .62M386.777 263.686a.311.311 0 0 0 .313-.31c0-.171-.14-.31-.313-.31a.312.312 0 0 0-.317.31c0 .172.14.31.317.31M377.757 271.534a.27.27 0 0 0 .27-.267.27.27 0 0 0-.27-.266.27.27 0 0 0-.27.266.27.27 0 0 0 .27.267M368.737 277.45a.27.27 0 0 0 .27-.266.268.268 0 0 0-.27-.264.265.265 0 1 0 0 .53M358.717 285.018a.938.938 0 0 0 .948-.93.937.937 0 0 0-.948-.926.937.937 0 0 0-.944.927c0 .513.423.929.944.929M347.697 289.685a.669.669 0 0 0 .673-.665c0-.364-.3-.662-.673-.662a.667.667 0 0 0-.674.662c0 .367.299.665.674.665M337.675 294.352a.407.407 0 0 0 .407-.4.403.403 0 0 0-.407-.397.4.4 0 0 0-.403.396c0 .22.18.4.403.4M326.653 297.487a.58.58 0 0 0 .587-.574.58.58 0 0 0-.587-.576.58.58 0 0 0-.584.576.58.58 0 0 0 .584.574M315.635 300.58a.71.71 0 1 0 0-1.418.712.712 0 0 0-.72.71c0 .39.32.708.72.708M303.608 303.54c.395 0 .72-.316.72-.709a.715.715 0 0 0-.72-.71.715.715 0 0 0-.719.71c0 .393.325.708.72.708M292.584 304.348c.3 0 .541-.238.541-.532 0-.292-.24-.531-.54-.531a.535.535 0 0 0-.538.53c0 .295.24.533.537.533M280.562 304.348a.541.541 0 0 0 .541-.532.54.54 0 0 0-.54-.531c-.301 0-.542.239-.542.53 0 .295.24.533.541.533M269.54 304.614c.447 0 .81-.358.81-.795a.805.805 0 0 0-.81-.8c-.45 0-.81.36-.81.8a.8.8 0 0 0 .81.795M257.514 303.497c.375 0 .677-.3.677-.667a.674.674 0 0 0-.677-.667.672.672 0 0 0-.673.667c0 .367.3.667.673.667M246.494 300.713a.845.845 0 0 0 .854-.84.847.847 0 0 0-.854-.843.85.85 0 0 0-.854.842c0 .466.385.84.854.84M234.47 297.899a.994.994 0 0 0 1.002-.986.996.996 0 0 0-1.002-.987.996.996 0 0 0-1.002.987c0 .544.45.986 1.002.986M223.449 294.94a.995.995 0 0 0 1-.989.995.995 0 0 0-1-.984.995.995 0 0 0-1.003.984c0 .547.448.989 1.003.989M213.43 289.82a.801.801 0 0 0 .805-.798.802.802 0 0 0-.805-.798c-.451 0-.81.359-.81.798 0 .438.359.797.81.797M203.408 285.076a.995.995 0 0 0 1.002-.986.995.995 0 0 0-1.002-.987.995.995 0 0 0-1.002.987c0 .544.45.986 1.002.986M193.388 277.983c.446 0 .81-.355.81-.797a.805.805 0 0 0-.81-.799c-.451 0-.81.36-.81.8a.8.8 0 0 0 .81.796M183.365 272.24a.98.98 0 0 0 .99-.972.98.98 0 0 0-.99-.974.977.977 0 0 0-.986.974c0 .539.44.973.986.973M175.35 264.219a.85.85 0 0 0 .857-.842.852.852 0 0 0-.858-.843.85.85 0 0 0-.853.843.85.85 0 0 0 .853.842M166.333 256.194c.4 0 .72-.316.72-.708 0-.39-.32-.708-.72-.708a.716.716 0 0 0-.72.708c0 .392.326.708.72.708M159.321 247.052c.247 0 .447-.2.447-.446 0-.243-.2-.44-.447-.44-.25 0-.45.197-.45.44 0 .246.2.446.45.446M152.305 238.262c.3 0 .541-.236.541-.53 0-.292-.24-.53-.54-.53a.538.538 0 0 0-.542.53c0 .294.245.53.541.53M146.291 228.311c.25 0 .451-.2.451-.444s-.2-.442-.45-.442a.444.444 0 0 0-.448.442c0 .245.2.444.447.444M140.28 218.448c.25 0 .454-.198.454-.444a.45.45 0 0 0-.455-.442c-.246 0-.45.2-.45.442 0 .246.204.444.45.444M136.271 207.554a.403.403 0 0 0 .407-.397c0-.219-.184-.4-.407-.4a.403.403 0 0 0-.403.4.4.4 0 0 0 .403.397M132.267 196.747a.443.443 0 1 0 0-.884c-.25 0-.45.196-.45.44 0 .245.2.444.45.444M129.259 185.898c.247 0 .45-.197.45-.441a.45.45 0 0 0-.45-.444c-.25 0-.45.199-.45.444 0 .244.2.441.45.441M127.253 174.018c.222 0 .407-.18.407-.4a.403.403 0 0 0-.407-.397.4.4 0 0 0-.403.397c0 .22.18.4.403.4M125.249 163.168a.4.4 0 0 0 .407-.396c0-.22-.18-.4-.407-.4a.403.403 0 0 0-.403.4.4.4 0 0 0 .403.396M125.247 151.2a.27.27 0 0 0 .275-.266.27.27 0 0 0-.275-.267.266.266 0 1 0 0 .533M125.249 140.262a.179.179 0 1 0 .003-.357.179.179 0 0 0-.003.357M127.253 128.425c.102 0 .184-.08.184-.177a.18.18 0 0 0-.184-.178.18.18 0 0 0-.18.178.18.18 0 0 0 .18.177M129.261 117.531a.13.13 0 0 0 .132-.13.134.134 0 0 0-.132-.136.137.137 0 0 0-.136.136c0 .073.062.13.136.13M132.263 106.593a.045.045 0 0 0 .046-.044.045.045 0 0 0-.046-.045c-.024 0-.042.022-.042.045 0 .022.018.044.042.044M136.271 95.743a.045.045 0 0 0 .046-.043.044.044 0 0 0-.046-.046c-.024 0-.042.02-.042.046 0 .021.018.043.042.043M140.28 84.893a.045.045 0 0 0 .045-.043.045.045 0 0 0-.046-.046c-.024 0-.042.022-.042.046 0 .021.018.043.042.043M146.291 75.03c.028 0 .046-.019.046-.045a.044.044 0 0 0-.046-.045c-.024 0-.042.02-.042.045 0 .026.018.046.042.046M152.303 65.165c.028 0 .046-.02.046-.043 0-.024-.018-.043-.046-.043a.042.042 0 0 0-.042.043c0 .024.018.043.042.043M159.321 55.303c.024 0 .042-.02.042-.042 0-.023-.018-.047-.042-.047a.047.047 0 0 0-.046.047c0 .022.018.042.046.042M166.335 47.412c.024 0 .042-.02.042-.041 0-.026-.018-.048-.042-.048a.048.048 0 0 0-.046.048c0 .021.022.041.046.041M175.35 39.521c.027 0 .045-.02.045-.043a.044.044 0 0 0-.046-.045c-.024 0-.042.02-.042.045 0 .024.018.043.042.043M183.365 31.63c.025 0 .047-.019.047-.043a.048.048 0 0 0-.047-.045c-.024 0-.042.022-.042.045 0 .024.018.044.042.044M193.386 24.726c.028 0 .046-.02.046-.041 0-.028-.018-.047-.046-.047-.025 0-.043.02-.043.047 0 .022.018.041.043.041M203.41 18.808c.024 0 .042-.021.042-.045a.042.042 0 0 0-.042-.043c-.028 0-.046.02-.046.043 0 .024.018.045.046.045M223.448 8.944c.024 0 .042-.02.042-.044a.042.042 0 0 0-.042-.043c-.028 0-.042.02-.042.043 0 .024.014.044.042.044M434.873 128.292c.025 0 .043-.022.043-.043 0-.026-.018-.046-.043-.046a.044.044 0 0 0-.046.046c0 .021.018.043.046.043M435.875 140.128c.025 0 .043-.021.043-.045a.042.042 0 0 0-.043-.043c-.028 0-.046.02-.046.043 0 .024.018.045.046.045M448.902 150.978c.024 0 .042-.02.042-.043 0-.026-.018-.046-.042-.046a.044.044 0 0 0-.046.046c0 .023.018.043.046.043M448.902 162.814c.024 0 .042-.022.042-.045a.042.042 0 0 0-.042-.044c-.028 0-.046.02-.046.044 0 .023.018.045.046.045M447.9 173.663c.024 0 .042-.02.042-.043a.042.042 0 0 0-.042-.044c-.028 0-.046.02-.046.044 0 .023.018.043.046.043M445.894 185.588a.133.133 0 0 0 .136-.13.135.135 0 0 0-.136-.135.135.135 0 0 0-.137.135c0 .073.062.13.137.13M442.886 196.439c.074 0 .136-.06.136-.13a.137.137 0 0 0-.136-.137.136.136 0 0 0-.133.136c0 .071.062.13.133.13M438.882 207.288a.133.133 0 0 0 0-.266.135.135 0 0 0-.137.132c0 .073.062.134.137.134M434.87 218.138c.074 0 .136-.06.136-.13a.137.137 0 0 0-.137-.136.134.134 0 0 0-.132.136c0 .07.058.13.132.13M429.86 227.912c.027 0 .046-.02.046-.042a.044.044 0 0 0-.047-.045c-.024 0-.042.02-.042.045 0 .022.018.042.042.042M423.847 237.865c.079 0 .137-.057.137-.13a.135.135 0 1 0-.269 0c0 .073.058.13.132.13M417.837 247.861a.27.27 0 0 0 .27-.264.27.27 0 0 0-.54 0 .27.27 0 0 0 .27.264M410.823 256.739a.27.27 0 0 0 .27-.267.27.27 0 0 0-.27-.266.27.27 0 0 0-.27.266.27.27 0 0 0 .27.267M402.81 265.659a.31.31 0 0 0 .312-.308.313.313 0 0 0-.313-.311.314.314 0 0 0-.316.311c0 .17.14.308.316.308M394.791 273.505a.27.27 0 0 0 .27-.266.268.268 0 0 0-.27-.264.268.268 0 0 0-.27.264.27.27 0 0 0 .27.266M385.773 281.706c.32 0 .583-.255.583-.574a.58.58 0 0 0-.583-.576.58.58 0 0 0-.583.576c0 .32.262.574.583.574M376.757 288.876a.848.848 0 0 0 .854-.84.85.85 0 0 0-.854-.842.85.85 0 0 0-.858.842c0 .466.385.84.858.84M366.234 294.94c.829 0 1.503-.664 1.503-1.48 0-.818-.674-1.48-1.503-1.48-.829 0-1.503.662-1.503 1.48 0 .816.674 1.48 1.503 1.48M356.212 300.858c.831 0 1.505-.662 1.505-1.48 0-.816-.674-1.48-1.505-1.48-.828 0-1.501.664-1.501 1.48 0 .818.673 1.48 1.5 1.48M345.693 304.791c.547 0 .99-.436.99-.972a.984.984 0 0 0-.99-.977.986.986 0 0 0-.99.977c0 .536.447.972.99.972M334.669 308.748a.997.997 0 0 0 1.004-.989.995.995 0 0 0-1.004-.983c-.549 0-1 .439-1 .983 0 .548.451.99 1 .99M323.65 312.549a.848.848 0 0 0 .854-.843.85.85 0 0 0-.853-.84.85.85 0 0 0-.858.84.85.85 0 0 0 .858.843M312.629 314.256a.58.58 0 0 0 .583-.576.58.58 0 0 0-.583-.576.582.582 0 0 0-.588.576c0 .318.263.576.588.576M300.604 316.58a.937.937 0 0 0 .944-.928.935.935 0 0 0-.944-.927.936.936 0 0 0-.947.927c0 .513.422.929.947.929M289.58 317.348c.4 0 .72-.317.72-.708 0-.393-.32-.71-.72-.71a.716.716 0 0 0-.72.71c0 .39.326.708.72.708M277.556 317.348c.395 0 .72-.317.72-.708a.716.716 0 0 0-.72-.71.714.714 0 0 0-.72.71c0 .39.321.708.72.708M266.536 317.568a.939.939 0 0 0 .944-.93.937.937 0 0 0-.944-.928.937.937 0 0 0-.948.927.94.94 0 0 0 .948.931M254.508 315.653a.996.996 0 0 0 1.004-.987.996.996 0 0 0-1.004-.986c-.553 0-1 .442-1 .986 0 .545.447.987 1 .987M243.488 313.667c.543 0 .99-.438.99-.972a.983.983 0 0 0-.99-.975.98.98 0 0 0-.99.975c0 .534.443.972.99.972M231.965 311.707c.83 0 1.503-.665 1.503-1.48a1.49 1.49 0 0 0-1.503-1.479 1.49 1.49 0 0 0-1.503 1.479c0 .815.672 1.48 1.503 1.48M221.444 307.762c1.107 0 2.004-.883 2.004-1.973s-.897-1.972-2.004-1.972-2.004.883-2.004 1.972c0 1.09.897 1.973 2.004 1.973M209.919 302.83c.83 0 1.505-.664 1.505-1.48s-.675-1.479-1.505-1.479a1.49 1.49 0 0 0-1.501 1.48c0 .815.67 1.48 1.5 1.48M199.903 297.899a1.49 1.49 0 0 0 1.5-1.48c0-.82-.67-1.48-1.5-1.48-.834 0-1.505.66-1.505 1.48 0 .816.67 1.48 1.505 1.48M189.882 291.98c.827 0 1.502-.664 1.502-1.478 0-.818-.675-1.48-1.502-1.48-.83 0-1.504.662-1.504 1.48 0 .814.674 1.478 1.504 1.478M180.361 286.062c1.108 0 2.004-.882 2.004-1.973 0-1.09-.896-1.972-2.004-1.972-1.104 0-2.004.883-2.004 1.972 0 1.091.9 1.973 2.004 1.973M171.343 278.172a.993.993 0 0 0 1.002-.985.996.996 0 0 0-1.002-.988.996.996 0 0 0-1.002.988c0 .545.45.985 1.002.985M162.327 270.281c.553 0 1-.443 1-.986a.993.993 0 0 0-1-.987.996.996 0 0 0-1.004.987c0 .543.45.986 1.004.986M154.307 262.333a.939.939 0 0 0 .948-.933.936.936 0 0 0-.948-.925.935.935 0 0 0-.944.925c0 .517.423.933.944.933M147.297 253.37a.85.85 0 0 0 .854-.845.85.85 0 0 0-.854-.84.851.851 0 0 0-.858.84.85.85 0 0 0 .858.844M140.28 243.506a.85.85 0 0 0 .857-.843.852.852 0 0 0-.858-.842.85.85 0 0 0-.854.842.85.85 0 0 0 .854.843M134.27 233.774c.546 0 .99-.436.99-.971a.982.982 0 0 0-.99-.977.985.985 0 0 0-.99.977c0 .535.446.97.99.97M129.257 223.601a.671.671 0 0 0 .677-.666.672.672 0 0 0-.677-.663.668.668 0 0 0-.673.663c0 .37.3.666.673.666M124.249 213.515c.246 0 .45-.2.45-.444a.446.446 0 0 0-.45-.44c-.25 0-.45.196-.45.44 0 .245.2.444.45.444M120.241 202.755a.538.538 0 0 0 .541-.53.538.538 0 0 0-.541-.533.538.538 0 0 0-.541.532c0 .292.244.531.541.531M117.235 190.919a.539.539 0 0 0 .541-.535.535.535 0 0 0-.541-.528.535.535 0 0 0-.541.528c0 .296.244.535.54.535M115.233 180.068a.533.533 0 0 0 .537-.53c0-.292-.24-.531-.537-.531-.3 0-.541.239-.541.53 0 .294.24.531.54.531M113.227 169.13c.246 0 .45-.2.45-.444a.447.447 0 0 0-.45-.44c-.25 0-.451.197-.451.44 0 .244.2.444.45.444M112.225 157.116c.148 0 .27-.118.27-.266a.267.267 0 0 0-.27-.263.267.267 0 0 0-.27.263c0 .148.122.266.27.266M112.225 145.414a.398.398 0 1 0 0-.797.401.401 0 0 0-.403.397c0 .219.18.4.403.4M113.229 134.564a.4.4 0 0 0 .403-.396.4.4 0 0 0-.403-.4.404.404 0 0 0-.407.4c0 .219.184.396.407.396M115.23 122.507c.1 0 .181-.077.181-.175a.181.181 0 0 0-.18-.18c-.102 0-.18.081-.18.18 0 .098.078.175.18.175M117.235 111.746a.27.27 0 0 0 .27-.264.27.27 0 0 0-.54 0 .27.27 0 0 0 .27.264M120.241 100.808a.18.18 0 0 0 .18-.178.18.18 0 0 0-.18-.177.18.18 0 0 0-.18.177.18.18 0 0 0 .18.178M124.251 89.825c.024 0 .042-.02.042-.045a.042.042 0 0 0-.042-.044c-.028 0-.046.02-.046.044 0 .025.018.045.046.045M129.257 78.975c.028 0 .046-.02.046-.045 0-.024-.018-.044-.046-.044a.042.042 0 0 0-.042.044c0 .025.018.045.042.045M134.271 69.2c.074 0 .132-.059.132-.134a.132.132 0 0 0-.132-.132.135.135 0 0 0-.136.132c0 .075.062.134.136.134M140.28 59.337a.137.137 0 0 0 .135-.134.135.135 0 0 0-.136-.132.133.133 0 0 0 0 .266M147.297 50.504a.177.177 0 0 0 .177-.18.176.176 0 0 0-.177-.175.177.177 0 1 0 0 .355M154.307 41.583a.137.137 0 0 0 .137-.134.136.136 0 0 0-.137-.132.133.133 0 0 0 0 .266M162.327 32.705a.13.13 0 0 0 .133-.13.132.132 0 0 0-.133-.134.135.135 0 0 0-.136.134c0 .073.062.13.136.13M171.341 25.801a.137.137 0 0 0 .137-.134.135.135 0 0 0-.137-.132.133.133 0 0 0 0 .266M180.36 17.822a.045.045 0 0 0 .046-.043.044.044 0 0 0-.047-.046c-.024 0-.042.02-.042.046 0 .021.018.043.042.043M190.384 11.904c.024 0 .042-.02.042-.044 0-.025-.018-.045-.042-.045a.044.044 0 0 0-.047.045c0 .024.018.044.047.044M199.402 5.987c.024 0 .042-.022.042-.046 0-.025-.018-.045-.042-.045a.044.044 0 0 0-.046.045c0 .024.018.046.046.046" fill="#569C48"/>
        <g transform="translate(209.42 .023)">
            <mask id="1yw1hrwy7b" fill="#fff">
                <use xlink:href="#79s9l6m5fa"/>
            </mask>
            <path d="M1 .561c.024 0 .046-.02.046-.043A.048.048 0 0 0 1 .47C.976.47.958.492.958.518.958.54.976.56 1 .56" fill="#569C48" mask="url(#1yw1hrwy7b)"/>
        </g>
        <path d="M442.886 105.606c.028 0 .046-.02.046-.043a.044.044 0 0 0-.046-.045c-.025 0-.043.02-.043.045 0 .024.018.043.043.043M445.894 117.442c.028 0 .042-.02.042-.043 0-.026-.014-.045-.042-.045-.024 0-.043.02-.043.045 0 .024.019.043.043.043M447.9 128.292c.024 0 .042-.022.042-.043 0-.026-.018-.046-.042-.046a.044.044 0 0 0-.046.046c0 .021.018.043.046.043M448.902 140.128c.024 0 .042-.021.042-.043 0-.024-.018-.045-.042-.045a.045.045 0 0 0-.046.045c0 .022.018.043.046.043M461.924 151.067c.074 0 .136-.06.136-.132a.137.137 0 0 0-.136-.134.133.133 0 0 0 0 .266M461.928 162.903a.13.13 0 0 0 .132-.132.133.133 0 0 0-.132-.134.137.137 0 0 0-.137.134c0 .075.063.132.137.132M460.924 173.753a.13.13 0 0 0 .132-.133.13.13 0 0 0-.132-.134.133.133 0 0 0 0 .267M458.916 185.633c.102 0 .184-.08.184-.177a.18.18 0 0 0-.184-.178.177.177 0 0 0 0 .355M455.914 196.484a.18.18 0 0 0 .18-.178.181.181 0 0 0-.18-.18c-.099 0-.18.082-.18.18a.18.18 0 0 0 .18.178M452.908 207.554c.222 0 .402-.18.402-.399a.4.4 0 0 0-.402-.398.4.4 0 0 0-.403.398c0 .22.18.399.403.399M448.9 218.537a.538.538 0 0 0 .54-.533.538.538 0 0 0-.54-.53c-.301 0-.541.238-.541.53 0 .294.24.533.54.533M443.888 228.989a.136.136 0 0 0 .136-.132.137.137 0 0 0-.136-.137.134.134 0 0 0-.133.137c0 .07.058.132.133.132M438.882 238.851a.13.13 0 0 0 .132-.132.134.134 0 1 0-.269 0c0 .075.058.132.137.132M432.867 248.849a.27.27 0 0 0 .271-.267.272.272 0 0 0-.27-.268.272.272 0 0 0-.271.268.27.27 0 0 0 .27.267M425.853 257.634a.175.175 0 1 0 0-.351.178.178 0 0 0-.18.176c0 .098.082.175.18.175M418.841 267.588a.266.266 0 1 0 0-.532.272.272 0 0 0-.27.268.27.27 0 0 0 .27.264M410.823 275.789a.578.578 0 0 0 .583-.576.578.578 0 0 0-.583-.576.58.58 0 0 0-.583.576.58.58 0 0 0 .583.576M402.807 283.9c.447 0 .81-.357.81-.795a.805.805 0 0 0-.81-.799c-.45 0-.81.36-.81.8a.8.8 0 0 0 .81.794M393.79 291.57a.578.578 0 0 0 .582-.575.578.578 0 0 0-.583-.576.58.58 0 0 0-.583.576.58.58 0 0 0 .583.574M384.77 298.829a.938.938 0 0 0 .947-.931.938.938 0 0 0-.948-.93.937.937 0 0 0-.944.93c0 .514.423.93.944.93M374.751 304.803a.994.994 0 0 0 1.002-.986.994.994 0 0 0-1.002-.987.994.994 0 0 0-1.002.987c0 .545.449.986 1.002.986M364.232 310.721c.83 0 1.5-.661 1.5-1.479 0-.819-.67-1.48-1.5-1.48-.832 0-1.505.661-1.505 1.48 0 .818.673 1.479 1.505 1.479M353.707 315.653a.995.995 0 0 0 1.004-.985.996.996 0 0 0-1.004-.988c-.552 0-1 .44-1 .988 0 .544.448.985 1 .985M343.689 320.584c1.107 0 2.004-.887 2.004-1.972 0-1.09-.897-1.973-2.004-1.973s-2.004.883-2.004 1.973c0 1.085.897 1.972 2.004 1.972M332.667 324.53c1.107 0 2.004-.885 2.004-1.974s-.897-1.972-2.004-1.972c-1.103 0-2.004.883-2.004 1.972 0 1.09.9 1.974 2.004 1.974M320.643 326.502a.995.995 0 0 0 1.002-.984.996.996 0 0 0-1.002-.988.996.996 0 0 0-1.002.988c0 .542.45.984 1.002.984M309.62 328.475a.995.995 0 0 0 1.002-.985.995.995 0 0 0-1.002-.988.993.993 0 0 0-1.002.988c0 .544.448.985 1.002.985M298.097 330.448a1.49 1.49 0 0 0 1.503-1.48c0-.815-.674-1.48-1.503-1.48a1.49 1.49 0 0 0-1.503 1.48c0 .82.67 1.48 1.503 1.48M286.574 330.448a.995.995 0 0 0 1.002-.988.994.994 0 0 0-1.002-.985.994.994 0 0 0-1.002.985c0 .546.449.988 1.002.988M275.051 331.434a1.49 1.49 0 0 0 1.503-1.48c0-.815-.675-1.479-1.503-1.479-.828 0-1.503.664-1.503 1.48 0 .82.675 1.48 1.503 1.48M263.025 330.448c.832 0 1.505-.663 1.505-1.482 0-.816-.673-1.477-1.505-1.477a1.49 1.49 0 0 0-1.5 1.477c0 .819.672 1.482 1.5 1.482M252.003 328.475c.832 0 1.505-.663 1.505-1.48 0-.818-.673-1.479-1.505-1.479a1.49 1.49 0 0 0-1.501 1.48c0 .816.673 1.48 1.501 1.48M239.983 326.502a1.49 1.49 0 0 0 1.5-1.48 1.49 1.49 0 0 0-1.5-1.479 1.49 1.49 0 0 0-1.505 1.48c0 .816.671 1.48 1.505 1.48M229.462 324.53c1.105 0 2.002-.884 2.002-1.974 0-1.088-.897-1.972-2.002-1.972-1.106 0-2.006.884-2.006 1.972 0 1.09.9 1.974 2.006 1.974M217.935 321.57c1.386 0 2.507-1.102 2.507-2.463 0-1.363-1.121-2.468-2.507-2.468-1.382 0-2.503 1.105-2.503 2.468 0 1.36 1.12 2.464 2.503 2.464M207.418 316.639c1.106 0 2.002-.885 2.002-1.974 0-1.092-.896-1.971-2.002-1.971-1.11 0-2.006.879-2.006 1.971 0 1.09.895 1.974 2.006 1.974M196.396 312.694c1.66 0 3.004-1.324 3.004-2.96 0-1.633-1.344-2.958-3.004-2.958-1.665 0-3.008 1.325-3.008 2.959 0 1.635 1.343 2.959 3.008 2.959M186.873 306.776c1.383 0 2.507-1.105 2.507-2.468 0-1.361-1.124-2.464-2.507-2.464-1.384 0-2.504 1.103-2.504 2.464 0 1.363 1.12 2.468 2.504 2.468M176.854 299.871c1.384 0 2.505-1.105 2.505-2.466 0-1.362-1.121-2.465-2.505-2.465-1.383 0-2.505 1.103-2.505 2.465 0 1.36 1.122 2.466 2.505 2.466M167.836 292.967c1.385 0 2.505-1.105 2.505-2.465 0-1.362-1.12-2.467-2.505-2.467-1.384 0-2.505 1.105-2.505 2.467 0 1.36 1.12 2.465 2.505 2.465M158.816 286.062c1.384 0 2.507-1.102 2.507-2.464 0-1.365-1.123-2.467-2.507-2.467-1.383 0-2.503 1.102-2.503 2.467 0 1.362 1.12 2.464 2.503 2.464M150.804 277.185a1.49 1.49 0 0 0 1.501-1.48 1.49 1.49 0 0 0-1.501-1.479c-.83 0-1.505.663-1.505 1.479 0 .82.675 1.48 1.505 1.48M142.784 268.308c.833 0 1.505-.661 1.505-1.477 0-.818-.672-1.482-1.505-1.482-.829 0-1.5.664-1.5 1.482a1.49 1.49 0 0 0 1.5 1.477M135.772 259.431a1.49 1.49 0 0 0 1.503-1.477c0-.82-.673-1.482-1.503-1.482-.83 0-1.503.662-1.503 1.482a1.49 1.49 0 0 0 1.503 1.477M128.257 249.568a.994.994 0 0 0 1.002-.986.993.993 0 0 0-1.002-.987.993.993 0 0 0-1.002.987c0 .543.448.986 1.002.986M122.247 239.693a.982.982 0 0 0 .986-.975.981.981 0 0 0-.986-.974.982.982 0 0 0-.99.974c0 .537.443.975.99.975M117.236 229.841a.992.992 0 0 0 1-.985.993.993 0 0 0-1-.988.995.995 0 0 0-1.003.988c0 .544.448.985 1.003.985M112.224 218.991a.995.995 0 0 0 1.003-.987.993.993 0 0 0-1.003-.985.994.994 0 0 0-1.001.985c0 .545.45.987 1.001.987M108.217 208.141a.994.994 0 0 0 1.002-.984.996.996 0 0 0-1.002-.988.996.996 0 0 0-1.002.988c0 .544.45.984 1.002.984M105.209 197.147a.849.849 0 0 0 .858-.84.852.852 0 0 0-.858-.843.85.85 0 0 0-.854.842c0 .466.385.84.854.84M102.205 186.254c.447 0 .81-.36.81-.797a.804.804 0 0 0-.81-.8c-.451 0-.81.358-.81.8 0 .438.359.797.81.797M101.199 174.55a.94.94 0 0 0 .948-.931.938.938 0 0 0-.948-.93.936.936 0 0 0-.94.93c0 .512.423.93.94.93M100.203 163.479c.395 0 .715-.32.715-.708 0-.395-.32-.71-.715-.71a.712.712 0 0 0-.72.71c0 .388.321.708.72.708M99.199 151.596a.667.667 0 0 0 .673-.662c0-.365-.3-.663-.673-.663a.668.668 0 0 0-.674.663c0 .367.301.662.674.662M100.203 140.66a.58.58 0 0 0 .583-.576.58.58 0 0 0-.583-.576.582.582 0 0 0-.587.576c0 .318.262.576.587.576M101.199 128.824a.582.582 0 0 0 .587-.576.582.582 0 0 0-.587-.576c-.32 0-.58.258-.58.576 0 .317.26.576.58.576M102.207 117.84a.445.445 0 0 0 .447-.443c0-.245-.2-.442-.447-.442-.25 0-.451.197-.451.442 0 .247.2.444.45.444M105.21 105.828a.27.27 0 0 0 .271-.266.27.27 0 0 0-.27-.266.27.27 0 0 0-.27.266.27.27 0 0 0 .27.266M108.217 95.155a.45.45 0 0 0 .45-.444.446.446 0 0 0-.45-.442c-.25 0-.451.196-.451.442 0 .243.2.444.45.444M112.223 84.039a.177.177 0 1 0 0-.353.176.176 0 0 0-.176.175c0 .1.078.178.176.178M117.235 74.265c.148 0 .27-.118.27-.264a.27.27 0 0 0-.54 0c0 .146.122.264.27.264M122.247 63.282c.07 0 .132-.057.132-.132a.134.134 0 1 0-.269 0c0 .075.059.132.137.132M128.257 53.552c.148 0 .27-.116.27-.264a.27.27 0 0 0-.54 0c0 .148.122.264.27.264M135.271 44.584c.098 0 .18-.077.18-.175a.178.178 0 0 0-.18-.176.178.178 0 0 0-.18.176c0 .098.082.175.18.175M142.285 35.665c.074 0 .136-.06.136-.132a.137.137 0 0 0-.136-.134.137.137 0 0 0-.136.134c0 .073.062.132.136.132M150.301 26.788a.136.136 0 0 0 .136-.132.135.135 0 0 0-.136-.135.135.135 0 0 0-.136.135c0 .07.062.132.136.132M158.315 18.807c.024 0 .046-.02.046-.041a.046.046 0 0 0-.046-.045c-.024 0-.042.02-.042.045 0 .022.018.041.042.041M458.918 117.442c.028 0 .046-.02.046-.043a.044.044 0 0 0-.046-.045c-.024 0-.042.02-.042.045 0 .024.018.043.042.043M460.922 128.292c.024 0 .046-.02.046-.043a.046.046 0 0 0-.046-.046c-.024 0-.042.02-.042.046 0 .023.018.043.042.043M461.928 140.128c.024 0 .042-.021.042-.045a.042.042 0 0 0-.042-.043c-.024 0-.046.02-.046.043 0 .024.022.045.046.045M474.95 151.067c.074 0 .136-.06.136-.132a.137.137 0 0 0-.136-.134.133.133 0 0 0 0 .266M474.95 163.168a.4.4 0 0 0 .407-.396c0-.22-.18-.4-.407-.4a.403.403 0 0 0-.403.4.4.4 0 0 0 .403.396M473.952 173.93a.31.31 0 0 0 .312-.309.311.311 0 0 0-.312-.311.312.312 0 0 0-.317.311c0 .17.14.308.317.308M471.946 185.765a.31.31 0 1 0 0-.62.31.31 0 1 0 0 .62M469.94 196.572a.27.27 0 0 0 .274-.267.27.27 0 0 0-.274-.266c-.145 0-.27.12-.27.266 0 .146.125.267.27.267M465.934 207.996a.846.846 0 0 0 .853-.842c0-.463-.38-.84-.853-.84a.847.847 0 0 0-.854.84c0 .468.38.842.854.842M462.427 219.978a1.49 1.49 0 0 0 1.503-1.481c0-.817-.67-1.478-1.503-1.478-.829 0-1.503.66-1.503 1.478 0 .82.674 1.48 1.503 1.48M457.918 229.386a.539.539 0 0 0 .54-.534.538.538 0 0 0-.54-.529.538.538 0 0 0-.541.529c0 .296.244.534.54.534M452.906 240.69a.997.997 0 0 0 1.004-.986.996.996 0 0 0-1.004-.986c-.554 0-1 .443-1 .986 0 .544.446.987 1 .987M447.898 250.497a.939.939 0 0 0 .943-.931.937.937 0 0 0-.943-.927.937.937 0 0 0-.944.927c0 .513.423.93.944.93M440.882 258.843a.4.4 0 0 0 .406-.396.404.404 0 0 0-.81 0c0 .219.185.396.404.396M434.871 269.017c.395 0 .72-.315.72-.708a.716.716 0 0 0-.72-.71.714.714 0 0 0-.719.71c0 .393.32.708.72.708M426.857 277.85a.669.669 0 0 0 .674-.666c0-.365-.3-.662-.674-.662a.67.67 0 0 0-.677.662.67.67 0 0 0 .677.665M418.841 285.74a.669.669 0 0 0 .674-.665c0-.365-.3-.663-.674-.663a.67.67 0 0 0-.677.663.67.67 0 0 0 .677.665M410.822 293.953a.995.995 0 0 0 1.003-.985.995.995 0 0 0-1.003-.988.996.996 0 0 0-1 .988c0 .543.449.985 1 .985M401.804 301.844a.995.995 0 0 0 1.003-.987.994.994 0 0 0-1.003-.986c-.552 0-1 .441-1 .986 0 .544.448.987 1 .987M392.284 308.748a1.49 1.49 0 0 0 1.505-1.48 1.49 1.49 0 0 0-1.505-1.479 1.49 1.49 0 0 0-1.5 1.48c0 .817.67 1.48 1.5 1.48M383.27 315.653c.83 0 1.501-.664 1.501-1.48a1.49 1.49 0 0 0-1.501-1.48c-.83 0-1.505.665-1.505 1.48 0 .816.675 1.48 1.505 1.48M373.248 322.557c1.38 0 2.505-1.103 2.505-2.466 0-1.36-1.124-2.466-2.505-2.466-1.385 0-2.505 1.105-2.505 2.466 0 1.363 1.12 2.466 2.505 2.466M362.727 326.502c1.104 0 2.004-.884 2.004-1.973 0-1.088-.9-1.972-2.004-1.972s-2.004.884-2.004 1.972c0 1.09.9 1.973 2.004 1.973M351.705 331.434c1.107 0 2.004-.883 2.004-1.973s-.897-1.972-2.004-1.972c-1.103 0-2.004.883-2.004 1.972 0 1.09.901 1.973 2.004 1.973M340.683 335.38c1.107 0 2.004-.886 2.004-1.973 0-1.094-.897-1.973-2.004-1.973-1.111 0-2.004.88-2.004 1.973 0 1.087.893 1.973 2.004 1.973M329.66 338.339c1.108 0 2.005-.884 2.005-1.973 0-1.088-.897-1.973-2.004-1.973s-2.004.885-2.004 1.973c0 1.09.897 1.973 2.004 1.973M318.138 340.311c.834 0 1.503-.666 1.503-1.481 0-.817-.669-1.478-1.503-1.478a1.49 1.49 0 0 0-1.503 1.478c0 .815.672 1.481 1.503 1.481M307.115 342.284a1.49 1.49 0 0 0 1.503-1.48c0-.815-.67-1.48-1.503-1.48-.828 0-1.503.665-1.503 1.48 0 .818.675 1.48 1.503 1.48M295.09 343.27c.831 0 1.504-.664 1.504-1.481 0-.819-.673-1.478-1.504-1.478-.828 0-1.502.66-1.502 1.478 0 .817.674 1.481 1.502 1.481M284.071 344.257c.828 0 1.501-.663 1.501-1.48a1.49 1.49 0 0 0-1.501-1.48c-.834 0-1.505.661-1.505 1.48 0 .817.67 1.48 1.505 1.48M271.546 344.257c1.105 0 2.002-.885 2.002-1.972 0-1.09-.897-1.974-2.002-1.974-1.109 0-2.006.884-2.006 1.974 0 1.087.897 1.972 2.006 1.972M260.522 343.27c1.108 0 2.004-.882 2.004-1.973 0-1.088-.896-1.972-2.004-1.972s-2.004.884-2.004 1.972c0 1.09.896 1.973 2.004 1.973M249.001 342.284c1.381 0 2.503-1.103 2.503-2.465 0-1.362-1.122-2.467-2.503-2.467s-2.507 1.105-2.507 2.467 1.126 2.465 2.507 2.465M236.977 340.311c1.382 0 2.503-1.104 2.503-2.467 0-1.359-1.121-2.464-2.503-2.464-1.386 0-2.507 1.105-2.507 2.464 0 1.363 1.121 2.467 2.507 2.467M225.951 337.352c1.386 0 2.507-1.104 2.507-2.467 0-1.36-1.121-2.465-2.507-2.465-1.382 0-2.503 1.104-2.503 2.465 0 1.363 1.12 2.467 2.503 2.467M215.432 334.393c1.66 0 3.006-1.324 3.006-2.956 0-1.636-1.346-2.962-3.006-2.962-1.66 0-3.006 1.326-3.006 2.962 0 1.632 1.346 2.956 3.006 2.956M204.41 330.448c1.659 0 3.006-1.324 3.006-2.961 0-1.631-1.347-2.957-3.006-2.957-1.66 0-3.006 1.326-3.006 2.957 0 1.637 1.347 2.96 3.006 2.96M193.889 325.516c1.937 0 3.507-1.546 3.507-3.453 0-1.907-1.57-3.451-3.507-3.451-1.938 0-3.507 1.544-3.507 3.45 0 1.908 1.569 3.454 3.507 3.454M183.366 319.598c1.662 0 3.007-1.325 3.007-2.957s-1.345-2.961-3.007-2.961c-1.656 0-3.005 1.329-3.005 2.96 0 1.633 1.35 2.958 3.005 2.958M173.346 313.68c1.66 0 3.007-1.326 3.007-2.958 0-1.636-1.346-2.96-3.007-2.96-1.658 0-3.005 1.324-3.005 2.96 0 1.632 1.347 2.958 3.005 2.958M164.33 306.776c1.658 0 3.005-1.326 3.005-2.96 0-1.636-1.347-2.958-3.006-2.958-1.659 0-3.006 1.322-3.006 2.959 0 1.633 1.347 2.959 3.006 2.959M154.81 300.858c1.937 0 3.507-1.545 3.507-3.452 0-1.909-1.57-3.453-3.507-3.453s-3.507 1.544-3.507 3.453c0 1.907 1.57 3.452 3.507 3.452M146.295 291.98c1.658 0 3.004-1.323 3.004-2.959 0-1.633-1.346-2.959-3.004-2.959-1.661 0-3.008 1.326-3.008 2.96 0 1.635 1.347 2.958 3.008 2.958M138.275 284.09c1.662 0 3.008-1.324 3.008-2.958 0-1.636-1.346-2.96-3.008-2.96-1.657 0-3.004 1.324-3.004 2.96 0 1.634 1.347 2.958 3.004 2.958M130.76 275.213c1.385 0 2.507-1.105 2.507-2.465 0-1.366-1.122-2.467-2.507-2.467-1.381 0-2.503 1.1-2.503 2.467 0 1.36 1.122 2.465 2.503 2.465M123.245 265.35c1.106 0 2.006-.884 2.006-1.973 0-1.09-.9-1.973-2.006-1.973-1.102 0-2.002.883-2.002 1.973s.9 1.972 2.002 1.972M117.235 256.472c1.106 0 2.004-.885 2.004-1.972 0-1.09-.898-1.973-2.004-1.973-1.106 0-2.004.883-2.004 1.973 0 1.087.898 1.972 2.004 1.972M111.225 246.609c1.107 0 2.002-.884 2.002-1.973 0-1.09-.895-1.973-2.002-1.973-1.107 0-2.006.883-2.006 1.973 0 1.089.899 1.973 2.006 1.973M105.714 235.759c.827 0 1.5-.663 1.5-1.48 0-.814-.673-1.479-1.5-1.479-.83 0-1.505.665-1.505 1.48 0 .816.674 1.479 1.505 1.479M100.702 224.91a1.49 1.49 0 0 0 1.503-1.48c0-.817-.673-1.48-1.503-1.48-.83 0-1.503.663-1.503 1.48a1.49 1.49 0 0 0 1.503 1.48M97.195 214.06a.996.996 0 0 0 1.002-.988.994.994 0 0 0-1.002-.985.994.994 0 0 0-1.002.985c0 .545.45.988 1.002.988M93.686 203.21a1.49 1.49 0 0 0 1.505-1.48c0-.816-.672-1.48-1.505-1.48-.83 0-1.501.664-1.501 1.48 0 .82.672 1.48 1.5 1.48M90.18 192.303a.937.937 0 0 0 .945-.931.937.937 0 0 0-.944-.927.934.934 0 0 0-.944.927c0 .515.419.93.944.93M88.175 180.468c.525 0 .948-.42.948-.933a.937.937 0 0 0-.948-.928.937.937 0 0 0-.944.928.94.94 0 0 0 .944.933M87.175 169.66c.547 0 .99-.436.99-.974a.979.979 0 0 0-.99-.97.981.981 0 0 0-.99.97c0 .538.447.974.99.974M86.173 157.782a.938.938 0 0 0 .944-.933.937.937 0 0 0-.944-.927.937.937 0 0 0-.944.927c0 .517.423.933.944.933M86.173 145.858a.847.847 0 0 0 .853-.844c0-.462-.38-.84-.853-.84a.848.848 0 0 0-.854.84c0 .467.38.844.854.844M87.175 134.83a.666.666 0 0 0 .673-.664.669.669 0 0 0-.673-.665.67.67 0 0 0-.674.665c0 .369.301.665.674.665M88.175 123.039c.399 0 .72-.32.72-.71a.712.712 0 0 0-.72-.708.711.711 0 0 0-.716.708c0 .39.32.71.716.71M90.183 112.144a.669.669 0 0 0 .673-.665c0-.365-.3-.663-.673-.663a.672.672 0 0 0-.678.663c0 .367.305.665.678.665M93.189 101.294a.667.667 0 0 0 .673-.665c0-.365-.3-.663-.673-.663a.67.67 0 0 0-.678.663.67.67 0 0 0 .678.665M97.195 90.223c.25 0 .45-.2.45-.445s-.2-.44-.45-.44a.446.446 0 0 0-.451.44c0 .244.204.445.45.445M101.203 79.462a.538.538 0 0 0 .54-.532.538.538 0 0 0-.54-.53.538.538 0 0 0-.541.53c0 .294.244.532.54.532M105.213 68.879a.804.804 0 0 0 .805-.797.802.802 0 0 0-.805-.799.803.803 0 0 0-.81.799c0 .438.363.797.81.797M111.22 58.614a.403.403 0 0 0 .408-.396.403.403 0 0 0-.407-.397.4.4 0 0 0-.403.397.4.4 0 0 0 .403.396M117.237 48.753c.222 0 .403-.18.403-.399a.4.4 0 0 0-.403-.398.404.404 0 0 0-.407.398c0 .22.184.399.407.399M123.245 38.624c.078 0 .136-.057.136-.13a.135.135 0 0 0-.136-.136.136.136 0 0 0-.132.136c0 .073.062.13.132.13M130.261 29.791a.18.18 0 0 0 .18-.177.18.18 0 0 0-.36 0c0 .096.078.177.18.177M486.974 173.886c.148 0 .274-.12.274-.268a.272.272 0 0 0-.274-.265.268.268 0 0 0-.27.265.27.27 0 0 0 .27.268M484.974 185.853a.399.399 0 0 0 .403-.398.4.4 0 0 0-.403-.397.403.403 0 0 0-.407.397c0 .223.184.398.407.398M482.966 196.614a.312.312 0 0 0 .317-.308c0-.171-.14-.31-.317-.31a.311.311 0 0 0-.313.31c0 .17.14.308.313.308M479.962 207.687a.538.538 0 0 0 .54-.533.538.538 0 0 0-.54-.53.538.538 0 0 0-.541.53c0 .294.244.533.54.533M475.952 219.978a.996.996 0 0 0 1.004-.988.995.995 0 0 0-1.004-.985c-.552 0-1 .44-1 .985 0 .547.448.988 1 .988M472.447 230.827c.83 0 1.503-.663 1.503-1.478 0-.82-.672-1.48-1.503-1.48a1.49 1.49 0 0 0-1.503 1.48c0 .815.672 1.478 1.503 1.478M467.437 240.69c.828 0 1.503-.66 1.503-1.478 0-.817-.675-1.48-1.503-1.48-.832 0-1.503.663-1.503 1.48a1.49 1.49 0 0 0 1.503 1.479M462.429 252.527c1.385 0 2.503-1.105 2.503-2.465 0-1.362-1.118-2.467-2.503-2.467-1.39 0-2.507 1.105-2.507 2.467 0 1.36 1.117 2.465 2.507 2.465M455.916 260.418c.548 0 1-.442 1-.99a.995.995 0 0 0-1-.983.996.996 0 0 0-1.004.983c0 .548.451.99 1.004.99M449.903 270.281c.554 0 1-.44 1-.988a.992.992 0 0 0-1-.985.995.995 0 0 0-1.003.985c0 .548.45.988 1.003.988M442.888 278.88c.398 0 .719-.317.719-.707 0-.393-.32-.71-.72-.71a.716.716 0 0 0-.719.71c0 .39.325.708.72.708M434.873 288.035c.554 0 1-.441 1-.987a.993.993 0 0 0-1-.986.996.996 0 0 0-1.004.986c0 .546.45.987 1.004.987M427.356 296.912a1.49 1.49 0 0 0 1.503-1.48c0-.818-.67-1.479-1.503-1.479-.828 0-1.503.661-1.503 1.48 0 .816.675 1.48 1.503 1.48M418.838 303.817a.993.993 0 0 0 1.003-.988.994.994 0 0 0-1.003-.985.992.992 0 0 0-1 .985c0 .548.445.988 1 .988M409.82 312.694c1.109 0 2.005-.883 2.005-1.971 0-1.092-.896-1.975-2.006-1.975-1.105 0-2.002.883-2.002 1.975 0 1.088.897 1.97 2.002 1.97M400.803 319.598c1.105 0 2.004-.883 2.004-1.974 0-1.089-.9-1.971-2.004-1.971s-2.004.882-2.004 1.97c0 1.092.9 1.975 2.004 1.975M390.783 325.516c1.108 0 2.004-.882 2.004-1.973 0-1.088-.896-1.972-2.004-1.972s-2.004.884-2.004 1.972c0 1.09.896 1.973 2.004 1.973M381.262 332.42c1.384 0 2.507-1.104 2.507-2.464 0-1.363-1.123-2.467-2.507-2.467-1.38 0-2.503 1.104-2.503 2.467 0 1.36 1.123 2.464 2.503 2.464M370.741 338.339c1.659 0 3.008-1.324 3.008-2.96 0-1.633-1.349-2.959-3.008-2.959s-3.004 1.326-3.004 2.959c0 1.636 1.345 2.96 3.004 2.96M360.222 342.284c1.382 0 2.505-1.103 2.505-2.467 0-1.36-1.123-2.465-2.505-2.465s-2.505 1.105-2.505 2.465c0 1.364 1.123 2.467 2.505 2.467M349.202 346.23c1.38 0 2.503-1.104 2.503-2.466 0-1.364-1.122-2.466-2.503-2.466-1.385 0-2.507 1.102-2.507 2.466 0 1.362 1.122 2.465 2.507 2.465M338.174 350.175c1.388 0 2.509-1.104 2.509-2.464 0-1.362-1.12-2.468-2.51-2.468-1.38 0-2.5 1.106-2.5 2.468 0 1.36 1.12 2.464 2.5 2.464M327.157 352.147c1.383 0 2.504-1.104 2.504-2.465 0-1.36-1.121-2.466-2.504-2.466-1.385 0-2.506 1.105-2.506 2.466 0 1.361 1.12 2.465 2.506 2.465M315.132 355.106c1.382 0 2.505-1.102 2.505-2.466 0-1.361-1.123-2.465-2.505-2.465-1.383 0-2.505 1.104-2.505 2.465 0 1.364 1.122 2.466 2.505 2.466M304.11 356.093c1.382 0 2.504-1.104 2.504-2.466s-1.122-2.466-2.505-2.466c-1.382 0-2.505 1.104-2.505 2.466s1.123 2.466 2.505 2.466M292.582 358.065c1.663 0 3.01-1.324 3.01-2.959 0-1.633-1.347-2.959-3.01-2.959-1.659 0-3.002 1.326-3.002 2.96s1.343 2.958 3.002 2.958M280.564 358.065c1.658 0 3.004-1.324 3.004-2.96 0-1.633-1.346-2.958-3.004-2.958-1.662 0-3.008 1.325-3.008 2.958 0 1.636 1.346 2.96 3.008 2.96M269.538 358.065c1.663 0 3.008-1.323 3.008-2.959 0-1.633-1.345-2.959-3.008-2.959-1.658 0-3.004 1.326-3.004 2.96 0 1.635 1.346 2.958 3.004 2.958M257.516 357.079c1.66 0 3.006-1.322 3.006-2.96 0-1.632-1.347-2.958-3.006-2.958-1.66 0-3.006 1.326-3.006 2.958 0 1.638 1.347 2.96 3.006 2.96M245.991 356.093c1.937 0 3.509-1.548 3.509-3.453 0-1.904-1.572-3.452-3.509-3.452-1.937 0-3.505 1.548-3.505 3.452 0 1.905 1.568 3.453 3.505 3.453M234.472 353.134c1.659 0 3.004-1.324 3.004-2.96 0-1.634-1.345-2.958-3.004-2.958-1.663 0-3.008 1.324-3.008 2.959s1.345 2.959 3.008 2.959M223.45 350.175c1.66 0 3.004-1.326 3.004-2.96 0-1.633-1.343-2.958-3.004-2.958-1.662 0-3.008 1.325-3.008 2.959 0 1.633 1.346 2.959 3.008 2.959M212.422 346.23c1.662 0 3.01-1.327 3.01-2.962 0-1.634-1.348-2.957-3.01-2.957-1.658 0-3.002 1.323-3.002 2.957 0 1.635 1.344 2.961 3.002 2.961M201.404 342.284c1.658 0 3.006-1.324 3.006-2.96 0-1.634-1.348-2.958-3.006-2.958-1.658 0-3.006 1.324-3.006 2.957 0 1.637 1.348 2.96 3.006 2.96M190.883 338.339c1.937 0 3.507-1.545 3.507-3.454 0-1.907-1.57-3.45-3.507-3.45-1.938 0-3.507 1.543-3.507 3.45 0 1.91 1.569 3.454 3.507 3.454M180.864 333.407c1.935 0 3.505-1.545 3.505-3.452 0-1.908-1.57-3.453-3.505-3.453-1.939 0-3.509 1.545-3.509 3.453 0 1.907 1.57 3.452 3.51 3.452M170.842 327.489c1.94 0 3.507-1.546 3.507-3.452 0-1.907-1.566-3.453-3.507-3.453-1.936 0-3.507 1.546-3.507 3.453 0 1.906 1.57 3.452 3.507 3.452M160.321 320.584c1.663 0 3.006-1.324 3.006-2.96 0-1.632-1.343-2.958-3.006-2.958-1.658 0-3.006 1.326-3.006 2.958 0 1.636 1.348 2.96 3.006 2.96M151.806 313.68c1.937 0 3.505-1.546 3.505-3.451 0-1.91-1.568-3.453-3.505-3.453-1.937 0-3.509 1.544-3.509 3.453 0 1.905 1.572 3.451 3.51 3.451M142.786 306.776c1.937 0 3.507-1.547 3.507-3.452 0-1.908-1.57-3.453-3.507-3.453s-3.507 1.545-3.507 3.453c0 1.905 1.57 3.452 3.507 3.452M133.77 298.885c1.932 0 3.505-1.544 3.505-3.453 0-1.907-1.573-3.452-3.505-3.452-1.936 0-3.509 1.545-3.509 3.452 0 1.909 1.573 3.453 3.509 3.453M125.75 290.994c1.942 0 3.509-1.547 3.509-3.452 0-1.907-1.567-3.452-3.509-3.452-1.934 0-3.505 1.545-3.505 3.452 0 1.905 1.57 3.452 3.505 3.452M118.237 281.13c1.658 0 3.006-1.323 3.006-2.957 0-1.636-1.348-2.96-3.006-2.96-1.661 0-3.006 1.324-3.006 2.96 0 1.634 1.345 2.958 3.006 2.958M111.223 272.254c1.661 0 3.006-1.326 3.006-2.961 0-1.632-1.345-2.957-3.006-2.957-1.658 0-3.006 1.325-3.006 2.957 0 1.635 1.348 2.96 3.006 2.96M105.213 262.39c1.659 0 3.004-1.323 3.004-2.96 0-1.632-1.345-2.958-3.004-2.958-1.663 0-3.008 1.326-3.008 2.958 0 1.637 1.345 2.96 3.008 2.96M99.196 251.54c1.109 0 2.007-.882 2.007-1.973 0-1.09-.898-1.972-2.007-1.972-1.105 0-2.001.883-2.001 1.972 0 1.091.896 1.973 2.001 1.973M93.686 241.677c1.383 0 2.507-1.103 2.507-2.464 0-1.363-1.124-2.468-2.507-2.468-1.384 0-2.503 1.105-2.503 2.468 0 1.361 1.12 2.464 2.503 2.464M89.68 231.814c1.384 0 2.505-1.104 2.505-2.464 0-1.362-1.12-2.468-2.505-2.468-1.385 0-2.505 1.106-2.505 2.468 0 1.36 1.12 2.464 2.505 2.464M85.169 220.964c1.106 0 2.006-.884 2.006-1.972 0-1.09-.9-1.973-2.006-1.973-1.107 0-2.002.884-2.002 1.973 0 1.088.895 1.972 2.002 1.972M81.16 209.128c1.106 0 2.007-.882 2.007-1.973 0-1.089-.9-1.973-2.006-1.973-1.11 0-2.002.884-2.002 1.973 0 1.09.893 1.973 2.002 1.973M78.66 198.278a1.49 1.49 0 0 0 1.5-1.48 1.49 1.49 0 0 0-1.5-1.479c-.83 0-1.505.662-1.505 1.48 0 .816.675 1.479 1.505 1.479M76.654 186.442c.827 0 1.503-.664 1.503-1.482 0-.816-.676-1.477-1.503-1.477-.828 0-1.503.661-1.503 1.477 0 .818.675 1.482 1.503 1.482M74.652 175.592c.827 0 1.5-.663 1.5-1.481 0-.815-.673-1.478-1.5-1.478-.832 0-1.505.663-1.505 1.478 0 .818.673 1.481 1.505 1.481M73.65 163.756c.829 0 1.5-.663 1.5-1.48a1.49 1.49 0 0 0-1.5-1.479c-.833 0-1.505.663-1.505 1.479 0 .817.672 1.48 1.505 1.48M73.646 152.906c.831 0 1.505-.661 1.505-1.48 0-.817-.674-1.479-1.505-1.479a1.49 1.49 0 0 0-1.501 1.48c0 .818.673 1.48 1.5 1.48M74.15 141.07a.993.993 0 0 0 1-.985.996.996 0 0 0-1-.987.995.995 0 0 0-1.003.987c0 .546.448.985 1.002.985M75.15 129.234a.994.994 0 0 0 1.003-.988.992.992 0 0 0-1.002-.985.992.992 0 0 0-1.002.985c0 .545.446.988 1.002.988M76.153 118.384a.993.993 0 0 0 1.002-.987.992.992 0 0 0-1.002-.985.994.994 0 0 0-1.002.985c0 .546.45.987 1.002.987M78.157 106.36c.447 0 .81-.36.81-.797a.805.805 0 0 0-.81-.799c-.451 0-.81.359-.81.799 0 .438.359.797.81.797M81.163 95.687c.543 0 .99-.436.99-.975a.983.983 0 0 0-.99-.974.98.98 0 0 0-.99.974c0 .539.443.975.99.975M85.17 84.437a.58.58 0 0 0 .584-.574.58.58 0 0 0-.583-.576.578.578 0 0 0-.583.576c0 .318.258.574.583.574M89.177 73.454c.25 0 .45-.198.45-.442 0-.245-.2-.44-.45-.44a.443.443 0 0 0-.447.44c0 .244.2.442.447.442M94.187 62.739a.581.581 0 0 0 .587-.574.582.582 0 0 0-.587-.578.581.581 0 0 0-.583.578.58.58 0 0 0 .583.574M99.197 52.876a.582.582 0 0 0 .587-.576.58.58 0 0 0-.587-.577.58.58 0 0 0-.583.577.58.58 0 0 0 .583.576M105.213 42.613a.18.18 0 0 0 .18-.178.178.178 0 0 0-.18-.175.179.179 0 0 0-.185.175.18.18 0 0 0 .185.178M111.22 33.603c.029 0 .047-.02.047-.041 0-.028-.018-.047-.046-.047-.024 0-.042.02-.042.047 0 .022.018.041.042.041" fill="#569C48"/>
        <g transform="translate(494.992 195.319)">
            <mask id="s37je39tsd" fill="#fff">
                <use xlink:href="#nws6y6rwzc"/>
            </mask>
            <path d="M1.274 1.43c.25 0 .455-.202.455-.445a.447.447 0 0 0-.455-.442.443.443 0 1 0 0 .886" fill="#569C48" mask="url(#s37je39tsd)"/>
        </g>
        <path d="M492.988 208.54c.222 0 .403-.18.403-.399a.401.401 0 0 0-.403-.398.401.401 0 0 0-.403.398c0 .22.18.399.403.399M489.984 219.258a.266.266 0 1 0 0-.533.27.27 0 0 0-.27.268.27.27 0 0 0 .27.265M485.976 230.106a.27.27 0 0 0 .27-.266.268.268 0 0 0-.27-.264.272.272 0 0 0-.275.264c0 .146.127.266.275.266M481.465 241.677a1.49 1.49 0 0 0 1.503-1.478c0-.818-.672-1.481-1.503-1.481-.831 0-1.503.663-1.503 1.481a1.49 1.49 0 0 0 1.503 1.478M476.453 252.527c1.385 0 2.507-1.104 2.507-2.467 0-1.359-1.122-2.465-2.507-2.465-1.381 0-2.503 1.106-2.503 2.465 0 1.363 1.122 2.467 2.503 2.467M470.942 262.39c1.107 0 2.006-.881 2.006-1.97 0-1.094-.9-1.975-2.006-1.975-1.107 0-2.002.881-2.002 1.974 0 1.09.895 1.971 2.002 1.971M464.93 272.254c1.11 0 2.006-.883 2.006-1.973 0-1.091-.895-1.973-2.006-1.973-1.103 0-2.002.882-2.002 1.973 0 1.09.899 1.973 2.002 1.973M457.916 280.144a.996.996 0 0 0 1.004-.986.996.996 0 0 0-1.004-.986c-.553 0-1 .442-1 .986s.447.986 1 .986M451.405 290.008a1.49 1.49 0 0 0 1.503-1.479c0-.82-.673-1.48-1.503-1.48a1.49 1.49 0 0 0-1.503 1.48 1.49 1.49 0 0 0 1.503 1.479M443.389 298.885c.83 0 1.503-.663 1.503-1.48a1.49 1.49 0 0 0-1.503-1.48 1.49 1.49 0 0 0-1.503 1.48c0 .817.672 1.48 1.503 1.48M435.374 306.776c.831 0 1.502-.661 1.502-1.478a1.49 1.49 0 0 0-1.502-1.481 1.49 1.49 0 0 0-1.505 1.48c0 .818.67 1.479 1.505 1.479M426.854 315.653c1.109 0 2.005-.886 2.005-1.973 0-1.09-.896-1.973-2.005-1.973-1.106 0-2.003.884-2.003 1.973 0 1.087.897 1.973 2.003 1.973M417.837 323.543c1.663 0 3.006-1.324 3.006-2.959 0-1.634-1.343-2.959-3.006-2.959-1.658 0-3.006 1.325-3.006 2.96 0 1.634 1.348 2.958 3.006 2.958M408.82 330.448c1.662 0 3.005-1.323 3.005-2.96 0-1.634-1.343-2.958-3.006-2.958-1.658 0-3.006 1.324-3.006 2.959 0 1.636 1.348 2.959 3.006 2.959M398.8 337.352c1.657 0 3.005-1.325 3.005-2.96 0-1.634-1.348-2.958-3.006-2.958-1.661 0-3.006 1.324-3.006 2.958 0 1.635 1.345 2.96 3.006 2.96M388.777 343.27c1.662 0 3.008-1.323 3.008-2.959 0-1.633-1.346-2.959-3.008-2.959-1.661 0-3.004 1.326-3.004 2.96 0 1.635 1.343 2.958 3.004 2.958M379.258 348.202c1.94 0 3.51-1.548 3.51-3.451 0-1.908-1.57-3.453-3.51-3.453-1.938 0-3.505 1.545-3.505 3.453 0 1.903 1.567 3.451 3.505 3.451M368.236 353.134c1.94 0 3.509-1.545 3.509-3.452 0-1.908-1.57-3.453-3.509-3.453-1.938 0-3.505 1.545-3.505 3.453 0 1.907 1.567 3.452 3.505 3.452M357.216 358.065c1.938 0 3.507-1.545 3.507-3.453 0-1.905-1.569-3.451-3.507-3.451-1.934 0-3.507 1.546-3.507 3.451 0 1.908 1.573 3.453 3.507 3.453M346.694 362.01c2.216 0 4.009-1.765 4.009-3.945 0-2.18-1.793-3.945-4.01-3.945-2.211 0-4.006 1.766-4.006 3.945 0 2.18 1.795 3.946 4.007 3.946M335.172 364.97c1.939 0 3.507-1.546 3.507-3.452 0-1.909-1.568-3.453-3.507-3.453-1.936 0-3.507 1.544-3.507 3.453 0 1.906 1.571 3.452 3.507 3.452M324.146 366.942c1.938 0 3.51-1.545 3.51-3.45 0-1.906-1.572-3.454-3.51-3.454-1.935 0-3.503 1.548-3.503 3.453 0 1.906 1.568 3.451 3.503 3.451M312.628 368.915c1.66 0 3.005-1.324 3.005-2.958 0-1.632-1.346-2.96-3.005-2.96-1.662 0-3.008 1.328-3.008 2.96 0 1.634 1.346 2.958 3.008 2.958M301.107 370.888c1.937 0 3.503-1.546 3.503-3.452 0-1.907-1.566-3.453-3.503-3.453-1.938 0-3.51 1.546-3.51 3.453 0 1.906 1.572 3.452 3.51 3.452M289.077 370.888c1.94 0 3.51-1.545 3.51-3.452 0-1.906-1.57-3.453-3.51-3.453-1.935 0-3.505 1.547-3.505 3.453 0 1.907 1.57 3.452 3.505 3.452M278.06 371.874c1.935 0 3.504-1.547 3.504-3.452s-1.57-3.452-3.505-3.452c-1.94 0-3.509 1.547-3.509 3.452s1.57 3.452 3.51 3.452M266.035 370.888c1.937 0 3.505-1.546 3.505-3.453 0-1.906-1.568-3.452-3.505-3.452-1.937 0-3.509 1.546-3.509 3.452 0 1.907 1.572 3.453 3.509 3.453M255.013 369.901c1.935 0 3.505-1.546 3.505-3.452s-1.57-3.452-3.505-3.452c-1.934 0-3.509 1.546-3.509 3.452s1.575 3.452 3.51 3.452M243.488 367.929c1.66 0 3.006-1.325 3.006-2.96 0-1.633-1.346-2.958-3.006-2.958-1.66 0-3.006 1.325-3.006 2.958 0 1.635 1.346 2.96 3.006 2.96M231.963 365.956c1.938 0 3.509-1.545 3.509-3.45 0-1.909-1.57-3.454-3.509-3.454-1.938 0-3.505 1.545-3.505 3.454 0 1.905 1.567 3.45 3.505 3.45M220.442 363.983c2.211 0 4.008-1.765 4.008-3.947 0-2.178-1.797-3.943-4.008-3.943-2.215 0-4.008 1.765-4.008 3.943 0 2.182 1.793 3.947 4.008 3.947M208.917 360.038c1.937 0 3.509-1.545 3.509-3.451 0-1.906-1.572-3.453-3.51-3.453-1.936 0-3.504 1.547-3.504 3.453s1.568 3.451 3.505 3.451M198.897 356.093c1.94 0 3.509-1.546 3.509-3.453 0-1.908-1.57-3.452-3.51-3.452-1.936 0-3.504 1.544-3.504 3.452 0 1.907 1.568 3.453 3.505 3.453M187.877 351.161c1.939 0 3.507-1.546 3.507-3.453 0-1.906-1.568-3.451-3.507-3.451-1.936 0-3.508 1.545-3.508 3.45 0 1.908 1.572 3.454 3.508 3.454M177.856 346.23c1.937 0 3.507-1.548 3.507-3.452 0-1.908-1.57-3.453-3.507-3.453s-3.507 1.545-3.507 3.453c0 1.904 1.57 3.451 3.507 3.451M167.335 341.298c2.216 0 4.008-1.767 4.008-3.944 0-2.18-1.792-3.947-4.008-3.947-2.212 0-4.008 1.767-4.008 3.947 0 2.177 1.796 3.944 4.008 3.944M157.315 334.393c2.213 0 4.008-1.765 4.008-3.946 0-2.18-1.795-3.945-4.008-3.945-2.216 0-4.008 1.766-4.008 3.945 0 2.181 1.792 3.946 4.008 3.946M148.297 328.475c2.213 0 4.008-1.766 4.008-3.946s-1.795-3.945-4.008-3.945c-2.212 0-4.008 1.765-4.008 3.945 0 2.18 1.796 3.946 4.008 3.946M138.778 320.584c1.937 0 3.507-1.544 3.507-3.45 0-1.91-1.57-3.454-3.507-3.454s-3.507 1.544-3.507 3.453c0 1.907 1.57 3.451 3.507 3.451M129.76 312.694c1.937 0 3.507-1.546 3.507-3.453 0-1.906-1.57-3.452-3.507-3.452s-3.507 1.546-3.507 3.452c0 1.907 1.57 3.453 3.507 3.453M121.744 304.803c1.937 0 3.507-1.544 3.507-3.452 0-1.907-1.57-3.452-3.507-3.452-1.933 0-3.507 1.545-3.507 3.452 0 1.908 1.574 3.452 3.507 3.452M113.728 295.926c1.937 0 3.507-1.545 3.507-3.453 0-1.909-1.57-3.452-3.507-3.452s-3.507 1.543-3.507 3.452c0 1.908 1.57 3.453 3.507 3.453M106.714 287.049c1.935 0 3.507-1.546 3.507-3.452 0-1.907-1.572-3.453-3.507-3.453-1.94 0-3.507 1.546-3.507 3.453 0 1.906 1.568 3.452 3.507 3.452M100.2 278.172c1.663 0 3.007-1.323 3.007-2.96 0-1.632-1.344-2.958-3.006-2.958-1.663 0-3.006 1.326-3.006 2.959 0 1.636 1.343 2.959 3.006 2.959M93.185 268.308c1.664 0 3.008-1.326 3.008-2.959 0-1.636-1.344-2.959-3.008-2.959-1.66 0-3.004 1.323-3.004 2.96 0 1.632 1.344 2.958 3.004 2.958M87.175 258.445c1.658 0 3.006-1.325 3.006-2.958 0-1.637-1.348-2.96-3.006-2.96-1.663 0-3.006 1.323-3.006 2.96 0 1.633 1.343 2.958 3.006 2.958M82.167 247.595c1.103 0 2.002-.881 2.002-1.97 0-1.092-.9-1.975-2.002-1.975-1.107 0-2.006.883-2.006 1.974 0 1.09.899 1.971 2.006 1.971M77.153 236.745c1.109 0 2.006-.882 2.006-1.97 0-1.089-.897-1.975-2.006-1.975-1.106 0-2.002.886-2.002 1.974 0 1.089.896 1.971 2.002 1.971M73.65 225.896a1.49 1.49 0 0 0 1.5-1.479c0-.82-.67-1.48-1.5-1.48s-1.505.66-1.505 1.48c0 .817.674 1.479 1.504 1.479M69.64 215.046a1.49 1.49 0 0 0 1.503-1.48 1.49 1.49 0 0 0-1.503-1.48 1.49 1.49 0 0 0-1.503 1.48c0 .818.67 1.48 1.503 1.48M67.137 203.21c.553 0 1-.441 1-.986a.993.993 0 0 0-1-.987.995.995 0 0 0-1.004.987c0 .545.446.986 1.004.986M64.128 192.36a.994.994 0 0 0 1.003-.986.994.994 0 0 0-1.003-.987.995.995 0 0 0-1.001.987c0 .545.45.986 1 .986M62.627 181.51a1.49 1.49 0 0 0 1.502-1.48c0-.82-.672-1.479-1.502-1.479s-1.505.66-1.505 1.479c0 .817.676 1.48 1.505 1.48M61.122 169.674a.994.994 0 0 0 1.002-.987.993.993 0 0 0-1.002-.986.993.993 0 0 0-1.002.986c0 .545.448.987 1.002.987M60.12 157.838a.994.994 0 0 0 1.002-.988.993.993 0 0 0-1.002-.985.994.994 0 0 0-1.002.985c0 .547.45.988 1.002.988M60.119 146.002a.996.996 0 0 0 1.003-.988.994.994 0 0 0-1.003-.985c-.554 0-1 .44-1 .985 0 .546.446.988 1 .988M61.122 135.14c.548 0 .99-.436.99-.972a.984.984 0 0 0-.99-.977.986.986 0 0 0-.99.977c0 .536.447.972.99.972M62.124 123.316a.994.994 0 0 0 1.003-.985.994.994 0 0 0-1.003-.988.994.994 0 0 0-1.002.988c0 .544.45.985 1.002.985M64.127 112.466a.993.993 0 0 0 1.004-.986.993.993 0 0 0-1.004-.986c-.549 0-1 .44-1 .986 0 .547.451.986 1 .986M67.139 100.308c.368 0 .669-.296.669-.665 0-.365-.3-.663-.67-.663a.67.67 0 0 0-.677.663.67.67 0 0 0 .678.665M70.139 89.458a.67.67 0 0 0 .677-.665.67.67 0 0 0-.677-.663.668.668 0 0 0-.674.663c0 .37.3.665.674.665M73.149 78.608a.669.669 0 0 0 .673-.665c0-.365-.3-.662-.673-.662a.672.672 0 0 0-.678.662c0 .367.305.665.678.665M77.153 67.405a.312.312 0 0 0 .316-.311c0-.17-.14-.31-.316-.31a.312.312 0 0 0-.313.31c0 .173.14.311.313.311" fill="#569C48"/>
        <g transform="translate(494.992 239.704)">
            <mask id="4xm1s9nntf" fill="#fff">
                <use xlink:href="#7hod9i0vke"/>
            </mask>
            <path d="M1.034 1.253c.148 0 .275-.12.275-.267A.273.273 0 0 0 1.034.72a.27.27 0 0 0-.27.266.27.27 0 0 0 .27.267" fill="#569C48" mask="url(#4xm1s9nntf)"/>
        </g>
        <path d="M490.986 250.864a.31.31 0 1 0 0-.62.31.31 0 0 0-.317.308c0 .172.14.312.317.312M485.974 261.581c.098 0 .18-.076.18-.177a.18.18 0 0 0-.36 0c0 .1.078.177.18.177M479.962 272.254a.995.995 0 0 0 1.002-.987.994.994 0 0 0-1.002-.986.994.994 0 0 0-1.002.986c0 .544.448.987 1.002.987M472.947 280.676a.54.54 0 0 0 .543-.533.54.54 0 0 0-.543-.53.538.538 0 0 0-.541.53c0 .294.244.533.54.533M466.934 291.98c1.108 0 2.006-.884 2.006-1.972 0-1.09-.898-1.973-2.006-1.973-1.108 0-2.002.883-2.002 1.973 0 1.088.894 1.972 2.002 1.972M458.922 300.858c1.108 0 2.002-.884 2.002-1.97a1.986 1.986 0 0 0-2.002-1.976c-1.109 0-2.006.883-2.006 1.976 0 1.086.897 1.97 2.006 1.97M451.405 309.735c1.384 0 2.505-1.105 2.505-2.467s-1.12-2.465-2.505-2.465c-1.385 0-2.505 1.103-2.505 2.465 0 1.362 1.12 2.467 2.505 2.467M443.389 317.625c1.38 0 2.505-1.104 2.505-2.467 0-1.362-1.125-2.464-2.505-2.464-1.384 0-2.505 1.102-2.505 2.464 0 1.363 1.12 2.467 2.505 2.467M434.871 326.502c1.66 0 3.007-1.324 3.007-2.96 0-1.635-1.348-2.958-3.007-2.958-1.662 0-3.006 1.323-3.006 2.958 0 1.636 1.344 2.96 3.006 2.96M426.356 333.407c1.381 0 2.503-1.103 2.503-2.466 0-1.361-1.122-2.466-2.503-2.466-1.385 0-2.507 1.105-2.507 2.466 0 1.363 1.122 2.466 2.507 2.466M417.338 341.298c1.936 0 3.505-1.546 3.505-3.455 0-1.904-1.57-3.45-3.505-3.45-1.935 0-3.509 1.546-3.509 3.45 0 1.909 1.574 3.455 3.51 3.455M406.813 347.216c1.66 0 3.008-1.324 3.008-2.96 0-1.633-1.347-2.958-3.008-2.958-1.66 0-3.004 1.325-3.004 2.959 0 1.635 1.344 2.959 3.004 2.959M397.294 353.134c1.937 0 3.51-1.547 3.51-3.453 0-1.905-1.573-3.452-3.51-3.452-1.933 0-3.505 1.547-3.505 3.452 0 1.906 1.572 3.453 3.505 3.453M387.274 359.052c1.94 0 3.51-1.548 3.51-3.454 0-1.907-1.57-3.45-3.51-3.45-1.937 0-3.505 1.543-3.505 3.45 0 1.906 1.568 3.454 3.505 3.454M376.254 363.983c1.938 0 3.507-1.544 3.507-3.45 0-1.908-1.569-3.454-3.507-3.454-1.938 0-3.507 1.546-3.507 3.453 0 1.907 1.569 3.451 3.507 3.451M366.234 367.929c1.937 0 3.507-1.544 3.507-3.453 0-1.908-1.57-3.452-3.507-3.452s-3.507 1.544-3.507 3.452c0 1.909 1.57 3.453 3.507 3.453M354.712 372.86c2.212 0 4.007-1.766 4.007-3.946 0-2.178-1.795-3.944-4.007-3.944-2.216 0-4.01 1.766-4.01 3.944 0 2.18 1.794 3.946 4.01 3.946M343.689 375.82c2.213 0 4.008-1.766 4.008-3.946s-1.795-3.945-4.008-3.945c-2.214 0-4.008 1.765-4.008 3.945 0 2.18 1.794 3.946 4.008 3.946M332.665 378.779c2.215 0 4.01-1.765 4.01-3.944 0-2.18-1.795-3.947-4.01-3.947-2.212 0-4.006 1.767-4.006 3.947 0 2.179 1.794 3.944 4.006 3.944M321.145 380.751c1.937 0 3.506-1.544 3.506-3.454 0-1.906-1.569-3.45-3.506-3.45-1.936 0-3.508 1.544-3.508 3.45 0 1.91 1.572 3.454 3.508 3.454M309.62 382.724c2.213 0 4.009-1.766 4.009-3.947 0-2.176-1.796-3.944-4.009-3.944-2.216 0-4.008 1.768-4.008 3.944 0 2.181 1.792 3.947 4.008 3.947M298.598 383.71c2.213 0 4.008-1.765 4.008-3.945 0-2.178-1.795-3.945-4.008-3.945-2.212 0-4.008 1.767-4.008 3.945 0 2.18 1.796 3.945 4.008 3.945M286.073 383.71c1.937 0 3.507-1.546 3.507-3.453 0-1.905-1.57-3.451-3.507-3.451s-3.507 1.546-3.507 3.451c0 1.907 1.57 3.453 3.507 3.453M274.552 384.697c2.215 0 4.006-1.766 4.006-3.946s-1.791-3.945-4.006-3.945c-2.214 0-4.01 1.765-4.01 3.945 0 2.18 1.796 3.946 4.01 3.946M263.528 383.71c2.216 0 4.008-1.766 4.008-3.946s-1.792-3.944-4.008-3.944c-2.212 0-4.008 1.764-4.008 3.944 0 2.18 1.796 3.946 4.008 3.946M251.506 382.724c2.211 0 4.006-1.766 4.006-3.947 0-2.176-1.795-3.944-4.006-3.944-2.215 0-4.01 1.768-4.01 3.944 0 2.181 1.795 3.947 4.01 3.947M239.98 380.751c1.935 0 3.508-1.547 3.508-3.455 0-1.904-1.573-3.45-3.509-3.45-1.932 0-3.505 1.546-3.505 3.45 0 1.908 1.573 3.455 3.505 3.455M228.46 378.779c2.212 0 4.006-1.765 4.006-3.944 0-2.179-1.794-3.947-4.006-3.947-2.213 0-4.01 1.768-4.01 3.947 0 2.179 1.797 3.944 4.01 3.944M217.436 375.82c2.215 0 4.008-1.767 4.008-3.945 0-2.18-1.793-3.946-4.008-3.946-2.216 0-4.008 1.767-4.008 3.946 0 2.178 1.792 3.945 4.008 3.945M206.412 372.86c2.214 0 4.01-1.766 4.01-3.945s-1.796-3.945-4.01-3.945c-2.211 0-4.006 1.766-4.006 3.945s1.795 3.945 4.006 3.945M195.393 368.915c2.215 0 4.007-1.765 4.007-3.944 0-2.18-1.792-3.947-4.007-3.947-2.214 0-4.01 1.767-4.01 3.947s1.796 3.944 4.01 3.944M184.37 363.983c2.213 0 4.008-1.768 4.008-3.947 0-2.178-1.795-3.943-4.009-3.943-2.213 0-4.008 1.765-4.008 3.943 0 2.179 1.795 3.947 4.008 3.947M174.35 359.052c2.215 0 4.007-1.768 4.007-3.946 0-2.18-1.792-3.945-4.008-3.945-2.22 0-4.008 1.765-4.008 3.945 0 2.178 1.789 3.946 4.008 3.946M164.331 354.12c2.211 0 4.006-1.768 4.006-3.946 0-2.18-1.795-3.945-4.006-3.945-2.215 0-4.01 1.765-4.01 3.945 0 2.178 1.795 3.946 4.01 3.946M154.311 348.202c2.214 0 4.006-1.767 4.006-3.945 0-2.179-1.792-3.946-4.006-3.946-2.213 0-4.01 1.767-4.01 3.946 0 2.178 1.797 3.945 4.01 3.945M144.287 341.298c2.215 0 4.01-1.766 4.01-3.947 0-2.178-1.795-3.944-4.01-3.944-2.214 0-4.006 1.766-4.006 3.944 0 2.18 1.792 3.947 4.006 3.947M135.27 334.393c2.215 0 4.01-1.766 4.01-3.944 0-2.179-1.795-3.947-4.01-3.947-2.213 0-4.007 1.768-4.007 3.947 0 2.178 1.794 3.944 4.006 3.944M126.251 327.489c2.215 0 4.01-1.766 4.01-3.945 0-2.18-1.795-3.946-4.01-3.946s-4.006 1.766-4.006 3.946c0 2.179 1.791 3.945 4.006 3.945M117.734 318.612c1.94 0 3.509-1.546 3.509-3.453 0-1.908-1.569-3.452-3.509-3.452-1.936 0-3.505 1.544-3.505 3.452 0 1.907 1.569 3.453 3.505 3.453M109.718 310.721c1.937 0 3.509-1.546 3.509-3.454 0-1.906-1.572-3.45-3.509-3.45-1.936 0-3.505 1.544-3.505 3.45 0 1.908 1.569 3.454 3.505 3.454M102.206 302.83c2.212 0 4.007-1.765 4.007-3.945 0-2.182-1.795-3.945-4.007-3.945-2.216 0-4.01 1.763-4.01 3.945 0 2.18 1.794 3.945 4.01 3.945M95.19 293.953c2.212 0 4.009-1.765 4.009-3.944 0-2.18-1.797-3.947-4.008-3.947-2.215 0-4.008 1.768-4.008 3.947 0 2.179 1.793 3.944 4.008 3.944M88.179 284.09c2.212 0 4.006-1.769 4.006-3.946 0-2.176-1.794-3.945-4.006-3.945-2.213 0-4.01 1.769-4.01 3.945 0 2.177 1.797 3.946 4.01 3.946M81.662 274.226c1.936 0 3.509-1.545 3.509-3.454 0-1.904-1.573-3.45-3.51-3.45-1.936 0-3.504 1.546-3.504 3.45 0 1.909 1.568 3.454 3.505 3.454M76.154 264.363c1.658 0 3.005-1.325 3.005-2.958 0-1.633-1.347-2.96-3.005-2.96-1.664 0-3.007 1.327-3.007 2.96s1.343 2.958 3.007 2.958M70.139 252.527c1.11 0 2.006-.884 2.006-1.97 0-1.093-.896-1.976-2.006-1.976-1.103 0-2.002.883-2.002 1.975 0 1.087.899 1.97 2.002 1.97M65.632 241.677c.827 0 1.503-.662 1.503-1.48 0-.817-.676-1.479-1.503-1.479a1.49 1.49 0 0 0-1.503 1.479c0 .818.671 1.48 1.503 1.48M61.623 230.827c.828 0 1.504-.66 1.504-1.48 0-.816-.676-1.479-1.504-1.479a1.49 1.49 0 0 0-1.503 1.48c0 .818.672 1.48 1.503 1.48M57.614 219.978c.83 0 1.504-.662 1.504-1.48 0-.817-.674-1.48-1.504-1.48-.827 0-1.502.663-1.502 1.48 0 .818.675 1.48 1.502 1.48M54.61 209.128c.83 0 1.502-.667 1.502-1.48a1.49 1.49 0 0 0-1.503-1.48 1.49 1.49 0 0 0-1.503 1.48c0 .813.672 1.48 1.503 1.48M52.603 198.278c.832 0 1.505-.663 1.505-1.476 0-.818-.673-1.483-1.505-1.483-.827 0-1.5.665-1.5 1.483 0 .813.673 1.476 1.5 1.476M50.1 186.442a.994.994 0 0 0 1.002-.987.995.995 0 0 0-1.002-.986.997.997 0 0 0-1.002.986c0 .546.453.987 1.002.987M49.1 174.606a.994.994 0 0 0 1-.987.995.995 0 0 0-1-.986.994.994 0 0 0-1.004.986c0 .547.448.987 1.003.987M48.096 163.756a.994.994 0 0 0 1.002-.987.994.994 0 0 0-1.002-.986.994.994 0 0 0-1.002.986c0 .546.449.987 1.002.987M47.094 151.908c.543 0 .99-.436.99-.974a.984.984 0 0 0-.99-.975.984.984 0 0 0-.99.975c0 .538.447.974.99.974M48.094 141.013a.938.938 0 0 0 .948-.93.937.937 0 0 0-.948-.928.936.936 0 0 0-.944.929c0 .513.423.929.944.929M49.1 129.177a.939.939 0 0 0 .944-.931.935.935 0 0 0-.944-.927.936.936 0 0 0-.948.927.94.94 0 0 0 .948.93M50.1 118.196c.447 0 .81-.359.81-.797a.804.804 0 0 0-.81-.799.804.804 0 0 0-.81.799c0 .438.364.797.81.797M52.102 105.96c.223 0 .407-.18.407-.398a.405.405 0 0 0-.81 0c0 .219.181.398.403.398M58.114 83.907c.029 0 .047-.02.047-.046 0-.023-.018-.043-.047-.043a.042.042 0 0 0-.042.043c0 .026.018.046.042.046M493.99 271.312c.024 0 .046-.02.046-.044a.048.048 0 0 0-.046-.045.045.045 0 0 0-.046.045c0 .024.018.044.046.044M481.966 291.525a.538.538 0 0 0 .54-.533.536.536 0 0 0-.54-.529.536.536 0 0 0-.541.53c0 .293.244.532.54.532M474.954 300.18c.172 0 .312-.14.312-.31a.31.31 0 0 0-.312-.308.312.312 0 0 0-.317.307c0 .172.14.312.317.312M467.938 309.544c.447 0 .81-.355.81-.795a.802.802 0 0 0-.81-.797.8.8 0 0 0-.81.797.8.8 0 0 0 .81.795M459.918 318.421c.45 0 .813-.355.813-.793a.804.804 0 0 0-.813-.799.8.8 0 0 0-.806.8c0 .437.359.792.806.792M451.405 326.502c.826 0 1.503-.662 1.503-1.48s-.677-1.479-1.503-1.479a1.49 1.49 0 0 0-1.503 1.478c0 .819.672 1.481 1.503 1.481M442.89 335.38c1.104 0 2.002-.885 2.002-1.974s-.898-1.972-2.003-1.972c-1.108 0-2.005.883-2.005 1.972s.897 1.974 2.005 1.974M433.87 342.284c1.105 0 2.003-.883 2.003-1.974 0-1.088-.898-1.971-2.004-1.971-1.109 0-2.004.883-2.004 1.971 0 1.09.895 1.974 2.004 1.974M424.85 350.175c1.662 0 3.007-1.324 3.007-2.958 0-1.635-1.345-2.96-3.008-2.96-1.658 0-3.004 1.325-3.004 2.96 0 1.634 1.346 2.958 3.004 2.958M415.831 357.079c1.665 0 3.008-1.324 3.008-2.959 0-1.633-1.343-2.959-3.008-2.959-1.66 0-3.004 1.326-3.004 2.959 0 1.635 1.344 2.959 3.004 2.959M405.812 362.997c1.664 0 3.007-1.324 3.007-2.96 0-1.633-1.343-2.958-3.007-2.958-1.66 0-3.005 1.325-3.005 2.958 0 1.636 1.346 2.96 3.005 2.96M395.792 368.915c1.66 0 3.007-1.324 3.007-2.958 0-1.633-1.347-2.96-3.007-2.96-1.66 0-3.005 1.327-3.005 2.96 0 1.634 1.346 2.958 3.005 2.958M384.771 373.847c1.658 0 3.006-1.324 3.006-2.957 0-1.634-1.348-2.961-3.006-2.961-1.661 0-3.006 1.327-3.006 2.96 0 1.634 1.345 2.958 3.006 2.958M373.75 377.792c1.66 0 3.005-1.325 3.005-2.958 0-1.634-1.345-2.96-3.004-2.96-1.663 0-3.008 1.326-3.008 2.96 0 1.633 1.345 2.958 3.008 2.958M363.228 382.724c1.935 0 3.507-1.545 3.507-3.452 0-1.91-1.572-3.452-3.507-3.452-1.94 0-3.507 1.543-3.507 3.452 0 1.907 1.568 3.452 3.507 3.452M352.204 386.67c1.938 0 3.509-1.546 3.509-3.451 0-1.909-1.571-3.454-3.51-3.454-1.933 0-3.504 1.545-3.504 3.454 0 1.905 1.57 3.45 3.505 3.45M341.184 389.628c1.935 0 3.507-1.545 3.507-3.451 0-1.908-1.572-3.453-3.507-3.453-1.94 0-3.507 1.545-3.507 3.453 0 1.906 1.568 3.451 3.507 3.451M330.162 391.601c1.939 0 3.507-1.546 3.507-3.453 0-1.906-1.568-3.451-3.507-3.451-1.94 0-3.507 1.545-3.507 3.45 0 1.908 1.567 3.454 3.507 3.454M318.639 394.56c2.216 0 4.008-1.766 4.008-3.947 0-2.176-1.792-3.944-4.008-3.944-2.212 0-4.008 1.768-4.008 3.944 0 2.181 1.796 3.947 4.008 3.947M306.616 395.546c2.213 0 4.006-1.767 4.006-3.944 0-2.18-1.793-3.946-4.006-3.946-2.216 0-4.01 1.767-4.01 3.946 0 2.177 1.794 3.944 4.01 3.944M295.093 397.519c2.49 0 4.507-1.987 4.507-4.439 0-2.451-2.016-4.438-4.507-4.438-2.49 0-4.51 1.987-4.51 4.438 0 2.452 2.02 4.439 4.51 4.439M284.071 397.519c2.491 0 4.507-1.987 4.507-4.441 0-2.449-2.016-4.436-4.507-4.436-2.495 0-4.51 1.987-4.51 4.436 0 2.454 2.015 4.441 4.51 4.441M271.542 397.519c2.215 0 4.01-1.767 4.01-3.944 0-2.181-1.795-3.947-4.01-3.947-2.211 0-4.006 1.766-4.006 3.947 0 2.177 1.795 3.944 4.006 3.944M260.522 395.546c1.662 0 3.006-1.325 3.006-2.96 0-1.632-1.344-2.958-3.006-2.958-1.658 0-3.006 1.326-3.006 2.958 0 1.635 1.348 2.96 3.006 2.96M248.999 394.56c1.94 0 3.507-1.544 3.507-3.453 0-1.904-1.567-3.451-3.507-3.451-1.936 0-3.507 1.547-3.507 3.45 0 1.91 1.57 3.454 3.507 3.454M236.97 394.56c2.493 0 4.514-1.987 4.514-4.44 0-2.452-2.021-4.437-4.513-4.437-2.488 0-4.505 1.985-4.505 4.437 0 2.453 2.017 4.44 4.505 4.44M225.957 391.601c2.487 0 4.505-1.986 4.505-4.439 0-2.45-2.018-4.438-4.505-4.438-2.496 0-4.513 1.988-4.513 4.438 0 2.453 2.017 4.439 4.513 4.439M214.927 388.642c2.494 0 4.513-1.987 4.513-4.439 0-2.449-2.02-4.438-4.513-4.438-2.49 0-4.505 1.989-4.505 4.438 0 2.452 2.015 4.439 4.505 4.439M203.406 384.697c2.215 0 4.01-1.766 4.01-3.946 0-2.178-1.795-3.945-4.01-3.945-2.211 0-4.006 1.767-4.006 3.945 0 2.18 1.795 3.946 4.006 3.946M192.387 381.738c2.215 0 4.007-1.767 4.007-3.948 0-2.176-1.792-3.943-4.007-3.943-2.214 0-4.01 1.767-4.01 3.943 0 2.18 1.796 3.948 4.01 3.948M181.862 377.792c2.49 0 4.511-1.986 4.511-4.437 0-2.454-2.02-4.44-4.51-4.44-2.49 0-4.508 1.986-4.508 4.44 0 2.451 2.018 4.437 4.507 4.437M171.345 371.874c2.215 0 4.006-1.765 4.006-3.945 0-2.18-1.791-3.946-4.006-3.946-2.215 0-4.01 1.766-4.01 3.946s1.795 3.945 4.01 3.945M161.325 366.942c2.211 0 4.006-1.766 4.006-3.946 0-2.178-1.795-3.944-4.006-3.944-2.215 0-4.01 1.766-4.01 3.944 0 2.18 1.795 3.946 4.01 3.946M151.303 361.024c2.212 0 4.008-1.765 4.008-3.943s-1.796-3.947-4.008-3.947c-2.216 0-4.008 1.769-4.008 3.947s1.792 3.943 4.008 3.943M141.281 355.106c2.215 0 4.01-1.767 4.01-3.947 0-2.178-1.795-3.943-4.01-3.943-2.21 0-4.006 1.765-4.006 3.943 0 2.18 1.795 3.947 4.006 3.947M132.265 348.202c2.212 0 4.008-1.766 4.008-3.946 0-2.178-1.796-3.945-4.008-3.945-2.212 0-4.008 1.767-4.008 3.945 0 2.18 1.796 3.946 4.008 3.946M123.245 341.298c2.215 0 4.01-1.764 4.01-3.944 0-2.18-1.795-3.947-4.01-3.947-2.214 0-4.006 1.767-4.006 3.947s1.792 3.944 4.006 3.944M114.229 333.407c2.212 0 4.008-1.767 4.008-3.946 0-2.178-1.796-3.945-4.008-3.945-2.216 0-4.008 1.767-4.008 3.945 0 2.179 1.792 3.946 4.008 3.946M105.21 325.516c2.213 0 4.009-1.767 4.009-3.944 0-2.181-1.796-3.947-4.008-3.947-2.216 0-4.008 1.766-4.008 3.947 0 2.177 1.792 3.944 4.008 3.944M97.195 316.639c2.211 0 4.008-1.768 4.008-3.945 0-2.18-1.797-3.946-4.008-3.946-2.212 0-4.008 1.766-4.008 3.946 0 2.177 1.796 3.945 4.008 3.945M90.18 308.748c2.213 0 4.009-1.767 4.009-3.944 0-2.18-1.796-3.946-4.008-3.946-2.216 0-4.008 1.767-4.008 3.946 0 2.177 1.792 3.944 4.008 3.944M82.666 299.871c2.491 0 4.509-1.987 4.509-4.44 0-2.451-2.018-4.437-4.51-4.437-2.491 0-4.508 1.986-4.508 4.438s2.017 4.44 4.509 4.44M76.153 290.008c2.21 0 4.008-1.77 4.008-3.945 0-2.179-1.797-3.946-4.008-3.946-2.212 0-4.008 1.767-4.008 3.946 0 2.176 1.796 3.945 4.008 3.945M70.143 279.158c1.66 0 3.004-1.327 3.004-2.96 0-1.63-1.344-2.958-3.004-2.958s-3.008 1.327-3.008 2.958c0 1.633 1.347 2.96 3.008 2.96M64.634 269.295c1.384 0 2.5-1.101 2.5-2.461 0-1.364-1.116-2.471-2.5-2.471-1.385 0-2.51 1.107-2.51 2.47 0 1.361 1.125 2.462 2.51 2.462M58.617 258.445c1.385 0 2.505-1.105 2.505-2.467s-1.12-2.465-2.505-2.465c-1.384 0-2.505 1.103-2.505 2.465 0 1.362 1.121 2.467 2.505 2.467M54.61 247.595c.827 0 1.502-.664 1.502-1.48 0-.814-.675-1.479-1.503-1.479-.828 0-1.503.665-1.503 1.48s.675 1.48 1.503 1.48M49.6 236.745c.828 0 1.502-.663 1.502-1.482 0-.814-.674-1.477-1.503-1.477-.829 0-1.503.663-1.503 1.477 0 .82.674 1.482 1.503 1.482M45.591 225.896c.831 0 1.503-.664 1.503-1.48 0-.82-.672-1.48-1.503-1.48-.834 0-1.503.66-1.503 1.48 0 .816.669 1.48 1.503 1.48M42.585 215.046c.83 0 1.503-.664 1.503-1.481 0-.816-.674-1.478-1.503-1.478-.829 0-1.503.662-1.503 1.478 0 .817.674 1.48 1.503 1.48M40.58 204.196a1.49 1.49 0 0 0 1.504-1.478c0-.818-.67-1.48-1.505-1.48a1.49 1.49 0 0 0-1.5 1.48 1.49 1.49 0 0 0 1.5 1.478M37.575 192.36c.835 0 1.503-.663 1.503-1.479 0-.819-.668-1.48-1.503-1.48a1.49 1.49 0 0 0-1.503 1.48c0 .816.672 1.479 1.503 1.479M36.575 181.51c.83 0 1.501-.663 1.501-1.478a1.49 1.49 0 0 0-1.5-1.48c-.83 0-1.506.662-1.506 1.48 0 .815.676 1.478 1.505 1.478M35.57 169.674c.828 0 1.504-.661 1.504-1.477 0-.818-.676-1.482-1.505-1.482-.829 0-1.5.664-1.5 1.482a1.49 1.49 0 0 0 1.5 1.477M35.072 157.782a.937.937 0 0 0 .944-.93.94.94 0 0 0-.944-.93.943.943 0 0 0-.948.93c0 .514.427.93.948.93M35.07 145.813c.447 0 .81-.356.81-.797a.804.804 0 0 0-.81-.797.804.804 0 0 0-.81.797c0 .441.363.797.81.797M35.07 134.564c.223 0 .403-.18.403-.4a.401.401 0 0 0-.403-.397.401.401 0 0 0-.403.397c0 .22.18.4.403.4M36.074 122.464c.074 0 .133-.06.133-.132a.135.135 0 0 0-.133-.136.138.138 0 0 0-.136.136c0 .073.062.132.136.132M467.936 327.798a.312.312 0 0 0 .316-.31c0-.17-.14-.308-.316-.308a.31.31 0 0 0-.313.308c0 .171.14.31.313.31M450.904 343.98c.394 0 .72-.318.72-.709a.715.715 0 0 0-.72-.71.712.712 0 0 0-.72.71c0 .39.32.708.72.708M441.886 351.161a.995.995 0 0 0 1.002-.986.995.995 0 0 0-1.002-.987.995.995 0 0 0-1.002.987c0 .543.45.986 1.002.986M432.87 357.522a.443.443 0 1 0 0-.886c-.251 0-.451.195-.451.442 0 .245.2.444.45.444M423.348 365.956a1.49 1.49 0 0 0 1.503-1.479c0-.818-.672-1.48-1.503-1.48-.83 0-1.503.662-1.503 1.48a1.49 1.49 0 0 0 1.503 1.48M413.33 372.86c1.381 0 2.503-1.102 2.503-2.465 0-1.362-1.122-2.466-2.503-2.466-1.385 0-2.507 1.104-2.507 2.466 0 1.363 1.122 2.465 2.507 2.465M403.811 377.792c1.108 0 2.002-.882 2.002-1.972 0-1.09-.894-1.973-2.002-1.973-1.108 0-2.006.884-2.006 1.973 0 1.09.898 1.972 2.006 1.972M392.787 383.71c1.662 0 3.006-1.326 3.006-2.96s-1.344-2.958-3.006-2.958c-1.658 0-3.006 1.324-3.006 2.958 0 1.634 1.348 2.96 3.006 2.96M382.266 388.642c1.387 0 2.505-1.103 2.505-2.466 0-1.361-1.118-2.466-2.505-2.466-1.384 0-2.505 1.105-2.505 2.466 0 1.363 1.121 2.466 2.505 2.466M371.747 392.587c1.657 0 3.004-1.325 3.004-2.96 0-1.634-1.347-2.958-3.004-2.958-1.661 0-3.008 1.324-3.008 2.957 0 1.636 1.347 2.961 3.008 2.961M361.224 397.519c1.935 0 3.507-1.546 3.507-3.453 0-1.905-1.572-3.451-3.507-3.451-1.936 0-3.507 1.546-3.507 3.45 0 1.908 1.571 3.454 3.507 3.454M349.7 399.492c1.66 0 3.007-1.325 3.007-2.96 0-1.636-1.346-2.958-3.006-2.958-1.66 0-3.006 1.322-3.006 2.958 0 1.635 1.346 2.96 3.006 2.96M338.176 403.437c1.938 0 3.509-1.545 3.509-3.451 0-1.906-1.571-3.453-3.51-3.453-1.937 0-3.504 1.547-3.504 3.453s1.567 3.451 3.505 3.451M326.655 405.41c1.658 0 3.006-1.323 3.006-2.96 0-1.634-1.348-2.958-3.006-2.958-1.658 0-3.006 1.324-3.006 2.959 0 1.636 1.348 2.959 3.006 2.959M315.13 407.382c1.94 0 3.509-1.546 3.509-3.454 0-1.905-1.57-3.45-3.51-3.45-1.932 0-3.505 1.545-3.505 3.45 0 1.908 1.573 3.454 3.506 3.454M304.111 408.369c1.935 0 3.505-1.546 3.505-3.452 0-1.905-1.57-3.453-3.505-3.453-1.938 0-3.509 1.548-3.509 3.453 0 1.906 1.571 3.452 3.51 3.452M292.586 410.341c2.215 0 4.008-1.767 4.008-3.944 0-2.18-1.793-3.946-4.008-3.946-2.21 0-4.008 1.765-4.008 3.946 0 2.177 1.797 3.944 4.008 3.944M280.564 410.341c2.212 0 4.006-1.765 4.006-3.946 0-2.177-1.794-3.944-4.006-3.944-2.216 0-4.01 1.767-4.01 3.944 0 2.18 1.794 3.946 4.01 3.946M269.04 409.355c1.936 0 3.506-1.543 3.506-3.45 0-1.903-1.57-3.454-3.507-3.454-1.94 0-3.507 1.55-3.507 3.454 0 1.907 1.567 3.45 3.507 3.45M257.518 409.355c2.21 0 4.006-1.769 4.006-3.944 0-2.18-1.795-3.947-4.006-3.947-2.218 0-4.01 1.767-4.01 3.947 0 2.175 1.792 3.944 4.01 3.944M245.995 407.382c1.937 0 3.505-1.546 3.505-3.453 0-1.905-1.568-3.451-3.505-3.451-1.937 0-3.51 1.546-3.51 3.451 0 1.907 1.573 3.453 3.51 3.453M233.967 406.396c2.494 0 4.51-1.986 4.51-4.44 0-2.451-2.016-4.437-4.51-4.437-2.49 0-4.507 1.986-4.507 4.438 0 2.453 2.017 4.44 4.507 4.44M223.448 404.423c2.768 0 5.01-2.209 5.01-4.932 0-2.724-2.242-4.931-5.01-4.931s-5.01 2.207-5.01 4.93c0 2.724 2.242 4.933 5.01 4.933M211.923 401.464c2.494 0 4.51-1.987 4.51-4.437 0-2.453-2.016-4.44-4.51-4.44-2.49 0-4.507 1.987-4.507 4.44 0 2.45 2.017 4.437 4.507 4.437M200.903 398.505c2.486 0 4.509-1.987 4.509-4.438 0-2.452-2.023-4.439-4.51-4.439-2.49 0-4.508 1.987-4.508 4.439 0 2.451 2.018 4.438 4.509 4.438M189.379 393.574c2.215 0 4.009-1.768 4.009-3.947 0-2.179-1.794-3.944-4.01-3.944-2.211 0-4.007 1.765-4.007 3.944 0 2.18 1.796 3.947 4.008 3.947M178.858 389.628c2.49 0 4.51-1.987 4.51-4.438 0-2.45-2.02-4.439-4.51-4.439-2.49 0-4.509 1.99-4.509 4.439 0 2.451 2.02 4.438 4.51 4.438M167.838 385.683c2.49 0 4.507-1.986 4.507-4.44 0-2.45-2.017-4.437-4.507-4.437-2.494 0-4.51 1.988-4.51 4.437 0 2.454 2.016 4.44 4.51 4.44M157.816 378.779c1.94 0 3.507-1.544 3.507-3.453 0-1.906-1.567-3.452-3.507-3.452-1.936 0-3.507 1.546-3.507 3.452 0 1.909 1.571 3.453 3.507 3.453M147.794 373.847c1.935 0 3.51-1.547 3.51-3.452 0-1.908-1.575-3.453-3.51-3.453-1.934 0-3.505 1.545-3.505 3.453 0 1.905 1.57 3.452 3.505 3.452M138.277 367.929c2.212 0 4.008-1.767 4.008-3.946 0-2.18-1.796-3.945-4.008-3.945-2.212 0-4.008 1.765-4.008 3.945 0 2.179 1.796 3.946 4.008 3.946M128.257 361.024c2.214 0 4.008-1.766 4.008-3.946s-1.794-3.944-4.008-3.944c-2.21 0-4.008 1.764-4.008 3.944 0 2.18 1.798 3.946 4.008 3.946M118.736 355.106c2.494 0 4.511-1.986 4.511-4.441 0-2.45-2.017-4.436-4.511-4.436-2.49 0-4.507 1.986-4.507 4.436 0 2.455 2.017 4.441 4.507 4.441M110.722 347.216c2.489 0 4.509-1.987 4.509-4.44 0-2.45-2.02-4.437-4.51-4.437-2.488 0-4.508 1.987-4.508 4.437 0 2.453 2.02 4.44 4.509 4.44M101.704 340.311c2.494 0 4.509-1.987 4.509-4.437s-2.015-4.44-4.51-4.44c-2.49 0-4.508 1.99-4.508 4.44s2.019 4.437 4.509 4.437M93.187 331.434c2.21 0 4.008-1.765 4.008-3.945 0-2.18-1.797-3.946-4.008-3.946-2.215 0-4.008 1.766-4.008 3.946s1.793 3.945 4.008 3.945M85.174 322.557c2.211 0 4.005-1.765 4.005-3.944 0-2.182-1.794-3.947-4.005-3.947-2.214 0-4.011 1.765-4.011 3.947 0 2.179 1.797 3.944 4.011 3.944M78.157 313.68c2.213 0 4.008-1.769 4.008-3.947 0-2.179-1.795-3.944-4.008-3.944-2.21 0-4.008 1.765-4.008 3.944 0 2.178 1.798 3.947 4.008 3.947M70.64 305.79c2.49 0 4.51-1.988 4.51-4.44 0-2.452-2.02-4.438-4.51-4.438-2.487 0-4.507 1.986-4.507 4.438s2.02 4.44 4.507 4.44M64.13 294.94c1.66 0 3.005-1.324 3.005-2.959 0-1.634-1.346-2.96-3.005-2.96-1.662 0-3.008 1.326-3.008 2.96 0 1.635 1.346 2.959 3.008 2.959M58.118 285.076c1.659 0 3.004-1.323 3.004-2.959 0-1.632-1.345-2.959-3.004-2.959-1.662 0-3.008 1.327-3.008 2.96 0 1.635 1.346 2.958 3.008 2.958M52.605 274.226c1.384 0 2.505-1.105 2.505-2.466 0-1.36-1.121-2.465-2.505-2.465-1.383 0-2.505 1.105-2.505 2.465 0 1.361 1.122 2.466 2.505 2.466M47.597 264.363c1.384 0 2.503-1.104 2.503-2.466s-1.12-2.466-2.503-2.466-2.507 1.104-2.507 2.466 1.124 2.466 2.507 2.466M42.084 253.513c1.108 0 2.004-.886 2.004-1.973 0-1.09-.896-1.972-2.004-1.972s-2.004.882-2.004 1.972c0 1.087.896 1.973 2.004 1.973M38.076 242.663c1.105 0 2.004-.884 2.004-1.973 0-1.088-.9-1.972-2.004-1.972s-2.004.884-2.004 1.972c0 1.09.9 1.973 2.004 1.973M34.066 231.814c1.11 0 2.006-.884 2.006-1.972 0-1.091-.896-1.974-2.006-1.974-1.105 0-2.002.883-2.002 1.974 0 1.088.897 1.972 2.002 1.972M31.064 219.568c.32 0 .583-.258.583-.578a.58.58 0 0 0-.583-.576.582.582 0 0 0-.587.576c0 .32.263.578.587.578M28.056 208.94c.447 0 .81-.36.81-.798a.803.803 0 0 0-.81-.798.803.803 0 0 0-.81.798c0 .438.363.797.81.797M26.052 196.837a.537.537 0 0 0 .541-.533.538.538 0 0 0-.54-.53.538.538 0 0 0-.542.53c0 .296.245.533.541.533M24.048 185.853a.4.4 0 0 0 .403-.396.4.4 0 0 0-.403-.399.4.4 0 0 0-.403.399.4.4 0 0 0 .403.396M23.046 173.886a.27.27 0 0 0 .27-.266.27.27 0 0 0-.27-.267.27.27 0 0 0-.27.267.27.27 0 0 0 .27.266M22.046 162.903c.074 0 .132-.06.132-.13a.135.135 0 1 0-.269 0c0 .07.059.13.137.13M440.884 368.37c.25 0 .45-.197.45-.441 0-.245-.2-.442-.45-.442-.251 0-.451.197-.451.442 0 .244.2.442.45.442M431.865 374.645c.447 0 .81-.36.81-.797a.804.804 0 0 0-.81-.8.804.804 0 0 0-.81.8c0 .438.364.797.81.797M421.845 380.562c.447 0 .81-.357.81-.795a.804.804 0 0 0-.81-.8.804.804 0 0 0-.81.8c0 .438.363.795.81.795M411.825 386.391c.395 0 .72-.317.72-.706a.715.715 0 0 0-.72-.71.712.712 0 0 0-.72.71c0 .389.322.706.72.706M401.805 393.574c1.106 0 2.004-.885 2.004-1.974 0-1.09-.898-1.972-2.004-1.972-1.106 0-2.004.881-2.004 1.972 0 1.09.898 1.974 2.004 1.974M390.781 396.21a.67.67 0 0 0 .677-.663.672.672 0 0 0-.677-.664.669.669 0 0 0-.673.664c0 .367.3.663.673.663M379.761 402.45c1.106 0 2.004-.884 2.004-1.975 0-1.089-.898-1.97-2.004-1.97-1.11 0-2.004.881-2.004 1.97 0 1.09.895 1.976 2.004 1.976M368.737 406.396c1.108 0 2.006-.883 2.006-1.974 0-1.088-.898-1.971-2.006-1.971-1.104 0-2.002.883-2.002 1.971 0 1.091.898 1.974 2.002 1.974M357.717 408.635c.152 0 .27-.12.27-.264a.269.269 0 0 0-.27-.269.272.272 0 0 0-.27.269.27.27 0 0 0 .27.264M346.695 412.314a.994.994 0 0 0 1.002-.987.993.993 0 0 0-1.002-.986.993.993 0 0 0-1.002.986c0 .544.446.987 1.002.987M335.673 415.273c1.108 0 2.004-.884 2.004-1.973 0-1.088-.896-1.972-2.004-1.972-1.105 0-2.004.884-2.004 1.972 0 1.09.9 1.973 2.004 1.973M323.65 418.232c1.66 0 3.005-1.325 3.005-2.959 0-1.633-1.346-2.959-3.005-2.959-1.662 0-3.007 1.326-3.007 2.96 0 1.633 1.345 2.958 3.007 2.958M312.627 421.191c2.214 0 4.008-1.768 4.008-3.946 0-2.18-1.794-3.945-4.008-3.945-2.215 0-4.009 1.764-4.009 3.945 0 2.178 1.794 3.946 4.009 3.946M300.6 422.178c2.213 0 4.01-1.768 4.01-3.945 0-2.18-1.797-3.946-4.01-3.946-2.216 0-4.006 1.765-4.006 3.946 0 2.177 1.79 3.945 4.006 3.945M289.077 422.178c1.937 0 3.51-1.546 3.51-3.454 0-1.905-1.573-3.45-3.51-3.45-1.936 0-3.505 1.545-3.505 3.45 0 1.908 1.569 3.454 3.505 3.454M278.06 422.178c1.936 0 3.504-1.546 3.504-3.454 0-1.907-1.568-3.45-3.505-3.45-1.94 0-3.509 1.543-3.509 3.45 0 1.908 1.569 3.454 3.51 3.454M266.536 422.178c2.212 0 4.006-1.768 4.006-3.947 0-2.177-1.794-3.944-4.006-3.944s-4.01 1.767-4.01 3.944c0 2.18 1.798 3.947 4.01 3.947M255.011 422.178c2.493 0 4.51-1.986 4.51-4.44 0-2.452-2.017-4.438-4.51-4.438-2.489 0-4.509 1.986-4.509 4.438 0 2.454 2.02 4.44 4.509 4.44M243.488 420.205c2.213 0 4.008-1.767 4.008-3.945 0-2.179-1.795-3.946-4.008-3.946-2.214 0-4.008 1.767-4.008 3.946 0 2.178 1.794 3.945 4.008 3.945M231.464 418.232c2.216 0 4.008-1.769 4.008-3.945 0-2.178-1.792-3.946-4.008-3.946s-4.008 1.768-4.008 3.946c0 2.176 1.792 3.945 4.008 3.945M219.943 416.26c2.489 0 4.507-1.99 4.507-4.437 0-2.454-2.018-4.44-4.507-4.44-2.493 0-4.511 1.986-4.511 4.44 0 2.448 2.018 4.437 4.51 4.437M208.917 414.287c2.49 0 4.51-1.99 4.51-4.44 0-2.452-2.02-4.437-4.51-4.437-2.49 0-4.507 1.985-4.507 4.437 0 2.45 2.016 4.44 4.507 4.44M197.396 410.341c2.213 0 4.008-1.763 4.008-3.945 0-2.18-1.795-3.945-4.008-3.945-2.214 0-4.008 1.765-4.008 3.945 0 2.182 1.794 3.945 4.008 3.945M186.375 406.396c2.215 0 4.007-1.767 4.007-3.945s-1.792-3.946-4.007-3.946c-2.214 0-4.01 1.768-4.01 3.946s1.796 3.945 4.01 3.945M175.854 402.45c2.487 0 4.507-1.986 4.507-4.44 0-2.45-2.02-4.436-4.507-4.436-2.49 0-4.51 1.987-4.51 4.436 0 2.454 2.02 4.44 4.51 4.44M165.33 397.519c2.214 0 4.01-1.767 4.01-3.944 0-2.18-1.796-3.947-4.01-3.947-2.212 0-4.007 1.767-4.007 3.947 0 2.177 1.795 3.944 4.006 3.944M154.81 392.587c2.492 0 4.51-1.988 4.51-4.438 0-2.45-2.018-4.439-4.51-4.439-2.487 0-4.509 1.988-4.509 4.439 0 2.45 2.022 4.438 4.51 4.438M144.792 387.656c2.49 0 4.507-1.988 4.507-4.44 0-2.452-2.017-4.437-4.507-4.437-2.49 0-4.51 1.985-4.51 4.437s2.02 4.44 4.51 4.44M134.768 381.738c2.49 0 4.511-1.988 4.511-4.439 0-2.45-2.022-4.439-4.51-4.439-2.49 0-4.508 1.99-4.508 4.439 0 2.451 2.018 4.439 4.507 4.439M124.75 374.833c2.49 0 4.509-1.987 4.509-4.437 0-2.453-2.019-4.44-4.509-4.44s-4.509 1.987-4.509 4.44c0 2.45 2.019 4.437 4.509 4.437M115.732 368.915c2.493 0 4.509-1.987 4.509-4.436 0-2.454-2.016-4.441-4.51-4.441-2.488 0-4.508 1.987-4.508 4.441 0 2.449 2.02 4.436 4.509 4.436M106.212 361.024c2.212 0 4.009-1.765 4.009-3.947 0-2.178-1.797-3.943-4.01-3.943-2.21 0-4.006 1.765-4.006 3.943 0 2.182 1.795 3.947 4.007 3.947M98.195 353.134c2.215 0 4.01-1.766 4.01-3.944 0-2.18-1.795-3.947-4.01-3.947-2.211 0-4.006 1.767-4.006 3.947 0 2.178 1.795 3.944 4.006 3.944M89.68 346.23c2.49 0 4.509-1.987 4.509-4.44 0-2.451-2.02-4.438-4.51-4.438-2.49 0-4.508 1.987-4.508 4.439s2.019 4.438 4.509 4.438M81.666 336.366c1.936 0 3.505-1.544 3.505-3.451s-1.569-3.454-3.505-3.454c-1.937 0-3.51 1.547-3.51 3.454 0 1.907 1.573 3.45 3.51 3.45M73.148 328.475c2.215 0 4.007-1.767 4.007-3.945 0-2.18-1.792-3.946-4.007-3.946-2.214 0-4.01 1.766-4.01 3.946 0 2.178 1.796 3.945 4.01 3.945M66.634 319.598c1.938 0 3.507-1.547 3.507-3.451 0-1.908-1.569-3.453-3.507-3.453-1.937 0-3.507 1.545-3.507 3.453 0 1.904 1.57 3.451 3.507 3.451M59.621 309.735c1.938 0 3.506-1.546 3.506-3.452 0-1.905-1.568-3.453-3.506-3.453-1.94 0-3.509 1.548-3.509 3.453 0 1.906 1.57 3.452 3.51 3.452M52.607 298.885c.827 0 1.501-.663 1.501-1.48 0-.816-.674-1.48-1.5-1.48-.831 0-1.506.664-1.506 1.48 0 .817.675 1.48 1.505 1.48M46.595 290.008c1.384 0 2.503-1.105 2.503-2.467 0-1.361-1.12-2.465-2.503-2.465s-2.507 1.104-2.507 2.465c0 1.362 1.124 2.467 2.507 2.467M41.082 277.982c.447 0 .81-.359.81-.797a.804.804 0 0 0-.81-.797c-.45 0-.81.357-.81.797 0 .438.36.797.81.797M35.573 269.295c.83 0 1.501-.664 1.501-1.48a1.49 1.49 0 0 0-1.501-1.48c-.833 0-1.505.665-1.505 1.48 0 .816.672 1.48 1.505 1.48M31.064 256.517c.024 0 .042-.02.042-.042 0-.027-.018-.047-.042-.047a.047.047 0 0 0-.046.047c0 .022.022.042.046.042M26.05 246.742c.074 0 .136-.06.136-.132a.137.137 0 0 0-.136-.134.136.136 0 0 0-.132.134c0 .073.062.132.132.132M22.044 236.025a.27.27 0 0 0 .27-.268.27.27 0 0 0-.27-.264.27.27 0 0 0-.27.264.27.27 0 0 0 .27.268M19.04 225.484a.58.58 0 0 0 .583-.574.58.58 0 0 0-.583-.576.582.582 0 0 0-.587.576c0 .316.263.574.587.574M398.8 406.44c.023 0 .041-.02.041-.04 0-.029-.018-.048-.042-.048-.028 0-.042.02-.042.047 0 .022.014.041.042.041M377.755 415.319a.048.048 0 0 0 .046-.046.048.048 0 0 0-.046-.045c-.024 0-.042.021-.042.045 0 .024.018.046.042.046M366.735 418.499a.267.267 0 1 0 0-.533.27.27 0 0 0-.27.266.27.27 0 0 0 .27.267M321.643 429.215c.078 0 .136-.057.136-.13a.135.135 0 0 0-.136-.136.136.136 0 0 0-.133.136c0 .073.062.13.133.13M309.618 430.2c.075 0 .137-.059.137-.132a.135.135 0 0 0-.137-.132.132.132 0 0 0-.132.132c0 .073.058.132.132.132M298.598 431.498c.25 0 .451-.202.451-.444 0-.245-.2-.442-.45-.442a.448.448 0 0 0-.452.442.45.45 0 0 0 .451.444M286.078 433.027c.828 0 1.498-.661 1.498-1.478 0-.82-.67-1.48-1.498-1.48-.833 0-1.508.66-1.508 1.48 0 .817.675 1.478 1.508 1.478M275.051 433.027a1.49 1.49 0 0 0 1.503-1.478c0-.82-.67-1.48-1.503-1.48a1.49 1.49 0 0 0-1.503 1.48c0 .817.67 1.478 1.503 1.478M263.528 432.041a.995.995 0 0 0 1.002-.985.996.996 0 0 0-1.002-.988.996.996 0 0 0-1.002.988c0 .544.45.985 1.002.985M251.505 431.055a.995.995 0 0 0 1.001-.988.995.995 0 0 0-1.001-.985.995.995 0 0 0-1.003.985c0 .546.448.988 1.003.988M240.484 430.068c.552 0 1-.44 1-.985a.994.994 0 0 0-1-.987.994.994 0 0 0-1.004.987c0 .544.448.985 1.004.985M228.959 428.096c.83 0 1.503-.662 1.503-1.483 0-.817-.673-1.476-1.503-1.476-.83 0-1.503.66-1.503 1.476 0 .821.672 1.483 1.503 1.483M217.436 427.11c1.108 0 2.004-.883 2.004-1.974 0-1.09-.896-1.972-2.004-1.972s-2.004.882-2.004 1.972c0 1.09.896 1.973 2.004 1.973M205.913 423.164c.827 0 1.503-.663 1.503-1.48 0-.816-.676-1.48-1.503-1.48-.828 0-1.503.664-1.503 1.48 0 .817.675 1.48 1.503 1.48M194.89 423.164c2.49 0 4.51-1.987 4.51-4.439 0-2.45-2.02-4.438-4.51-4.438-2.49 0-4.508 1.987-4.508 4.438 0 2.452 2.018 4.439 4.509 4.439M183.866 418.232c1.938 0 3.51-1.545 3.51-3.451 0-1.908-1.572-3.453-3.51-3.453-1.937 0-3.505 1.545-3.505 3.453 0 1.906 1.568 3.451 3.505 3.451M172.845 412.314c.833 0 1.504-.663 1.504-1.48a1.49 1.49 0 0 0-1.504-1.479 1.49 1.49 0 0 0-1.502 1.479c0 .817.672 1.48 1.502 1.48M161.822 410.341c2.49 0 4.511-1.985 4.511-4.435 0-2.455-2.02-4.442-4.51-4.442-2.49 0-4.508 1.987-4.508 4.442 0 2.45 2.017 4.435 4.507 4.435M152.305 405.41c2.216 0 4.008-1.766 4.008-3.946 0-2.179-1.792-3.945-4.008-3.945s-4.008 1.766-4.008 3.945c0 2.18 1.792 3.946 4.008 3.946M141.286 396.533a.992.992 0 0 0 1-.987.991.991 0 0 0-1-.986.996.996 0 0 0-1.005.986c0 .544.452.987 1.005.987M131.766 392.587c1.383 0 2.503-1.104 2.503-2.465 0-1.362-1.12-2.466-2.503-2.466s-2.507 1.104-2.507 2.466c0 1.36 1.124 2.465 2.507 2.465M122.247 384.286a.58.58 0 0 0 .583-.574.581.581 0 0 0-.583-.578.582.582 0 0 0-.587.578c0 .316.262.574.587.574M112.227 381.738c2.21 0 4.006-1.766 4.006-3.945 0-2.18-1.795-3.946-4.006-3.946-2.219 0-4.01 1.766-4.01 3.946 0 2.179 1.791 3.945 4.01 3.945M102.71 372.86c1.382 0 2.5-1.1 2.5-2.465 0-1.363-1.118-2.466-2.5-2.466-1.386 0-2.51 1.103-2.51 2.466 0 1.364 1.124 2.465 2.51 2.465M93.688 365.956c1.383 0 2.505-1.104 2.505-2.466 0-1.361-1.122-2.466-2.505-2.466-1.384 0-2.505 1.105-2.505 2.466 0 1.362 1.121 2.466 2.505 2.466M85.17 359.052c2.217 0 4.009-1.768 4.009-3.947 0-2.175-1.792-3.944-4.008-3.944s-4.008 1.77-4.008 3.944c0 2.18 1.792 3.947 4.008 3.947M77.157 348.202c.552 0 1-.441 1-.987a.992.992 0 0 0-1-.986.995.995 0 0 0-1.004.986c0 .546.451.987 1.004.987M69.14 339.635a.311.311 0 0 0 .313-.31.314.314 0 0 0-.63 0c0 .172.145.31.318.31M61.623 332.42a1.49 1.49 0 0 0 1.504-1.479 1.49 1.49 0 0 0-1.504-1.48 1.49 1.49 0 0 0-1.503 1.48c0 .818.673 1.48 1.503 1.48M54.106 321.615a.046.046 0 0 0 .047-.045c0-.024-.019-.044-.047-.044a.042.042 0 0 0-.042.044c0 .021.018.045.042.045M47.092 313.091a.403.403 0 0 0 .407-.396.405.405 0 0 0-.81 0 .4.4 0 0 0 .403.396M41.082 302.962c.074 0 .137-.059.137-.132a.135.135 0 0 0-.137-.132.135.135 0 0 0-.136.132c0 .073.062.132.136.132M35.072 293.1a.133.133 0 0 0 0-.266.135.135 0 0 0-.136.132c0 .073.062.134.136.134M19.04 262.435c.024 0 .042-.02.042-.044 0-.023-.018-.045-.042-.045a.045.045 0 0 0-.046.045c0 .024.018.044.046.044M192.384 431.453c.226 0 .406-.18.406-.398a.402.402 0 0 0-.406-.399.401.401 0 0 0-.403.399c0 .219.18.398.403.398M181.361 427.242a.137.137 0 0 0 .137-.134.135.135 0 0 0-.137-.132.133.133 0 0 0 0 .266M170.343 423.208c.024 0 .042-.02.042-.043 0-.026-.018-.045-.042-.045a.044.044 0 0 0-.046.045c0 .024.018.043.046.043M159.317 419.528a.312.312 0 0 0 .317-.31c0-.171-.14-.31-.317-.31a.311.311 0 0 0-.312.31c0 .172.14.31.312.31M149.297 414.597a.312.312 0 0 0 .317-.31c0-.17-.14-.31-.317-.31a.312.312 0 0 0-.312.31c0 .171.14.31.312.31M138.275 409.399c.024 0 .046-.02.046-.042a.046.046 0 0 0-.046-.045c-.024 0-.042.02-.042.045 0 .022.018.042.042.042M128.259 403.703a.27.27 0 0 0 .27-.266.27.27 0 0 0-.27-.266.273.273 0 0 0-.275.266c0 .146.127.266.275.266M118.235 397.652c.078 0 .136-.057.136-.13a.135.135 0 1 0-.268 0c0 .073.058.13.132.13M109.22 390.747c.075 0 .133-.06.133-.132a.132.132 0 0 0-.132-.133.135.135 0 0 0-.136.133c0 .073.062.132.136.132M99.199 383.843c.074 0 .132-.059.132-.13a.134.134 0 0 0-.132-.136.134.134 0 0 0-.132.136c0 .071.058.13.132.13M90.183 377.072a.266.266 0 1 0 0-.532.27.27 0 0 0-.27.266.27.27 0 0 0 .27.266M81.165 368.96c.024 0 .042-.02.042-.046a.042.042 0 0 0-.042-.043c-.028 0-.046.02-.046.043 0 .026.018.046.046.046M73.145 362.055c.028 0 .046-.02.046-.041 0-.028-.018-.048-.046-.048-.024 0-.043.02-.043.048 0 .021.019.041.043.041M65.129 353.178c.028 0 .046-.02.046-.045 0-.024-.018-.044-.046-.044-.02 0-.043.02-.043.044 0 .025.022.045.043.045M57.114 345.287c.029 0 .043-.02.043-.041 0-.028-.014-.047-.043-.047-.028 0-.042.02-.042.047 0 .022.014.041.042.041M42.086 327.532c.024 0 .042-.02.042-.041 0-.024-.018-.046-.042-.046a.048.048 0 0 0-.046.046c0 .021.022.041.046.041M146.291 427.155c.028 0 .046-.02.046-.044a.047.047 0 0 0-.046-.047c-.024 0-.042.024-.042.047 0 .024.018.044.042.044M135.27 422.221c.027 0 .045-.02.045-.041a.044.044 0 0 0-.046-.046c-.024 0-.042.02-.042.046 0 .021.018.041.042.041M125.249 416.305a.046.046 0 0 0 .046-.045.044.044 0 0 0-.046-.046s-.042.02-.042.046c0 .021.022.045.042.045M115.233 410.386c.024 0 .042-.02.042-.046a.042.042 0 0 0-.042-.043c-.024 0-.046.02-.046.043 0 .026.022.046.046.046M105.21 404.468c.025 0 .043-.02.043-.044 0-.025-.018-.045-.042-.045-.028 0-.042.02-.042.045 0 .024.014.044.042.044M96.193 397.564c.024 0 .042-.021.042-.043 0-.026-.018-.047-.042-.047-.028 0-.042.021-.042.047 0 .022.014.043.042.043M87.175 390.659c.024 0 .042-.022.042-.045a.042.042 0 0 0-.042-.044c-.028 0-.042.02-.042.044 0 .023.014.045.042.045M53.104 359.096a.045.045 0 0 0 .047-.043.045.045 0 0 0-.047-.046c-.024 0-.042.022-.042.046 0 .021.018.043.042.043M45.09 351.205c.024 0 .046-.02.046-.045 0-.024-.022-.043-.046-.043s-.046.02-.046.043c0 .026.022.045.046.045M38.078 342.328c.024 0 .042-.02.042-.041 0-.028-.018-.047-.042-.047-.028 0-.046.02-.046.047 0 .022.018.041.046.041" fill="#569C48"/>
        <g transform="translate(131.263 433.027)">
            <mask id="84behnojbh" fill="#fff">
                <use xlink:href="#3jlwqoii4g"/>
            </mask>
            <path d="M1 1.502c.028 0 .046-.02.046-.042 0-.027-.018-.047-.046-.047-.024 0-.042.02-.042.047 0 .022.018.042.042.042" fill="#569C48" mask="url(#84behnojbh)"/>
        </g>
        <path d="M74.15 396.71a.176.176 0 0 0 .177-.178.174.174 0 0 0-.176-.176.177.177 0 1 0 0 .353M41.08 365.014c.028 0 .046-.02.046-.041 0-.026-.018-.048-.046-.048-.02 0-.042.022-.042.048 0 .021.022.041.042.041M33.068 356.137c.024 0 .042-.02.042-.043 0-.024-.018-.046-.042-.046a.045.045 0 0 0-.046.046c0 .023.018.043.046.043M80.163 417.29c.024 0 .042-.02.042-.044a.042.042 0 0 0-.042-.044c-.028 0-.046.02-.046.044 0 .024.018.043.046.043M71.145 410.386c.024 0 .042-.02.042-.042 0-.025-.018-.047-.042-.047-.028 0-.047.022-.047.047 0 .022.019.042.047.042M7.012 344.301a.045.045 0 0 0 .046-.045c0-.024-.018-.044-.046-.044a.042.042 0 0 0-.042.044c0 .023.018.045.042.045" fill="#569C48"/>
        <g transform="translate(0 333.407)">
            <mask id="81gwggv2kj" fill="#fff">
                <use xlink:href="#nn3hs25idi"/>
            </mask>
            <path d="M.521 1.03c.029 0 .047-.019.047-.043A.044.044 0 0 0 .52.942C.497.942.48.962.48.987c0 .024.018.044.042.044" fill="#569C48" mask="url(#81gwggv2kj)"/>
        </g>
    </g>
</svg>
