<svg width="44" height="45" viewBox="0 0 44 45" xmlns="http://www.w3.org/2000/svg">
    <g fill-rule="nonzero" fill="none">
        <path d="M1.455 7.349h5.818v1.467c0 .388.154.761.426 1.036.273.275.643.43 1.028.43h14.546a1.45 1.45 0 0 0 1.028-.43c.272-.275.426-.648.426-1.036V7.349h5.818v9.533H32V7.35c0-.39-.154-.762-.427-1.037a1.45 1.45 0 0 0-1.028-.43h-6.357a1.495 1.495 0 0 0-.108-.094l-1.858-1.25a.723.723 0 0 0-.404-.122h-1.454v-1.1a1.475 1.475 0 0 0-.583-1.173L17.358.309a1.455 1.455 0 0 0-.873-.293h-.97c-.315 0-.62.103-.872.293l-2.424 1.833a1.476 1.476 0 0 0-.583 1.174v1.1h-1.454a.723.723 0 0 0-.403.123L7.92 5.788c-.038.03-.075.06-.11.094H1.456a1.45 1.45 0 0 0-1.028.43A1.475 1.475 0 0 0 0 7.35v35.2c0 .389.154.761.427 1.036.272.275.642.43 1.028.43h25.454V42.55H1.455v-35.2zm7.272-.341 1.675-1.126h1.962a.724.724 0 0 0 .514-.215.737.737 0 0 0 .213-.518V3.315l2.424-1.833h.97l2.424 1.833V5.15c0 .194.077.38.213.518a.724.724 0 0 0 .514.215h1.962l1.675 1.126v1.807l-14.546.002V7.008z" fill="#589B46"/>
        <path d="M16 6.016a1 1 0 1 1 0-2 1 1 0 0 1 0 2zM11.037 24.016l-1.818 1.65a1.39 1.39 0 0 0-.708-.202H5.504c-.4 0-.781.173-1.063.48-.282.308-.44.724-.441 1.158v3.276c0 .434.16.85.441 1.157.282.307.664.48 1.063.48H8.51c.399 0 .78-.173 1.063-.48.282-.307.44-.723.44-1.157v-3.276l-.001-.023L12 25.275l-.963-1.26zM8.51 30.378H5.504v-3.276h2.133L6.526 28.11l.963 1.259 1.022-.928v1.937z" fill="#2D2D2D"/>
        <path d="m11.037 31.016-1.818 1.65a1.39 1.39 0 0 0-.708-.202H5.504c-.4 0-.781.173-1.063.48-.282.308-.44.724-.441 1.158v3.276c0 .434.16.85.441 1.157.282.307.664.48 1.063.48H8.51c.399 0 .78-.173 1.063-.48.282-.307.44-.723.44-1.157v-3.276l-.001-.023L12 32.275l-.963-1.26zM8.51 37.378H5.504v-3.276h2.133L6.526 35.11l.963 1.259 1.022-.928v1.937zM13 27.016h1v1h-1z" fill="#2D2D2D"/>
        <path fill="#589B46" d="M18 27.016h9v1h-9z"/>
        <path fill="#2D2D2D" d="M12 31.016h5v1h-5z"/>
        <path fill="#589B46" d="M19 31.016h8v1h-8z"/>
        <path fill="#2D2D2D" d="M13 35.016h1v1h-1z"/>
        <path fill="#589B46" d="M17 35.016h10v1H17z"/>
        <path fill="#2D2D2D" d="M12 38.016h5v1h-5z"/>
        <path fill="#589B46" d="M19 38.016h8v1h-8zM29 15.516v-3c0-.398-.156-.78-.431-1.06a1.458 1.458 0 0 0-1.04-.44H5.471c-.39 0-.764.158-1.04.44-.275.28-.43.662-.431 1.06v9c0 .397.156.778.431 1.06.276.28.65.439 1.04.44h17.647v-1.5H12.824v-4.5h11.029v-1.5h-11.03v-3H27.53v3H29zm-17.647 6H5.47v-4.5h5.882v4.5zm-5.882-6v-3h5.882v3H5.47z"/>
        <path d="M43.96 26.865a.733.733 0 0 0-.377-.425l-3.237-1.55v-1.344a2.224 2.224 0 0 0-1.104-1.915l-3.766-2.165a2.17 2.17 0 0 0-1.902-.134l-2.623 1.056-2.714-1.3a.717.717 0 0 0-.545-.034l-2.193.735a.733.733 0 0 0-.461.93l.73 2.206c.063.19.2.346.38.432l2.737 1.31c-.15.3-.23.631-.231.967v4.973c0 .228.053.453.154.657l1.307 2.631v10.12h1.462v-10.12a1.49 1.49 0 0 0-.154-.657l-1.308-2.631v-4.973c0-.406.327-.736.731-.736.404 0 .73.33.73.736v2.51l2.407 2.421 1.034-1.04-1.979-1.99v-.877l5.846 2.8v.732a3.65 3.65 0 0 1-.608 2.02 5.122 5.122 0 0 0-.853 2.837v8.969h1.461v-8.97c0-.718.212-1.421.609-2.02.557-.84.854-1.826.853-2.836v-.03l1.148.55a.73.73 0 0 0 .967-.336l1.462-2.941a.739.739 0 0 0 .037-.568zm-9.844-6.167a.728.728 0 0 1 .635.044l3.765 2.165a.739.739 0 0 1 .369.64v.642l-6.137-2.94 1.368-.551zm7.358 8.374-8.546-4.096a2.18 2.18 0 0 0-1.143-1.336 2.16 2.16 0 0 0-1.752-.051l-2.976-1.426-.402-1.21 1.22-.41 14.407 6.903-.808 1.626z" fill="#589B46"/>
    </g>
</svg>
