<svg width="70" height="58" viewBox="0 0 70 58" xmlns="http://www.w3.org/2000/svg">
    <g fill-rule="nonzero" fill="none">
        <path d="M19.058 46.014c.135.411.488.71.912.772.06.01 1.499.214 3.356.214 2.562 0 4.613-.381 6.098-1.132 5.595-2.833 10.55-8.942 10.758-9.201a1.156 1.156 0 0 0-.076-1.533l1.599-1.618.799.81a1.122 1.122 0 0 0 1.598 0L69.669 8.428a1.153 1.153 0 0 0 0-1.618L63.276.336a1.118 1.118 0 0 0-1.597 0L36.11 26.229a1.153 1.153 0 0 0 0 1.618l.799.81-1.598 1.62v-.002a1.122 1.122 0 0 0-1.598 0L19.331 44.843c-.303.306-.408.76-.274 1.171zM43.3 31.896l-.798-.807v-.001l-1.599-1.621L64.874 5.19l2.397 2.428-23.97 24.278zM62.478 2.762l.8.81-23.97 24.276-.002-.001-.797-.808L62.478 2.762zm-23.97 27.515 1.6 1.62-1.6 1.618-1.597-1.62 1.597-1.618zm-3.996 2.428c.001 0 .001.001 0 0L37.766 36c-1.497 1.707-5.32 5.778-9.351 7.82-1.152.582-2.91.89-5.087.89-.227 0-.448-.003-.66-.01l11.844-11.995zM21.833 55h-4.666c-.644 0-1.167.67-1.167 1.5s.523 1.5 1.167 1.5h4.666c.644 0 1.167-.67 1.167-1.5s-.523-1.5-1.167-1.5zM29.833 55h-4.666c-.644 0-1.167.67-1.167 1.5s.523 1.5 1.167 1.5h4.666c.644 0 1.167-.67 1.167-1.5s-.523-1.5-1.167-1.5zM38.833 55h-4.666c-.644 0-1.167.67-1.167 1.5s.523 1.5 1.167 1.5h4.666c.644 0 1.167-.67 1.167-1.5s-.523-1.5-1.167-1.5zM48.833 55h-4.666c-.644 0-1.167.67-1.167 1.5s.523 1.5 1.167 1.5h4.666c.644 0 1.167-.67 1.167-1.5s-.523-1.5-1.167-1.5zM57.833 55h-4.666c-.644 0-1.167.67-1.167 1.5s.523 1.5 1.167 1.5h4.666c.644 0 1.167-.67 1.167-1.5s-.523-1.5-1.167-1.5z" fill="#589B46"/>
        <path d="M8.223 28.827c2.396-1.074 5.11-2.29 5.11-5.029 0-2.74-2.714-3.958-5.11-5.033-1.857-.834-3.779-1.696-3.779-2.945 0-.07-.026-.131-.038-.197a3.407 3.407 0 0 0 2.26-3.223c0-1.46-.9-2.698-2.156-3.188.435-3.343 3.226-5.932 6.601-5.932 3.677 0 6.667 3.068 6.667 6.84 0 .629.498 1.14 1.11 1.14.614 0 1.112-.511 1.112-1.14C20 5.091 16.012 1 11.111 1 6.521 1 2.732 4.589 2.27 9.175A3.406 3.406 0 0 0 0 12.4c0 1.5.95 2.76 2.261 3.223-.012.066-.039.126-.039.197 0 2.74 2.715 3.958 5.111 5.033 1.858.833 3.778 1.696 3.778 2.945 0 1.247-1.921 2.11-3.778 2.941-2.395 1.074-5.11 2.291-5.11 5.03 0 2.741 2.714 3.96 5.11 5.035 1.857.834 3.778 1.697 3.778 2.946 0 2.038-1.675 3.14-4.432 4.715-2.61 1.489-5.568 3.176-5.568 6.695 0 6.131 6.341 6.84 11.111 6.84.613 0 1.111-.51 1.111-1.14 0-.63-.498-1.14-1.11-1.14-8.89 0-8.89-3.079-8.89-4.56 0-2.032 1.672-3.131 4.426-4.703 2.612-1.49 5.574-3.18 5.574-6.707 0-2.74-2.714-3.96-5.11-5.035-1.857-.833-3.779-1.696-3.779-2.945 0-1.248 1.922-2.11 3.78-2.943zM3.333 11.26c.612 0 1.111.512 1.111 1.14 0 .628-.499 1.14-1.11 1.14-.613 0-1.112-.512-1.112-1.14 0-.628.5-1.14 1.111-1.14z" fill="#2D2D2D"/>
        <path d="M66.625 51c-.62 0-1.125.521-1.125 1.167 0 .645.504 1.166 1.125 1.166.62 0 1.125.523 1.125 1.167s-.505 1.167-1.125 1.167h-4.5c-.62 0-1.125.521-1.125 1.166 0 .646.504 1.167 1.125 1.167h4.5C68.485 58 70 56.43 70 54.5S68.486 51 66.625 51zM15.167 51c-.644 0-1.167.67-1.167 1.5s.523 1.5 1.167 1.5h46.666c.644 0 1.167-.67 1.167-1.5s-.523-1.5-1.167-1.5H15.167z" fill="#589B46"/>
    </g>
</svg>
