<svg width="29" height="30" viewBox="0 0 29 30" xmlns="http://www.w3.org/2000/svg">
    <g fill-rule="nonzero" fill="none">
        <path d="M27.32 7.873a.647.647 0 0 0-.87-.267.639.639 0 0 0-.27.865c1.003 1.878 1.531 4 1.531 6.138 0 7.238-5.927 13.126-13.21 13.126-7.284 0-13.212-5.889-13.212-13.127S7.217 1.483 14.5 1.483c1.406 0 2.778.228 4.095.655l-.237.64c-.124.328.064.561.414.514l2.631-.35c.35-.047.46-.312.237-.586l-1.73-2.16c-.22-.275-.5-.23-.624.1l-.241.643A14.546 14.546 0 0 0 14.5.202C6.505.202 0 6.664 0 14.608c0 7.944 6.505 14.408 14.5 14.408S29 22.552 29 14.608c0-2.346-.581-4.676-1.68-6.736v.001z" fill="#333"/>
        <path d="M3 14.516c0 6.352 5.148 11.5 11.5 11.5 6.35 0 11.5-5.148 11.5-11.5 0-6.351-5.15-11.5-11.5-11.5-6.352 0-11.5 5.149-11.5 11.5zm3.72.641H4.63v-1.285h2.09v1.285h-.002zm8.423 9.224h-1.287v-2.087h1.287v2.087zm7.136-10.51h2.09v1.286h-2.09v-1.285zm-1.925.644a.642.642 0 0 1-.643.642h-5.212a.647.647 0 0 1-.454-.187l-4.858-4.86a.643.643 0 0 1 .91-.91l4.669 4.672h4.945c.356 0 .643.286.643.643zm-5.211-7.782h-1.287V4.647h1.286v2.086z" fill="#589B46"/>
    </g>
</svg>
