<svg width="90" height="95" viewBox="0 0 90 95" xmlns="http://www.w3.org/2000/svg">
    <g fill-rule="nonzero" fill="none">
        <path d="M48.277 24.83c.137.143.29.272.476.4.544.497 1.236.77 1.958.77.794 0 1.54-.327 2.1-.913l9.318-9.781c1.162-1.217 1.162-3.202-.002-4.42-1.121-1.18-3.082-1.183-4.212 0l-7.25 7.61-1.58-1.657c-1.125-1.181-3.085-1.181-4.213 0-1.163 1.22-1.163 3.201 0 4.42l3.405 3.571zm-1.944-6.457a.883.883 0 0 1 1.293-.001l2.308 2.423a.998.998 0 0 0 1.46 0l7.98-8.376a.904.904 0 0 1 1.294-.002.996.996 0 0 1 .002 1.357l-9.32 9.78a.901.901 0 0 1-1.268.019 1.004 1.004 0 0 0-.16-.131 1.007 1.007 0 0 1-.187-.147l-3.4-3.568a.992.992 0 0 1-.002-1.354z" fill="#2D2D2D"/>
        <path d="m89.175 31.07-5.266-5.284c-1.067-1.07-2.928-1.07-3.994 0a2.817 2.817 0 0 0-.827 2c0 .709.267 1.37.737 1.89l-2.406 2.411-.993-.994c-1.065-1.069-2.925-1.067-3.991.002-.924.925-1.06 2.333-.435 3.419L53.886 52.679c-.021.021-.027.052-.05.077a1.098 1.098 0 0 0-.23.507l-.534 2.048c-3.156-4.496-7.835-8.071-13.734-10.236 3.181-2.766 5.18-6.66 5.67-10.922a18.05 18.05 0 0 0 8.517 2.143c9.98 0 18.099-8.141 18.099-18.148C71.624 8.142 63.505 0 53.525 0c-9.484 0-17.273 7.357-18.023 16.678a15.776 15.776 0 0 0-6.7-1.495c-9.027 0-16.37 7.602-16.37 16.944 0 5.048 2.148 9.75 5.835 12.952C6.944 49.234 0 58.515 0 69.715V93.91C0 94.512.486 95 1.086 95h55.426c.602 0 1.086-.488 1.086-1.09V69.715c0-2.396-.337-4.695-.945-6.884-.019-.005-.032-.018-.048-.023l5.189-1.36c.11-.023.214-.058.316-.115.066-.033.128-.077.188-.126.018-.016.04-.023.058-.037l.022-.026a.061.061 0 0 0 .013-.01L80.47 43.006a2.799 2.799 0 0 0 3.412-.436 2.843 2.843 0 0 0-.001-4.002l-.968-.971 2.405-2.415a2.797 2.797 0 0 0 3.855-.113 2.832 2.832 0 0 0 .003-3.999zM61.622 58.827l-5.397-5.412 2.339-2.347 2.043 2.049a1.085 1.085 0 0 0 1.537 0 1.09 1.09 0 0 0 0-1.54l-2.043-2.048 2.105-2.112 2.044 2.05a1.084 1.084 0 0 0 1.537 0 1.094 1.094 0 0 0 0-1.541l-2.044-2.049 2.043-2.046 2.043 2.049c.21.212.49.318.766.318.277 0 .556-.106.77-.318a1.091 1.091 0 0 0 0-1.54l-2.044-2.048 1.942-1.947 2.041 2.048c.213.214.491.318.77.318a1.09 1.09 0 0 0 .769-1.857l-2.043-2.049 2.668-2.676 5.4 5.41-17.246 17.288zm-7.14-.322.765-2.926 4.218 4.227-2.92.766-2.063-2.067zM53.523 2.18c8.783 0 15.928 7.163 15.928 15.968 0 8.807-7.145 15.97-15.928 15.97-2.86 0-5.67-.771-8.12-2.232a1.076 1.076 0 0 0-.935-.083l-4.003 1.5.745-4.454a1.089 1.089 0 0 0-.217-.852 15.833 15.833 0 0 1-3.395-9.849c0-8.805 7.144-15.968 15.925-15.968zm1.905 90.644H44.93v-24.77c0-.603-.487-1.09-1.086-1.09-.602 0-1.087.488-1.087 1.09v24.77h-28.23v-24.77c0-.603-.486-1.09-1.086-1.09-.6 0-1.088.488-1.088 1.09v24.77H2.173V69.714c0-10.837 7.164-19.733 18.7-23.212a1.1 1.1 0 0 0 .762-.884 1.097 1.097 0 0 0-.474-1.067c-4.106-2.734-6.558-7.38-6.558-12.426 0-8.144 6.371-14.766 14.199-14.766 2.41 0 4.674.638 6.663 1.749a17.949 17.949 0 0 0 3.528 9.846l-.978 5.846c-.064.385.08.773.381 1.02.298.249.708.32 1.07.18l3.268-1.224c-.69 3.988-2.919 7.528-6.288 9.775-.349.232-.535.649-.474 1.067.062.417.359.76.764.884 7.047 2.122 12.45 6.276 15.596 11.658l-.106.4c-.096.373.013.77.284 1.042l.01.01-1.553 1.557c-.205.203-.32.48-.32.769 0 .253.102.489.26.68l-2.29 2.3a1.089 1.089 0 0 0 .768 1.859c.279 0 .555-.108.767-.318l2.293-2.3c.2.163.437.26.682.26.278 0 .556-.105.766-.32l.672-.672c.56 1.999.867 4.101.867 6.287v23.11h-.004zm26.92-51.792a.644.644 0 0 1-.462.19.644.644 0 0 1-.459-.187l-.26-.262-.001-.001-6.935-6.953c0-.002-.003-.003-.003-.004l-.258-.255a.664.664 0 0 1 0-.924.654.654 0 0 1 .462-.192c.174 0 .338.068.458.19l7.455 7.476a.653.653 0 0 1 .002.922zm-3.501-7.51 2.395-2.4 2.636 2.644-2.393 2.4-2.638-2.645zm8.792.01a.65.65 0 0 1-.918.001l-5.27-5.284a.638.638 0 0 1-.19-.458c0-.176.07-.34.192-.463a.639.639 0 0 1 .459-.192c.175 0 .337.068.458.192l5.27 5.28a.654.654 0 0 1 0 .924z" fill="#589B46"/>
    </g>
</svg>
